<svg width="451" height="844" viewBox="0 0 451 844" fill="none" xmlns="http://www.w3.org/2000/svg">
<path d="M92.2909 188.664C92.3382 188.743 92.4148 188.799 92.5038 188.821C92.5928 188.843 92.6869 188.829 92.7654 188.782C92.8439 188.734 92.9004 188.658 92.9225 188.569C92.9445 188.48 92.9303 188.386 92.8829 188.307C92.8829 188.307 92.8829 188.307 92.8829 188.307C92.2699 187.278 91.7984 186.109 91.3714 184.943C87.3264 172.533 85.4911 159.457 83.3157 146.562L83.3073 146.524C83.3042 146.513 83.301 146.502 83.2979 146.49C81.5187 140.096 80.11 133.582 79.2751 127.005L79.2677 126.965C79.2667 126.961 79.2658 126.957 79.2648 126.953C78.547 124.131 77.1791 121.603 75.9502 119.055C75.3916 117.926 74.832 116.808 74.2672 115.678C74.2262 115.596 74.1543 115.534 74.0673 115.505C73.9803 115.476 73.8854 115.483 73.8034 115.524C73.7214 115.565 73.659 115.637 73.63 115.724C73.6011 115.811 73.6078 115.906 73.6488 115.988C73.6488 115.988 73.6488 115.988 73.6488 115.988C74.2135 117.117 74.773 118.235 75.3305 119.361C76.5582 121.902 77.9135 124.43 78.5936 127.119C78.5945 127.123 78.5954 127.127 78.5963 127.13L78.5889 127.09C79.4299 133.714 80.8446 140.251 82.632 146.676C82.6352 146.688 82.6383 146.699 82.6415 146.71L82.6331 146.672C84.8142 159.586 86.6317 172.624 90.7215 185.179C91.1577 186.368 91.634 187.559 92.2909 188.664Z" fill="black"/>
<path d="M213.675 1.83743C213.579 1.83743 213.488 1.8753 213.421 1.94269C213.353 2.01009 213.315 2.1015 213.315 2.19681C213.315 2.29212 213.353 2.38353 213.421 2.45093C213.488 2.51832 213.579 2.55618 213.675 2.55618C213.675 2.55618 213.675 2.55618 213.675 2.55618C214.218 2.55618 214.762 2.55618 215.304 2.55618C215.576 2.55618 215.848 2.55618 216.119 2.55618C216.255 2.55618 216.393 2.55618 216.527 2.55618C216.562 2.55618 216.595 2.55618 216.629 2.55618C216.647 2.55618 216.661 2.55618 216.68 2.55618C216.685 2.55618 216.688 2.55618 216.692 2.55618C216.695 2.55618 216.698 2.55618 216.699 2.55618C216.7 2.55618 216.701 2.55618 216.701 2.55618C216.701 2.55618 216.702 2.55618 216.702 2.55618C216.702 2.55618 216.702 2.55618 216.702 2.55618C216.702 2.55618 216.702 2.55618 216.702 2.55618C216.702 2.55618 216.702 2.55618 216.702 2.55618C216.702 2.55618 216.702 2.55618 216.702 2.55618C216.702 2.55618 216.702 2.55618 216.702 2.55618C216.702 2.55618 216.702 2.55618 216.702 2.55618C216.702 2.55618 216.702 2.55618 216.702 2.55618C216.702 2.55618 216.702 2.55618 216.702 2.55618C216.702 2.95549 216.702 1.43813 216.702 1.83743C216.702 1.83743 216.702 1.83743 216.702 1.83743C216.702 1.83743 216.702 1.83743 216.702 1.83743C216.702 1.83743 216.702 1.83743 216.702 1.83743C216.702 1.83743 216.702 1.83743 216.702 1.83743C216.702 1.83743 216.702 1.83743 216.702 1.83743C216.702 1.83743 216.702 1.83743 216.702 1.83743C216.702 1.83743 216.702 1.83743 216.701 1.83743C216.701 1.83743 216.7 1.83743 216.698 1.83743C216.694 1.83743 216.68 1.83743 216.674 1.83743C216.606 1.83743 216.541 1.83743 216.469 1.83743C216.355 1.83743 216.241 1.83716 216.126 1.83661C210.898 1.8018 205.668 1.27352 200.436 0.836502C191.814 0.093187 183.092 -0.448395 174.433 0.527291C174.273 0.545172 174.113 0.563568 173.953 0.582484C160.453 1.61293 148.736 9.40075 135.903 12.0005C135.646 12.0332 135.388 12.0614 135.131 12.0848C130.481 12.5584 126.331 10.0821 121.73 8.7609C121.45 8.70596 121.157 8.66614 120.858 8.66491C120.681 8.66668 120.524 8.67606 120.324 8.75599C120.123 8.82695 119.905 9.06453 119.866 9.29047C119.789 9.73645 119.93 10.0058 120.036 10.2835C120.264 10.8061 120.554 11.2626 120.843 11.7153C121.43 12.6171 122.043 13.4725 122.63 14.3486C123.757 16.0825 125.041 17.9289 125.145 19.868C125.146 20.0686 125.14 20.2622 125.128 20.4489C125.197 24.1847 120.999 25.5031 117.639 25.1844C114.151 24.9993 110.704 24.128 107.31 23.1568C100.515 21.2104 93.9715 18.4343 87.1274 16.4544C86.0944 16.1815 85.089 15.7769 84.0726 15.3638C83.7073 15.2166 83.3427 15.0675 82.9563 14.9354C82.7621 14.8703 82.5638 14.8074 82.3369 14.7664C82.222 14.7473 82.1023 14.7303 81.9468 14.7444C81.8042 14.7545 81.5501 14.8317 81.4246 15.0571C81.2704 15.3658 81.3454 15.5658 81.3749 15.732C81.416 15.8993 81.4703 16.0416 81.5289 16.1826C81.646 16.4602 81.7801 16.7178 81.9158 16.9687C82.1889 17.4702 82.4784 17.954 82.7624 18.4353C83.2552 19.2686 83.7427 20.0988 84.1718 20.9501C84.6569 21.9201 85.0888 22.9322 85.1331 23.9497C85.2432 25.4172 84.1429 26.6018 82.818 27.3114C81.8754 27.8371 80.9596 28.3181 79.9989 28.7904C66.3531 36.2356 50.5858 33.6709 35.472 33.5056C35.4516 33.5066 35.4341 33.5076 35.4183 33.5086C35.4141 33.5089 35.3938 33.5103 35.3793 33.5119C35.3568 33.5161 35.4095 33.5026 35.3044 33.5264C35.288 33.5318 35.2676 33.5364 35.2223 33.5622C35.1902 33.587 35.0522 33.6486 35.0451 33.8836C35.0668 34.1149 35.1979 34.1636 35.2299 34.1883C35.274 34.2121 35.294 34.2163 35.3101 34.2213C35.3248 34.2254 35.332 34.2268 35.3395 34.2283C35.3535 34.231 35.3619 34.232 35.3692 34.233C35.4453 34.2401 35.4571 34.2384 35.4934 34.2401C35.5588 34.2422 35.619 34.2435 35.6815 34.2449C35.8024 34.2475 35.9312 34.25 36.0493 34.2524C36.2946 34.2574 36.5387 34.2627 36.7829 34.2688C37.2728 34.2811 37.7608 34.2964 38.2477 34.3158C39.3632 34.3607 40.4781 34.4258 41.5829 34.5347C42.6612 34.6504 43.7889 34.7662 44.7377 35.1037C44.9218 35.166 45.1256 35.3136 45.1053 35.3138C45.087 35.2907 45.1166 35.2232 45.0889 35.2748C45.0626 35.3131 44.9952 35.3754 44.9184 35.4298C44.5946 35.6556 44.1628 35.8317 43.7363 35.9917C42.7009 36.3753 41.7346 36.7313 40.7002 37.1104C28.3532 41.983 15.1977 44.8992 3.63329 51.8484C2.99177 52.2869 2.34971 52.7279 1.73251 53.2309C1.26504 53.6173 0.804532 54.0303 0.435124 54.5723C0.0625994 55.0898 -0.15969 55.9078 0.138556 56.5789C0.75343 57.8713 1.91964 58.4229 2.96528 58.9957L3.0375 59.0233C3.75776 59.2143 4.4694 59.4017 5.17281 59.5856C29.2401 66.3441 54.3242 69.2479 79.296 68.9902C81.4949 69.004 83.6966 69.0101 85.9363 69.0113L85.9673 69.01C86.0599 69.0021 86.1517 68.9942 86.2427 68.9861C90.3682 68.6273 94.6516 67.9123 98.339 65.8617C98.4257 65.8184 98.4915 65.7425 98.5222 65.6506C98.5528 65.5587 98.5457 65.4584 98.5023 65.3717C98.459 65.2851 98.3831 65.2192 98.2912 65.1886C98.1993 65.1579 98.099 65.1651 98.0123 65.2084C98.0123 65.2084 98.0123 65.2084 98.0123 65.2084C94.3909 67.2182 90.289 67.896 86.1783 68.2585C86.0882 68.2664 85.9973 68.2743 85.9056 68.2821L85.9367 68.2808C83.698 68.2796 81.4977 68.2735 79.3006 68.2598C54.3325 68.5133 29.4092 65.6285 5.35755 58.8788C4.65499 58.6952 3.94418 58.508 3.2247 58.3172L3.29692 58.3449C2.29792 57.8228 1.20956 57.1933 0.816412 56.3067C0.427278 55.4377 1.34119 54.4923 2.19505 53.7963C2.77762 53.3212 3.40753 52.8873 4.04474 52.452C15.3384 45.6507 28.6199 42.6556 40.9515 37.7963C41.9867 37.4169 42.9538 37.0606 43.9901 36.6767C44.4461 36.5025 44.8902 36.3353 45.3443 36.0233C45.4567 35.941 45.5738 35.8495 45.6838 35.6988C45.7938 35.5677 45.8942 35.239 45.7661 35.0026C45.5171 34.5823 45.2411 34.5364 45.0037 34.4234C43.8657 34.0239 42.7654 33.9336 41.6539 33.812C40.5278 33.7032 39.4016 33.64 38.2764 33.5947C37.7854 33.5751 37.2938 33.5598 36.801 33.5475C36.5552 33.5413 36.3097 33.536 36.0639 33.5311C35.9456 33.5287 35.8166 33.5262 35.6973 33.5236C35.6359 33.5222 35.576 33.5209 35.5167 33.519C35.4935 33.5185 35.4434 33.5156 35.4567 33.5168C35.4605 33.5173 35.4659 33.5179 35.4778 33.5202C35.4841 33.5215 35.4904 33.5227 35.5042 33.5265C35.5193 33.5312 35.5386 33.5351 35.5822 33.5587C35.6137 33.5831 35.7446 33.6315 35.7663 33.8626C35.7591 34.0973 35.6214 34.1586 35.5897 34.1831C35.5449 34.2087 35.5252 34.2129 35.5098 34.218C35.4202 34.2386 35.4703 34.2261 35.4564 34.2292C35.4528 34.2295 35.4636 34.2286 35.4663 34.2285C35.4755 34.2279 35.4894 34.2271 35.507 34.2262C50.3683 34.3822 66.5189 36.9806 80.3158 29.4355C81.2884 28.9574 82.2149 28.4707 83.1683 27.9391C84.5745 27.2075 85.9958 25.7231 85.8513 23.9218C85.7934 22.7072 85.3126 21.6324 84.8138 20.6268C84.3703 19.7473 83.8746 18.9041 83.3811 18.0695C83.0971 17.5882 82.8094 17.107 82.5475 16.6259C82.4178 16.3863 82.2917 16.1421 82.1917 15.9047C82.1419 15.7856 82.0991 15.6686 82.0737 15.5636C82.0424 15.4637 82.0653 15.356 82.0468 15.4169C81.9295 15.5165 82.053 15.4283 82.2128 15.4744C82.3711 15.5025 82.5494 15.5565 82.7254 15.6161C83.0798 15.7371 83.4402 15.8837 83.803 16.0301C84.8177 16.4422 85.8534 16.861 86.9439 17.1493C93.6852 19.0979 100.278 21.8892 107.11 23.847C110.531 24.8247 114.005 25.7096 117.606 25.9024C119.396 25.973 121.287 25.8902 122.984 25.0722C124.746 24.2866 125.791 22.3215 125.845 20.4961C125.858 20.2918 125.865 20.0813 125.864 19.8646C125.712 17.516 124.361 15.7282 123.227 13.9481C122.634 13.0628 122.018 12.2035 121.447 11.3248C121.166 10.8877 120.887 10.4394 120.697 10.0018C120.6 9.78554 120.54 9.53228 120.566 9.45427C120.579 9.42292 120.556 9.44519 120.603 9.41844C120.65 9.39817 120.738 9.383 120.855 9.38366C121.09 9.3844 121.342 9.417 121.591 9.4661C125.901 10.6882 130.3 13.2975 135.196 12.8006C135.462 12.7764 135.728 12.7473 135.994 12.7135C149.205 10.0112 160.638 2.31808 174.037 1.29627C174.196 1.27753 174.355 1.25931 174.513 1.24159C183.092 0.274623 191.761 0.809635 200.375 1.55268C205.604 1.98904 210.844 2.51979 216.123 2.55535C216.238 2.5559 216.354 2.55618 216.469 2.55618C216.541 2.55618 216.606 2.55618 216.674 2.55618C216.68 2.55618 216.694 2.55618 216.698 2.55618C216.7 2.55618 216.701 2.55618 216.701 2.55618C216.702 2.55618 216.702 2.55618 216.702 2.55618C216.702 2.55618 216.702 2.55618 216.702 2.55618C216.702 2.55618 216.702 2.55618 216.702 2.55618C216.702 2.55618 216.702 2.55618 216.702 2.55618C216.702 2.95549 216.702 1.43813 216.702 1.83743C216.702 1.83743 216.702 1.83743 216.702 1.83743C216.702 1.83743 216.702 1.83743 216.702 1.83743C216.702 1.83743 216.702 1.83743 216.702 1.83743C216.702 1.83743 216.702 1.83743 216.702 1.83743C216.702 1.83743 216.702 1.83743 216.702 1.83743C216.702 1.83743 216.702 1.83743 216.702 1.83743C216.702 1.83743 216.702 1.83743 216.702 1.83743C216.702 1.83743 216.702 1.83743 216.702 1.83743C216.702 1.83743 216.701 1.83743 216.701 1.83743C216.701 1.83743 216.7 1.83743 216.699 1.83743C216.698 1.83743 216.695 1.83743 216.692 1.83743C216.688 1.83743 216.685 1.83743 216.68 1.83743C216.661 1.83743 216.647 1.83743 216.629 1.83743C216.595 1.83743 216.562 1.83743 216.527 1.83743C216.393 1.83743 216.255 1.83743 216.119 1.83743C215.848 1.83743 215.576 1.83743 215.304 1.83743C214.762 1.83743 214.218 1.83743 213.675 1.83743Z" fill="black"/>
<path d="M271.119 24.3987C271.078 24.4797 271.072 24.5736 271.1 24.6596C271.129 24.7456 271.191 24.8167 271.272 24.8572C271.353 24.8978 271.447 24.9044 271.533 24.8758C271.619 24.8471 271.69 24.7854 271.73 24.7044C271.73 24.7044 271.73 24.7044 271.73 24.7044C272.278 23.6018 273.202 22.7098 274.267 22.0476C276.355 20.7638 278.852 20.2189 281.321 19.9304C281.332 19.9291 281.343 19.9278 281.354 19.9266C289.677 19.4366 296.351 26.0731 301.863 31.8699C301.863 31.8701 301.863 31.8702 301.863 31.8703L301.818 31.8075C307.271 41.3587 310.615 52.0224 311.744 62.9616C311.746 62.9849 311.749 63.0082 311.752 63.0314L311.751 63.0209C311.889 64.5961 311.949 66.1833 312.218 67.7852C312.449 69.0679 312.847 70.5409 314.075 71.4037C314.149 71.4557 314.241 71.4761 314.33 71.4603C314.419 71.4446 314.499 71.394 314.551 71.3197C314.603 71.2455 314.623 71.1536 314.607 71.0643C314.592 70.9751 314.541 70.8957 314.467 70.8437C313.499 70.1772 313.108 68.905 312.892 67.6677C312.633 66.1383 312.571 64.5499 312.432 62.9634L312.431 62.9529C312.428 62.9296 312.425 62.9062 312.423 62.8828C311.29 51.8821 307.908 41.09 302.413 31.472L302.368 31.4092C302.368 31.4091 302.368 31.409 302.367 31.4088C296.784 25.5829 290.147 18.7748 281.278 19.2472C281.267 19.2485 281.255 19.2498 281.244 19.2511C278.719 19.5491 276.145 20.0947 273.905 21.4679C272.764 22.1771 271.735 23.158 271.119 24.3987Z" fill="black"/>
<path d="M301.231 101.297C301.328 101.297 301.421 101.258 301.49 101.19C301.559 101.121 301.598 101.027 301.598 100.93C301.598 100.833 301.559 100.739 301.49 100.67C301.421 100.601 301.328 100.563 301.231 100.563C301.231 100.563 301.231 100.563 301.231 100.563C300.182 100.552 299.024 100.605 298.325 100.108C298.02 99.8827 297.886 99.5187 297.881 99.0801C297.881 99.0782 297.881 99.0762 297.881 99.0743C298.071 85.0234 313.511 77.7728 325.762 75.214L325.642 75.2086C325.778 75.2376 325.916 75.2715 326.052 75.309C328.967 76.1836 331.44 78.3922 333.182 80.9136C333.222 80.9725 333.261 81.0315 333.299 81.0906C334.407 82.7776 335.101 84.7074 335.589 86.6905C335.845 87.7224 336.055 88.7709 336.265 89.8246C336.285 89.9201 336.341 90.0041 336.422 90.0581C336.503 90.1121 336.602 90.1317 336.698 90.1126C336.793 90.0935 336.877 90.0373 336.931 89.9563C336.985 89.8752 337.005 89.7761 336.986 89.6806C336.986 89.6806 336.986 89.6806 336.986 89.6806C336.775 88.6269 336.563 87.5675 336.301 86.5134C335.803 84.489 335.082 82.4669 333.915 80.6894C333.874 80.6271 333.833 80.565 333.791 80.5029C331.95 77.8561 329.433 75.5686 326.247 74.6012C326.098 74.56 325.946 74.5225 325.795 74.4903L325.674 74.4849C313.161 77.1308 297.46 84.3137 297.147 99.0852C297.147 99.0872 297.147 99.0892 297.147 99.0912C297.142 99.6441 297.363 100.321 297.88 100.693C299.006 101.434 300.167 101.26 301.231 101.297Z" fill="black"/>
<path d="M336.984 89.7669C336.987 89.6719 336.953 89.5793 336.889 89.5095C336.824 89.4396 336.735 89.3983 336.64 89.3945C336.545 89.3907 336.452 89.4247 336.382 89.4892C336.313 89.5537 336.271 89.6433 336.267 89.7382C336.267 89.7382 336.267 89.7382 336.267 89.7382C336.22 90.9278 336.172 92.0661 336.119 93.2485C334.816 109.173 336.136 126.864 328.69 140.669L328.751 140.635C328.734 140.642 328.716 140.65 328.699 140.657C326.569 141.577 324.118 141.517 321.845 140.952C321.835 140.949 321.825 140.947 321.815 140.944C319.585 140.462 317.708 139.092 316.377 137.245C315.695 136.329 315.114 135.332 314.589 134.3C314.547 134.216 314.472 134.152 314.382 134.122C314.292 134.093 314.194 134.1 314.109 134.143C314.024 134.186 313.96 134.261 313.931 134.351C313.902 134.441 313.909 134.539 313.952 134.624C313.952 134.624 313.952 134.624 313.952 134.624C314.49 135.682 315.089 136.711 315.803 137.672C317.178 139.602 319.294 141.143 321.643 141.638C321.653 141.641 321.664 141.643 321.674 141.646C324.041 142.235 326.66 142.317 328.981 141.316C329 141.308 329.019 141.3 329.038 141.292L329.099 141.258C337.163 126.528 335.437 109.343 336.835 93.2805C336.888 92.0969 336.936 90.9575 336.984 89.7669Z" fill="black"/>
<path d="M228.47 52.8089C228.553 52.8375 228.645 52.8318 228.724 52.7932C228.803 52.7545 228.863 52.686 228.892 52.6027C228.921 52.5194 228.915 52.4282 228.876 52.3491C228.838 52.2699 228.769 52.2094 228.686 52.1808C228.686 52.1808 228.686 52.1808 228.686 52.1808C226.646 51.6971 224.879 52.4777 223.126 52.9994C215.284 55.8085 207.777 59.3977 199.697 61.1684L199.756 61.1608C199.653 61.1646 199.549 61.1684 199.446 61.1723C177.426 61.9542 155.425 63.3472 133.408 63.0328C133.4 63.0324 133.383 63.0317 133.367 63.0311C130.884 62.9309 128.408 62.7951 125.954 62.504C124.149 62.2952 122.378 61.9462 120.611 61.4872C120.525 61.4658 120.435 61.4793 120.359 61.5246C120.284 61.5699 120.23 61.6433 120.208 61.7288C120.187 61.8142 120.2 61.9046 120.246 61.9801C120.291 62.0556 120.364 62.1101 120.45 62.1314C120.45 62.1314 120.45 62.1314 120.45 62.1314C122.22 62.5918 124.051 62.953 125.875 63.1633C128.361 63.4581 130.849 63.5939 133.341 63.6947C133.357 63.6953 133.374 63.6959 133.39 63.6966C155.452 64.0114 177.458 62.6173 199.471 61.8359C199.574 61.832 199.677 61.8282 199.781 61.8244L199.84 61.8168C208.006 60.0263 215.575 56.4073 223.338 53.6289C225.029 53.099 226.903 52.4095 228.47 52.8089Z" fill="black"/>
<path d="M239.962 7.51119C239.89 7.45622 239.798 7.4324 239.708 7.44496C239.617 7.45752 239.536 7.50544 239.481 7.57818C239.426 7.65091 239.402 7.7425 239.415 7.8328C239.427 7.9231 239.475 8.00471 239.548 8.05968C239.548 8.05968 239.548 8.05968 239.548 8.05968C240.436 8.71214 241.339 9.30436 242.227 9.93033C249.023 14.7028 255.603 20.4168 258.991 28.0595L258.974 27.8338C258.968 27.8566 258.962 27.8793 258.956 27.902C256.663 36.315 251.672 44.224 244.349 49.0278C244.324 49.0435 244.3 49.0592 244.275 49.0748L244.34 49.0428C242.289 49.7792 239.862 50.1992 237.982 49.2062C237.106 48.7284 236.545 47.8445 236.367 46.842C236.35 46.7524 236.298 46.6733 236.223 46.622C236.147 46.5707 236.055 46.5514 235.965 46.5684C235.876 46.5854 235.797 46.6373 235.745 46.7127C235.694 46.7881 235.675 46.8807 235.692 46.9703C235.692 46.9703 235.692 46.9703 235.692 46.9703C235.886 48.1119 236.589 49.2384 237.644 49.805C239.895 50.9636 242.413 50.4467 244.578 49.6874L244.643 49.6554C244.668 49.6394 244.694 49.6233 244.719 49.6071C252.233 44.6728 257.283 36.6376 259.619 28.082C259.626 28.059 259.632 28.0359 259.638 28.0127L259.669 27.8971L259.622 27.7871C256.134 19.9349 249.461 14.1766 242.621 9.36699C241.732 8.74082 240.808 8.13255 239.962 7.51119Z" fill="black"/>
<path d="M282.448 75.1569C282.53 75.1977 282.624 75.2044 282.71 75.1756C282.797 75.1468 282.868 75.0848 282.909 75.0032C282.95 74.9217 282.957 74.8273 282.928 74.7408C282.899 74.6543 282.837 74.5828 282.756 74.542C282.756 74.542 282.756 74.542 282.756 74.542C282.071 74.1994 281.399 73.8171 280.741 73.4145C277.716 71.5492 274.93 69.2874 272.31 66.8664L272.362 66.927C272.362 66.9269 272.362 66.9268 272.362 66.9267C269.292 62.4402 267.388 57.072 267.725 51.6274C267.725 51.6274 267.725 51.6273 267.725 51.6273L267.714 51.6986C269.03 47.0016 272.319 43.1015 275.637 39.509C276.168 38.9439 276.705 38.3887 277.257 37.8341C277.321 37.7694 277.357 37.6819 277.357 37.5907C277.357 37.4995 277.32 37.4122 277.255 37.3479C277.191 37.2836 277.103 37.2477 277.012 37.248C276.921 37.2482 276.834 37.2847 276.769 37.3494C276.769 37.3494 276.769 37.3494 276.769 37.3494C276.214 37.9082 275.671 38.4679 275.136 39.0382C271.79 42.6692 268.438 46.5986 267.05 51.5212L267.039 51.5925C267.039 51.5925 267.039 51.5925 267.039 51.5925C266.688 57.1965 268.666 62.7487 271.791 67.3097C271.791 67.3098 271.791 67.3098 271.791 67.3099L271.843 67.3705C274.488 69.8149 277.299 72.0997 280.382 74.0009C281.053 74.4115 281.741 74.8028 282.448 75.1569Z" fill="black"/>
<path d="M102.067 124.822C101.98 124.778 101.88 124.77 101.788 124.8C101.696 124.83 101.62 124.896 101.576 124.982C101.532 125.069 101.524 125.169 101.554 125.261C101.584 125.353 101.65 125.429 101.736 125.473C101.736 125.473 101.736 125.473 101.736 125.473C103.321 126.111 104.85 125.995 106.365 126.021C114.051 125.82 121.611 124.784 129.206 123.964C129.227 123.962 129.249 123.959 129.271 123.957C133.547 123.55 138.051 123.478 142.072 124.854C142.093 124.863 142.114 124.871 142.135 124.879C144.139 125.533 145.865 127.844 144.468 129.553L144.626 129.436C144.603 129.445 144.58 129.454 144.556 129.463C134.926 133.076 124.704 135.904 114.409 135.346L114.442 135.35C114.422 135.346 114.402 135.343 114.382 135.34C112.036 135.062 109.707 133.892 109.518 131.455C109.308 130.033 109.475 128.541 109.728 127.076C109.746 126.976 109.723 126.874 109.665 126.791C109.607 126.709 109.518 126.652 109.418 126.635C109.319 126.618 109.216 126.641 109.133 126.699C109.051 126.757 108.995 126.846 108.978 126.945C108.978 126.945 108.978 126.945 108.978 126.945C108.727 128.455 108.55 129.998 108.785 131.569C108.96 132.813 109.586 134.129 110.704 134.86C111.801 135.599 113.062 135.853 114.262 136.06C114.283 136.064 114.303 136.067 114.324 136.071L114.357 136.074C124.857 136.638 135.12 133.778 144.818 130.145C144.842 130.136 144.865 130.127 144.888 130.118L144.983 130.081L145.046 130.001C145.865 129.002 145.896 127.462 145.223 126.402C144.572 125.318 143.494 124.637 142.405 124.201C142.383 124.192 142.36 124.183 142.338 124.174C138.052 122.717 133.565 122.824 129.19 123.231C129.168 123.233 129.146 123.236 129.124 123.238C121.536 124.058 113.951 125.093 106.359 125.29C104.901 125.282 103.271 125.322 102.067 124.822Z" fill="black"/>
<path d="M202.872 121.422C202.872 121.322 202.833 121.227 202.763 121.157C202.692 121.086 202.597 121.047 202.497 121.047C202.398 121.047 202.303 121.086 202.232 121.157C202.162 121.227 202.122 121.322 202.122 121.422C202.168 121.854 202.423 121.913 202.533 121.992C202.66 122.06 202.796 122.107 202.908 122.143C203.035 122.182 203.148 122.211 203.262 122.237C203.378 122.264 203.506 122.29 203.61 122.31C204.088 122.398 204.517 122.452 204.978 122.503C205.887 122.603 206.781 122.668 207.689 122.725C218.283 123.27 228.872 123.33 239.448 123.646C239.497 123.647 239.547 123.649 239.596 123.65C241.479 123.714 243.465 123.955 244.921 125.012C246.437 126.049 246.504 128.174 245.692 129.803C245.675 129.839 245.658 129.874 245.641 129.91C240.306 139.735 227.246 137.06 217.369 139.058C217.239 139.082 217.109 139.102 216.978 139.118C214.784 139.377 212.565 138.402 210.839 136.985C210.761 136.921 210.684 136.855 210.609 136.788C208.919 135.279 207.865 133.034 207.846 130.771C207.846 130.705 207.846 130.639 207.848 130.574C207.833 128.247 209.604 126.384 211.391 124.868C212.756 123.722 214.228 122.71 215.74 121.737C215.824 121.684 215.883 121.599 215.904 121.502C215.925 121.405 215.907 121.303 215.853 121.219C215.8 121.136 215.715 121.077 215.618 121.055C215.521 121.034 215.419 121.052 215.335 121.106C215.335 121.106 215.335 121.106 215.335 121.106C213.807 122.089 212.314 123.114 210.908 124.294C209.092 125.839 207.098 127.868 207.098 130.558C207.096 130.631 207.096 130.704 207.096 130.776C207.122 133.272 208.26 135.691 210.11 137.348C210.193 137.422 210.277 137.494 210.363 137.565C212.201 139.068 214.584 140.149 217.066 139.863C217.214 139.845 217.361 139.823 217.507 139.795C227.164 137.753 240.473 140.725 246.314 130.24C246.333 130.201 246.352 130.161 246.371 130.121C247.285 128.366 247.229 125.665 245.372 124.413C243.647 123.178 241.569 122.977 239.616 122.9C239.567 122.899 239.517 122.898 239.468 122.896C228.893 122.58 218.282 122.519 207.736 121.977C206.835 121.92 205.948 121.855 205.06 121.758C204.611 121.707 204.193 121.655 203.748 121.572C203.543 121.534 203.336 121.49 203.132 121.427C203.044 121.4 202.944 121.362 202.885 121.33C202.81 121.308 202.834 121.223 202.872 121.422Z" fill="black"/>
<path d="M167.17 144.053C167.243 144.035 167.306 143.989 167.345 143.924C167.384 143.86 167.396 143.783 167.379 143.709C167.361 143.636 167.315 143.573 167.25 143.534C167.186 143.494 167.109 143.482 167.036 143.5C167.036 143.5 167.036 143.5 167.036 143.5C166.224 143.747 165.682 144.228 165.105 144.691C159.625 149.803 155.399 156.281 153.469 163.55L153.446 163.649L153.49 163.74C153.5 163.761 153.51 163.782 153.521 163.802C154.812 166.111 157.3 167.054 159.512 167.938C159.53 167.945 159.548 167.952 159.566 167.959C162.479 169.089 165.59 169.543 168.648 169.91C169.364 169.994 170.081 170.072 170.799 170.144C170.876 170.152 170.952 170.129 171.011 170.081C171.071 170.032 171.108 169.962 171.116 169.886C171.124 169.81 171.101 169.733 171.052 169.674C171.004 169.615 170.934 169.577 170.858 169.569C170.858 169.569 170.858 169.569 170.858 169.569C170.142 169.497 169.428 169.42 168.716 169.336C165.667 168.97 162.617 168.523 159.769 167.418C159.751 167.411 159.734 167.404 159.716 167.397C157.536 166.543 155.13 165.561 154.028 163.546C154.019 163.528 154.01 163.51 154.001 163.492L154.022 163.682C155.892 156.592 160.124 150.104 165.471 145.126C166.007 144.684 166.597 144.219 167.17 144.053Z" fill="black"/>
<path d="M114.942 324.168C114.86 324.168 114.781 324.2 114.723 324.258C114.666 324.316 114.633 324.395 114.633 324.477C114.633 324.558 114.666 324.637 114.723 324.695C114.781 324.753 114.86 324.785 114.942 324.785C114.895 324.793 114.787 324.735 114.765 324.686C114.746 324.654 114.748 324.643 114.749 324.65C114.751 324.677 114.75 324.709 114.744 324.764C114.725 324.895 114.706 324.97 114.669 325.11C114.608 325.332 114.519 325.596 114.436 325.823C114.255 326.316 114.066 326.776 113.856 327.27C113.449 328.225 113.021 329.16 112.576 330.114C106.84 342.111 100.617 353.917 94.5665 365.776C94.5166 365.873 94.4678 365.969 94.42 366.064C93.6653 367.598 92.8887 369.177 92.5785 370.948C92.5137 371.392 92.4807 371.866 92.6076 372.35C92.7201 372.841 93.1333 373.315 93.6131 373.483C94.5732 373.819 95.4654 373.631 96.3151 373.54L96.2956 373.542C96.495 373.529 96.6948 373.519 96.8939 373.512C104.167 373.213 110.563 377.604 116.535 381.49L116.526 381.484C116.631 381.56 116.737 381.638 116.844 381.716C127.421 389.535 137.915 397.486 148.723 405.005C150.437 406.201 152.157 407.389 153.885 408.566C153.954 408.613 154.039 408.631 154.121 408.615C154.203 408.6 154.275 408.553 154.322 408.484C154.369 408.415 154.387 408.33 154.371 408.248C154.356 408.166 154.308 408.094 154.239 408.047C154.239 408.047 154.239 408.047 154.239 408.047C152.514 406.87 150.795 405.684 149.083 404.489C138.285 396.977 127.804 389.037 117.216 381.208C117.108 381.13 117.002 381.052 116.897 380.975L116.887 380.969C110.889 377.077 104.441 372.593 96.8707 372.883C96.6656 372.891 96.4602 372.902 96.2555 372.915L96.236 372.916C95.3999 373.017 94.5208 373.15 93.8432 372.901C93.163 372.676 93.0654 371.834 93.1941 371.041C93.4692 369.431 94.2269 367.847 94.9711 366.342C95.0183 366.248 95.0664 366.153 95.1157 366.057C101.167 354.196 107.385 342.402 113.135 330.375C113.582 329.418 114.012 328.478 114.424 327.512C114.637 327.011 114.829 326.546 115.016 326.035C115.102 325.798 115.196 325.523 115.264 325.272C115.306 325.112 115.329 325.033 115.356 324.841C115.365 324.747 115.375 324.722 115.36 324.567C115.351 324.503 115.336 324.437 115.29 324.361C115.23 324.249 115.065 324.16 114.942 324.168Z" fill="black"/>
<path d="M128.192 335.443C128.137 335.387 128.061 335.356 127.982 335.356C127.903 335.356 127.827 335.387 127.771 335.443C127.715 335.499 127.684 335.575 127.684 335.654C127.684 335.733 127.715 335.809 127.771 335.865C127.771 335.865 127.771 335.865 127.771 335.865C129.109 337.202 130.475 338.542 131.839 339.876C142.213 350.074 152.902 359.969 162.876 370.536C163.049 370.732 163.282 371.005 163.432 371.196C173.52 384.893 161.602 400.777 158.127 415.373L158.237 415.188C158.187 415.227 158.136 415.261 158.081 415.292C156.302 415.952 154.31 414.072 153.089 412.504C153.054 412.457 153.019 412.41 152.984 412.363C152.089 411.143 151.424 409.75 151.002 408.293C150.485 406.503 150.342 404.602 150.632 402.764C150.644 402.686 150.625 402.606 150.578 402.542C150.531 402.478 150.461 402.435 150.383 402.423C150.305 402.41 150.225 402.43 150.161 402.477C150.097 402.523 150.054 402.593 150.041 402.672C150.041 402.672 150.041 402.672 150.041 402.672C149.737 404.601 149.887 406.59 150.428 408.459C150.869 409.981 151.562 411.434 152.503 412.717C152.539 412.767 152.576 412.816 152.613 412.865C153.963 414.471 155.764 416.648 158.371 415.814C158.454 415.768 158.532 415.716 158.606 415.658L158.697 415.586L158.716 415.473C162.055 401.158 174.291 385.053 163.899 370.827C163.739 370.624 163.5 370.343 163.324 370.143C153.293 359.515 142.632 349.652 132.255 339.451C130.892 338.117 129.528 336.778 128.192 335.443Z" fill="black"/>
<path d="M232.062 361.896C232.104 361.96 232.171 362.005 232.247 362.02C232.322 362.035 232.401 362.019 232.465 361.976C232.529 361.934 232.574 361.867 232.589 361.791C232.604 361.716 232.589 361.637 232.546 361.573C232.546 361.573 232.546 361.573 232.546 361.573C232.329 361.248 232.111 360.92 231.886 360.597C231.772 360.433 231.657 360.272 231.531 360.11C231.471 360.032 231.402 359.946 231.328 359.867C231.285 359.821 231.248 359.782 231.185 359.732C231.155 359.711 231.119 359.677 231.025 359.647C230.966 359.633 230.891 359.615 230.776 359.67C230.666 359.727 230.629 359.819 230.615 359.856C230.834 361.585 231.492 362.575 231.982 363.887C231.993 363.915 232.005 363.943 232.017 363.971C235.825 372.74 239.723 381.517 244.95 389.597C244.977 389.636 245.003 389.674 245.03 389.713C246.757 392.056 249.019 395.381 252.565 394.578C253.37 394.379 254.09 394.011 254.789 393.664C254.858 393.629 254.91 393.569 254.934 393.496C254.959 393.422 254.953 393.342 254.919 393.273C254.884 393.204 254.824 393.152 254.75 393.127C254.677 393.103 254.597 393.109 254.528 393.143C254.528 393.143 254.528 393.143 254.528 393.143C253.831 393.492 253.143 393.836 252.427 394.012C249.436 394.762 247.202 391.729 245.509 389.382C245.482 389.344 245.456 389.306 245.43 389.267C240.262 381.283 236.346 372.483 232.553 363.745C232.542 363.718 232.53 363.69 232.519 363.662C232.026 362.474 231.392 360.974 231.162 360.055C231.155 360.073 231.131 360.139 231.043 360.187C230.952 360.23 230.896 360.214 230.864 360.206C230.815 360.189 230.826 360.188 230.83 360.193C230.845 360.204 230.872 360.23 230.902 360.262C230.955 360.32 231.017 360.396 231.072 360.467C231.186 360.614 231.298 360.771 231.408 360.929C231.628 361.245 231.845 361.571 232.062 361.896Z" fill="black"/>
<path d="M241.427 359.652C241.369 359.703 241.333 359.774 241.328 359.851C241.322 359.928 241.348 360.004 241.399 360.063C241.449 360.121 241.521 360.156 241.598 360.162C241.675 360.167 241.751 360.142 241.809 360.091C241.809 360.091 241.809 360.091 241.809 360.091C243.58 358.548 245.402 356.964 247.2 355.407C270.167 336.093 292.232 315.033 317.984 299.756C318.114 299.707 318.239 299.662 318.359 299.622C319.77 299.15 320.994 298.344 322.276 297.799C322.91 297.534 323.59 297.332 324.173 297.495C324.756 297.65 325.176 298.194 325.465 298.809C325.485 298.853 325.506 298.898 325.526 298.943C327.418 305.013 326.936 311.721 327.328 318.165C327.329 318.197 327.331 318.228 327.332 318.26C327.493 321.492 327.655 324.806 328.772 327.932C329.583 330.227 330.993 332.282 332.692 333.995C332.746 334.05 332.82 334.081 332.897 334.082C332.974 334.083 333.049 334.053 333.104 333.998C333.159 333.944 333.19 333.871 333.191 333.793C333.191 333.716 333.161 333.642 333.107 333.587C333.107 333.587 333.107 333.587 333.107 333.587C331.45 331.915 330.102 329.945 329.32 327.735C328.242 324.725 328.073 321.456 327.913 318.233C327.912 318.202 327.911 318.171 327.909 318.139C327.505 311.678 328.044 305.1 326.059 298.709C326.036 298.659 326.014 298.609 325.991 298.56C325.673 297.888 325.166 297.164 324.329 296.934C323.501 296.715 322.726 296.988 322.051 297.262C320.695 297.843 319.493 298.632 318.175 299.07C318.046 299.113 317.914 299.16 317.777 299.212C291.726 314.653 269.832 335.627 246.819 354.967C245.021 356.525 243.198 358.109 241.427 359.652Z" fill="black"/>
<path d="M256.724 413.692C256.67 413.638 256.597 413.608 256.521 413.608C256.445 413.608 256.372 413.638 256.318 413.692C256.264 413.746 256.234 413.819 256.234 413.895C256.234 413.971 256.264 414.044 256.318 414.098C256.318 414.098 256.318 414.098 256.318 414.098C256.439 414.234 256.676 414.243 256.758 414.219C256.85 414.201 256.934 414.166 257.02 414.122C257.165 414.044 257.257 413.977 257.389 413.875C257.506 413.782 257.587 413.712 257.695 413.615C257.801 413.518 257.904 413.419 257.989 413.335C258.376 412.953 258.72 412.572 259.072 412.171C259.782 411.358 260.411 410.582 261.077 409.744C274.785 391.712 287.275 372.791 300.043 354.09C300.101 354.009 300.161 353.923 300.222 353.838C306.537 344.996 312.935 336.158 320.612 328.48C320.636 328.456 320.66 328.432 320.683 328.408C323.444 325.639 326.373 323.012 329.032 320.11C330.456 318.568 331.81 316.976 333.123 315.342C333.171 315.283 333.193 315.207 333.185 315.131C333.177 315.055 333.139 314.986 333.079 314.938C333.02 314.891 332.944 314.868 332.869 314.877C332.793 314.885 332.724 314.923 332.676 314.982C332.676 314.982 332.676 314.982 332.676 314.982C331.369 316.608 330.024 318.19 328.61 319.72C325.972 322.6 323.053 325.218 320.277 328.003C320.253 328.026 320.23 328.05 320.206 328.074C312.483 335.799 306.075 344.655 299.753 353.506C299.692 353.591 299.632 353.677 299.571 353.763C286.805 372.462 274.3 391.402 260.627 409.387C259.965 410.221 259.339 410.992 258.64 411.793C258.294 412.187 257.955 412.561 257.586 412.926C257.505 413.006 257.408 413.1 257.309 413.189C257.209 413.279 257.136 413.343 257.034 413.423C256.922 413.51 256.844 413.564 256.753 413.613C256.651 413.681 256.594 413.616 256.724 413.692Z" fill="black"/>
<path d="M174.594 391.251C174.517 391.24 174.439 391.261 174.377 391.307C174.316 391.354 174.275 391.424 174.264 391.501C174.254 391.577 174.274 391.655 174.321 391.717C174.368 391.779 174.437 391.82 174.514 391.83C174.514 391.83 174.514 391.83 174.514 391.83C176.026 392.096 177.478 393.002 178.849 393.874C185.659 398.532 191.613 404.411 197.18 410.514C197.219 410.557 197.258 410.6 197.296 410.644C198.493 422.352 190.793 434.225 188.27 446.3C188.256 446.353 188.243 446.405 188.229 446.458C187.787 448.225 187.492 450.095 187.892 451.95C188.243 453.829 189.763 455.387 191.482 456.06C191.537 456.084 191.591 456.107 191.646 456.129C193.946 457.063 196.396 457.065 198.664 457.641C198.707 457.651 198.749 457.662 198.791 457.673C201.379 458.308 203.652 459.858 205.841 461.419C207.173 462.382 208.473 463.391 209.766 464.422C209.827 464.471 209.905 464.493 209.982 464.484C210.059 464.476 210.13 464.437 210.178 464.376C210.226 464.315 210.249 464.238 210.24 464.16C210.231 464.083 210.192 464.013 210.132 463.964C210.132 463.964 210.132 463.964 210.132 463.964C208.833 462.929 207.528 461.915 206.184 460.944C203.979 459.374 201.655 457.776 198.936 457.105C198.892 457.094 198.848 457.083 198.804 457.072C196.453 456.483 194.017 456.468 191.869 455.588C191.818 455.567 191.767 455.545 191.717 455.523C188.1 454.31 187.819 449.901 188.797 446.603C188.81 446.552 188.823 446.501 188.837 446.449C191.298 434.259 199.201 423.105 197.732 410.254C197.694 410.211 197.655 410.167 197.616 410.124C192.015 403.987 186.071 398.108 179.168 393.384C177.758 392.496 176.335 391.567 174.594 391.251Z" fill="black"/>
<path d="M243.188 387.815C243.188 387.893 243.219 387.967 243.274 388.022C243.329 388.077 243.403 388.108 243.481 388.108C243.559 388.108 243.633 388.077 243.688 388.022C243.743 387.967 243.774 387.893 243.774 387.815C243.774 387.815 243.774 387.815 243.774 387.815C243.759 387.235 243.831 386.602 243.467 385.95C243.037 385.244 242.165 385.263 241.591 385.355C241.574 385.358 241.556 385.361 241.538 385.364C240.813 385.485 240.133 385.739 239.495 386.062C230.814 391.865 226.863 401.827 222.755 410.887C222.754 410.889 222.753 410.891 222.753 410.893C221.213 414.257 220.363 418.791 222.942 421.959C222.972 422.004 223.003 422.049 223.034 422.093C225.602 425.663 229.017 428.417 231.575 431.841C231.62 431.902 231.664 431.964 231.708 432.025L231.653 431.861C231.744 447.151 226.61 461.843 222.837 476.613C222.795 476.781 222.752 476.948 222.711 477.115L222.707 477.129C222.695 477.191 222.683 477.253 222.67 477.315C222.487 478.236 222.3 479.158 222.144 480.094C222.07 480.569 221.986 481.021 221.984 481.548C221.986 481.62 221.988 481.688 222.007 481.78C222.02 481.827 222.026 481.878 222.085 481.969C222.119 482.015 222.161 482.065 222.255 482.104C222.346 482.139 222.434 482.128 222.487 482.112C222.691 482.031 222.701 481.97 222.767 481.906C222.81 481.855 222.856 481.789 222.888 481.741C223.032 481.523 223.141 481.314 223.254 481.094C223.29 481.023 223.296 480.942 223.271 480.867C223.247 480.792 223.194 480.73 223.124 480.695C223.053 480.659 222.972 480.653 222.897 480.677C222.822 480.701 222.76 480.755 222.724 480.825C222.618 481.034 222.51 481.236 222.395 481.411C222.369 481.449 222.334 481.497 222.312 481.524C222.292 481.557 222.229 481.582 222.32 481.542C222.362 481.504 222.572 481.586 222.573 481.63C222.597 481.67 222.588 481.663 222.588 481.654C222.583 481.632 222.578 481.585 222.577 481.535C222.578 481.123 222.657 480.647 222.73 480.19C222.883 479.272 223.069 478.352 223.252 477.431C223.265 477.369 223.277 477.307 223.29 477.245L223.286 477.259C223.328 477.094 223.37 476.927 223.413 476.759C227.174 462.013 232.333 447.309 232.247 431.846L232.244 431.756L232.192 431.682C232.147 431.618 232.101 431.555 232.055 431.491C229.426 427.981 226.008 425.22 223.522 421.755C223.492 421.712 223.463 421.669 223.434 421.626C220.995 418.589 221.786 414.506 223.3 411.123C223.301 411.121 223.302 411.119 223.303 411.117C227.355 402.115 231.444 392.118 239.76 386.584C240.357 386.282 240.984 386.05 241.634 385.942C241.65 385.939 241.666 385.937 241.682 385.934C242.219 385.846 242.764 385.889 242.969 386.258C243.197 386.638 243.186 387.242 243.188 387.815Z" fill="black"/>
<path d="M223.489 124.64C223.586 124.64 223.68 124.601 223.749 124.532C223.818 124.464 223.856 124.37 223.856 124.273C223.856 124.175 223.818 124.082 223.749 124.013C223.68 123.944 223.586 123.906 223.489 123.906C223.489 123.906 223.489 123.906 223.489 123.906C223.247 123.905 222.973 123.908 222.699 123.957C222.696 123.957 222.693 123.958 222.689 123.959C222.481 123.996 222.282 124.072 222.105 124.173C219.919 126.061 219.886 128.701 219.836 131.198C219.842 131.257 219.851 131.316 219.861 131.374C220.127 132.649 220.87 133.625 221.67 134.505C221.703 134.54 221.737 134.574 221.772 134.607C223.007 135.632 224.434 135.815 225.747 136.206C225.779 136.215 225.811 136.223 225.844 136.232C226.991 136.521 228.149 136.47 229.263 136.361L229.303 136.355C229.323 136.351 229.343 136.346 229.363 136.341C230.679 135.969 231.749 135.284 232.763 134.48C232.893 134.373 233.021 134.263 233.146 134.149L233.188 134.104C233.19 134.101 233.191 134.099 233.193 134.097C233.348 133.898 233.498 133.698 233.647 133.499C233.705 133.422 233.731 133.324 233.717 133.227C233.703 133.131 233.651 133.044 233.574 132.985C233.496 132.927 233.398 132.902 233.301 132.916C233.205 132.929 233.118 132.981 233.059 133.059C233.059 133.059 233.059 133.059 233.059 133.059C232.911 133.257 232.764 133.453 232.613 133.646C232.612 133.648 232.61 133.65 232.608 133.653L232.65 133.607C232.536 133.712 232.418 133.813 232.298 133.912C231.373 134.655 230.282 135.324 229.194 135.627C229.178 135.631 229.163 135.634 229.149 135.637L229.189 135.631C228.112 135.737 227.027 135.775 226.025 135.52C225.997 135.513 225.969 135.505 225.94 135.497C224.626 135.125 223.186 134.853 222.275 134.072C222.251 134.049 222.227 134.026 222.205 134.002C221.465 133.2 220.782 132.243 220.585 131.246C220.577 131.202 220.57 131.157 220.565 131.113C220.552 128.956 220.879 126.088 222.469 124.811C222.581 124.747 222.698 124.703 222.819 124.681C222.821 124.681 222.824 124.681 222.826 124.68C223.031 124.643 223.246 124.639 223.489 124.64Z" fill="black"/>
<path d="M233.048 133.075C232.994 133.157 232.974 133.256 232.993 133.351C233.012 133.447 233.069 133.531 233.15 133.585C233.231 133.639 233.33 133.658 233.425 133.639C233.521 133.62 233.605 133.564 233.659 133.483C233.659 133.483 233.659 133.483 233.659 133.483C233.71 133.405 233.761 133.326 233.809 133.247C234.36 132.335 234.723 131.34 234.949 130.316C234.949 130.316 234.949 130.315 234.949 130.315C235.011 130.027 235.093 129.728 235.124 129.387C235.124 129.386 235.124 129.386 235.124 129.385C235.147 129.086 235.162 128.857 235.218 128.611C235.235 128.534 235.255 128.457 235.278 128.38C235.306 128.286 235.295 128.186 235.248 128.1C235.202 128.015 235.123 127.951 235.03 127.924C234.937 127.896 234.836 127.906 234.751 127.953C234.665 127.999 234.601 128.078 234.574 128.171C234.574 128.171 234.574 128.171 234.574 128.171C234.546 128.264 234.522 128.358 234.501 128.452C234.433 128.745 234.412 129.068 234.393 129.318C234.393 129.318 234.393 129.318 234.393 129.319C234.371 129.577 234.296 129.86 234.232 130.157C234.232 130.159 234.232 130.16 234.232 130.16C234.022 131.111 233.679 132.044 233.182 132.865C233.139 132.936 233.094 133.007 233.048 133.075Z" fill="black"/>
<path d="M234.559 128.276C234.559 128.373 234.597 128.466 234.666 128.535C234.735 128.604 234.828 128.643 234.926 128.643C235.023 128.643 235.117 128.604 235.185 128.535C235.254 128.466 235.293 128.373 235.293 128.276C235.293 128.276 235.293 128.276 235.293 128.276C235.293 128.142 235.289 128.007 235.284 127.875C235.227 126.997 235.169 126.119 234.696 125.232C234.695 125.231 234.694 125.229 234.693 125.228C234.249 124.482 233.635 123.699 232.688 123.377L232.586 123.358C232.584 123.358 232.583 123.358 232.582 123.358C232.083 123.337 231.58 123.302 231.109 123.221L231.086 123.217C231.086 123.217 231.085 123.217 231.085 123.217C230.969 123.204 230.856 123.198 230.747 123.195C230.611 123.191 230.479 123.191 230.351 123.191C230.254 123.191 230.16 123.229 230.091 123.298C230.023 123.367 229.984 123.461 229.984 123.558C229.984 123.655 230.023 123.749 230.091 123.818C230.16 123.886 230.254 123.925 230.351 123.925C230.479 123.925 230.604 123.925 230.725 123.929C230.821 123.932 230.915 123.937 231.003 123.947C231.003 123.947 231.004 123.947 231.004 123.947L230.981 123.944C231.515 124.035 232.032 124.069 232.551 124.092C232.553 124.092 232.554 124.092 232.555 124.092L232.453 124.073C233.13 124.297 233.657 124.916 234.061 125.602C234.062 125.604 234.063 125.605 234.064 125.606C234.406 126.226 234.507 127.1 234.55 127.907C234.555 128.03 234.559 128.155 234.559 128.276Z" fill="black"/>
<path d="M121.662 125.967C121.733 125.902 121.774 125.812 121.778 125.716C121.781 125.62 121.747 125.527 121.682 125.457C121.617 125.386 121.526 125.345 121.43 125.341C121.335 125.338 121.241 125.372 121.171 125.437C121.171 125.437 121.171 125.437 121.171 125.437C120.926 125.669 120.736 125.908 120.548 126.153C119.919 127.037 119.311 127.871 119.036 129.068C119.035 129.073 119.034 129.078 119.033 129.083C118.932 130.387 119.32 131.511 119.784 132.607C119.789 132.617 119.793 132.627 119.798 132.637C121.186 134.834 123.708 134.531 125.666 134.69L125.777 134.675C125.786 134.673 125.794 134.67 125.803 134.668C126.798 134.371 127.79 134.104 128.798 133.765C128.805 133.762 128.807 133.762 128.809 133.761C128.839 133.75 128.87 133.739 128.901 133.727C129.197 133.619 129.495 133.464 129.756 133.3C129.838 133.249 129.896 133.168 129.917 133.075C129.939 132.982 129.923 132.884 129.872 132.802C129.821 132.721 129.741 132.663 129.647 132.641C129.554 132.62 129.456 132.636 129.374 132.686C129.374 132.686 129.374 132.686 129.374 132.686C129.134 132.836 128.906 132.956 128.646 133.051C128.619 133.061 128.591 133.071 128.562 133.082C128.56 133.082 128.558 133.083 128.556 133.084C127.605 133.404 126.591 133.679 125.6 133.974C125.591 133.977 125.582 133.979 125.574 133.982L125.685 133.967C123.77 133.882 121.309 133.861 120.457 132.34C120.452 132.331 120.448 132.321 120.444 132.312C120.009 131.315 119.663 130.173 119.75 129.178C119.75 129.175 119.751 129.172 119.751 129.169C119.936 128.325 120.543 127.382 121.124 126.589C121.295 126.364 121.479 126.139 121.662 125.967Z" fill="black"/>
<path d="M129.357 132.698C129.279 132.753 129.226 132.837 129.209 132.931C129.193 133.026 129.215 133.123 129.27 133.201C129.325 133.28 129.409 133.333 129.503 133.349C129.598 133.366 129.695 133.344 129.773 133.289C129.773 133.289 129.773 133.289 129.773 133.289C129.945 133.168 130.111 133.039 130.271 132.902C131.342 131.997 132.06 130.694 132.324 129.334C132.325 129.332 132.325 129.33 132.326 129.328C132.635 128.172 132.142 126.819 131.55 125.957L131.472 125.862C131.467 125.858 131.463 125.854 131.459 125.85C130.733 125.199 129.75 124.949 128.894 124.804L128.855 124.8C128.853 124.8 128.851 124.799 128.848 124.799C128.563 124.781 128.291 124.778 128.019 124.776C127.818 124.775 127.619 124.775 127.421 124.775C127.327 124.775 127.236 124.813 127.17 124.879C127.103 124.946 127.066 125.036 127.066 125.13C127.066 125.225 127.103 125.315 127.17 125.382C127.236 125.448 127.327 125.486 127.421 125.486C127.619 125.486 127.817 125.486 128.014 125.487C128.28 125.49 128.548 125.493 128.801 125.51C128.803 125.51 128.805 125.51 128.807 125.51L128.768 125.505C129.618 125.652 130.397 125.869 130.987 126.397C130.991 126.4 130.995 126.403 130.998 126.406L130.92 126.311C131.541 127.269 131.855 128.155 131.617 129.186C131.617 129.188 131.616 129.19 131.616 129.191C131.375 130.417 130.747 131.551 129.8 132.354C129.659 132.475 129.511 132.59 129.357 132.698Z" fill="black"/>
<path d="M127.476 125.48C127.569 125.465 127.652 125.414 127.707 125.338C127.762 125.263 127.785 125.168 127.77 125.075C127.756 124.983 127.705 124.9 127.629 124.845C127.553 124.789 127.458 124.767 127.366 124.781C127.366 124.781 127.366 124.781 127.366 124.781C127.297 124.792 127.228 124.803 127.16 124.814C126.401 124.932 125.643 125.055 124.894 125.135C124.894 125.135 124.894 125.135 124.894 125.135C124.424 125.185 123.96 125.206 123.483 125.206C123.414 125.206 123.345 125.206 123.275 125.206C123.181 125.206 123.091 125.243 123.025 125.309C122.959 125.376 122.922 125.466 122.922 125.559C122.922 125.653 122.959 125.743 123.025 125.809C123.091 125.876 123.181 125.913 123.275 125.913C123.275 125.913 123.275 125.913 123.275 125.913C123.345 125.913 123.415 125.913 123.485 125.913C123.973 125.913 124.476 125.891 124.967 125.838C124.967 125.838 124.967 125.838 124.967 125.838C125.748 125.754 126.509 125.631 127.27 125.512C127.339 125.501 127.407 125.491 127.476 125.48Z" fill="black"/>
<path d="M286.661 75.6485C286.747 75.7054 286.851 75.726 286.952 75.7059C287.052 75.6858 287.141 75.6266 287.197 75.5412C287.254 75.4559 287.275 75.3515 287.255 75.2509C287.235 75.1503 287.176 75.0618 287.09 75.005C287.09 75.005 287.09 75.005 287.09 75.005C287.025 74.9618 286.962 74.9198 286.909 74.8811C286.882 74.8622 286.857 74.8427 286.846 74.8323C286.841 74.8285 286.837 74.8225 286.855 74.8441C286.864 74.8591 286.883 74.8689 286.91 74.9623C286.922 75.0081 286.933 75.1028 286.888 75.1997C286.843 75.298 286.775 75.3455 286.734 75.3687C286.737 75.3666 286.741 75.3646 286.745 75.3626C286.899 75.2795 287.091 75.246 287.306 75.2541C288.812 75.397 290.292 76.5555 292.113 76.899C292.165 76.908 292.218 76.9169 292.27 76.9255C294.927 77.415 297.835 77.329 300.391 76.705C300.432 76.6995 300.473 76.6936 300.515 76.6876C301.79 76.4949 303 76.1247 304.191 75.732C304.216 75.7238 304.24 75.7155 304.265 75.7071C305.41 75.3179 306.49 74.835 307.588 74.4784L307.624 74.4648C307.635 74.4599 307.647 74.455 307.658 74.45C308.191 74.216 308.7 73.9617 309.209 73.7388L309.19 73.7465C309.194 73.7448 309.199 73.7431 309.204 73.7414C309.272 73.7159 309.35 73.689 309.43 73.6593C309.859 73.5008 310.247 73.299 310.627 73.0964C310.718 73.0474 310.787 72.9641 310.816 72.865C310.846 72.7658 310.836 72.6588 310.787 72.5675C310.738 72.4762 310.654 72.4081 310.555 72.3782C310.456 72.3483 310.349 72.359 310.258 72.408C310.258 72.408 310.258 72.408 310.258 72.408C309.89 72.6041 309.525 72.792 309.159 72.9266C309.088 72.953 309.014 72.9786 308.931 73.0093C308.925 73.0113 308.92 73.0134 308.914 73.0154L308.895 73.0232C308.362 73.2569 307.853 73.5113 307.344 73.7346C307.333 73.7393 307.322 73.744 307.312 73.7487L307.347 73.7352C306.195 74.1103 305.111 74.5953 304.015 74.967C303.991 74.975 303.968 74.9829 303.944 74.9907C302.773 75.3776 301.59 75.7358 300.401 75.9146C300.363 75.9202 300.324 75.9256 300.286 75.9308C297.605 76.567 295.04 76.6235 292.398 76.1547C292.347 76.1463 292.296 76.1377 292.244 76.1289C290.663 75.8582 289.286 74.7044 287.334 74.4808C287.03 74.4692 286.687 74.5152 286.38 74.6807C286.373 74.6846 286.365 74.6886 286.358 74.6926C286.308 74.7208 286.232 74.7747 286.183 74.882C286.135 74.9878 286.145 75.0928 286.16 75.148C286.192 75.2604 286.223 75.2867 286.243 75.3174C286.285 75.3693 286.31 75.3906 286.334 75.4126C286.381 75.4538 286.419 75.481 286.456 75.508C286.529 75.5606 286.596 75.6049 286.661 75.6485Z" fill="black"/>
<path d="M325.388 161.46C325.388 161.559 325.427 161.654 325.497 161.724C325.567 161.794 325.662 161.833 325.761 161.833C325.86 161.833 325.955 161.794 326.025 161.724C326.095 161.654 326.134 161.559 326.134 161.46C326.133 161.258 326.139 161.052 326.104 160.805C326.08 160.679 326.069 160.539 325.926 160.346C325.854 160.252 325.708 160.156 325.572 160.137C325.436 160.116 325.332 160.14 325.25 160.164C325.238 160.168 325.227 160.172 325.215 160.176C323.255 160.779 321.885 162.458 321.09 164.209C317.283 174.656 320.121 185.712 319.875 196.213C319.833 196.645 319.794 197.086 319.757 197.529C319.067 206.467 318.908 215.424 318.129 224.316L318.13 224.301C318.09 224.612 318.052 224.928 318.018 225.241C317.226 236.744 318.051 248.141 317.99 259.606C317.988 259.755 317.986 259.913 317.983 260.071C317.846 269.27 317.657 278.466 317.464 287.663C317.416 289.952 317.366 292.242 317.317 294.531C317.315 294.631 317.352 294.728 317.422 294.801C317.491 294.874 317.587 294.916 317.687 294.918C317.788 294.92 317.885 294.882 317.958 294.813C318.03 294.743 318.072 294.648 318.074 294.547C318.074 294.547 318.074 294.547 318.074 294.547C318.124 292.258 318.173 289.969 318.222 287.679C318.415 278.481 318.603 269.285 318.741 260.082C318.743 259.924 318.746 259.766 318.748 259.609C318.807 248.15 317.989 236.658 318.772 225.322C318.805 225.015 318.842 224.704 318.882 224.399L318.884 224.384C319.665 215.455 319.825 206.488 320.512 197.592C320.549 197.151 320.588 196.714 320.629 196.287C320.856 185.549 318.103 174.536 321.767 164.523C322.521 162.87 323.743 161.409 325.442 160.886C325.453 160.883 325.463 160.88 325.473 160.876C325.526 160.875 325.375 160.874 325.345 160.815C325.326 160.782 325.359 160.846 325.366 160.916C325.388 161.066 325.388 161.262 325.388 161.46Z" fill="black"/>
<path d="M85.0561 390.456C85.1153 390.367 85.1368 390.259 85.1159 390.154C85.0949 390.049 85.0333 389.957 84.9445 389.898C84.8557 389.839 84.7471 389.817 84.6424 389.838C84.5378 389.859 84.4457 389.921 84.3866 390.01C84.3866 390.01 84.3866 390.01 84.3866 390.01C82.3094 393.125 80.22 396.232 78.114 399.326C72.259 407.936 66.2622 416.442 60.157 424.881C60.154 424.885 60.151 424.89 60.148 424.894C46.4457 443.783 33.3626 463.383 24.255 484.93L24.2158 485.101C24.2157 485.114 24.2157 485.127 24.2156 485.14C24.458 496.239 27.6309 506.819 30.071 517.503L30.0777 517.528C30.0803 517.536 30.0829 517.544 30.0855 517.553C36.8912 539.198 44.7792 560.477 52.935 581.64C54.2886 585.133 55.6557 588.622 57.0365 592.104C57.0779 592.209 57.1592 592.293 57.2623 592.337C57.3655 592.382 57.4822 592.383 57.5867 592.342C57.6912 592.301 57.7749 592.219 57.8195 592.116C57.8641 592.013 57.8659 591.896 57.8245 591.792C57.8245 591.792 57.8245 591.792 57.8245 591.792C56.4447 588.311 55.0786 584.825 53.7259 581.333C45.5764 560.185 37.6898 538.906 30.8974 517.303C30.8948 517.294 30.8922 517.286 30.8896 517.277L30.8963 517.302C28.4573 506.645 25.2589 496.008 25.0281 485.145C25.0281 485.132 25.0282 485.12 25.0283 485.107L24.9891 485.278C34.0976 463.729 47.096 444.262 60.8 425.365C60.803 425.361 60.806 425.357 60.809 425.353C66.9177 416.908 72.9198 408.395 78.7792 399.779C80.8868 396.682 82.9777 393.574 85.0561 390.456Z" fill="black"/>
<path d="M214.905 824.288C214.845 824.377 214.823 824.487 214.844 824.593C214.865 824.699 214.927 824.792 215.017 824.852C215.106 824.912 215.216 824.934 215.322 824.913C215.428 824.892 215.521 824.83 215.581 824.74C215.581 824.74 215.581 824.74 215.581 824.74C217.083 822.474 218.467 820.105 219.852 817.781C225.323 808.838 230.246 799.187 237.897 792.115C237.935 792.085 237.973 792.055 238.01 792.025C246.773 786.011 258.342 788.317 268.74 787.172C268.764 787.17 268.789 787.168 268.813 787.166C281.601 785.823 294.405 788.091 306.226 793.091C306.348 793.138 306.47 793.185 306.593 793.232C319.409 797.56 328.641 807.604 335.937 818.836L335.917 818.811C335.936 818.836 335.955 818.862 335.975 818.887C336.793 819.979 337.608 821.066 338.374 822.181C338.679 822.625 338.976 823.073 339.261 823.528C339.27 823.542 339.279 823.556 339.288 823.571C340.436 825.358 341.216 827.321 341.8 829.377C341.831 829.485 341.903 829.575 342.001 829.629C342.099 829.684 342.214 829.697 342.322 829.666C342.429 829.635 342.52 829.562 342.574 829.464C342.628 829.366 342.641 829.251 342.61 829.143C342.61 829.143 342.61 829.143 342.61 829.143C342.019 827.053 341.191 824.969 340.003 823.124C339.994 823.109 339.985 823.094 339.976 823.08C339.683 822.613 339.38 822.155 339.07 821.703C338.29 820.569 337.468 819.473 336.65 818.381C336.63 818.356 336.611 818.33 336.592 818.304L336.572 818.279C329.484 807.289 319.805 796.742 306.897 792.445C306.774 792.398 306.651 792.351 306.529 792.304C294.711 787.289 281.58 784.961 268.748 786.325C268.724 786.327 268.7 786.329 268.676 786.331C258.333 787.511 246.846 785.059 237.506 791.387C237.466 791.418 237.426 791.45 237.386 791.482C229.478 798.806 224.649 808.403 219.153 817.366C217.769 819.687 216.383 822.058 214.905 824.288Z" fill="black"/>
<path d="M226.217 821.209C226.285 821.13 226.318 821.028 226.311 820.925C226.303 820.822 226.255 820.727 226.176 820.659C226.098 820.592 225.996 820.558 225.893 820.566C225.79 820.573 225.694 820.622 225.627 820.7C225.627 820.7 225.627 820.7 225.627 820.7C223.697 823.192 222.847 826.139 222.132 829.057C221.565 831.64 221.187 834.306 221.574 836.998C221.577 837.014 221.579 837.03 221.582 837.046C221.968 839.396 223.952 841.007 225.918 841.895C225.94 841.905 225.963 841.915 225.986 841.925C233.481 843.464 240.691 842.689 248.07 842.965C248.088 842.965 248.105 842.966 248.122 842.966C271.821 843.207 295.563 843.529 319.271 843.363C319.284 843.363 319.297 843.363 319.309 843.363C326.631 842.951 334.069 844.25 341.237 841.133C341.247 841.126 341.257 841.118 341.267 841.111C348.094 835.931 352.616 828.628 357.953 822.248C357.95 822.252 357.951 822.251 357.951 822.251C359.191 820.804 360.333 819.275 361.349 817.658C361.35 817.657 361.351 817.655 361.352 817.654C361.446 817.503 361.538 817.354 361.63 817.205C363.106 814.666 365.24 812.616 367.422 810.603C367.509 810.523 367.56 810.413 367.566 810.295C367.571 810.178 367.53 810.063 367.45 809.976C367.371 809.889 367.26 809.838 367.143 809.832C367.025 809.827 366.911 809.869 366.824 809.948C366.824 809.948 366.824 809.948 366.824 809.948C364.629 811.972 362.41 814.101 360.875 816.74C360.783 816.889 360.692 817.037 360.601 817.183C360.6 817.184 360.599 817.186 360.598 817.187C359.609 818.761 358.489 820.258 357.277 821.672C357.276 821.672 357.276 821.673 357.275 821.673C351.885 828.12 347.362 835.359 340.723 840.381C340.713 840.388 340.704 840.396 340.694 840.403C334.428 843.151 326.495 842.093 319.3 842.449C319.287 842.449 319.275 842.449 319.262 842.449C295.575 842.615 271.829 842.293 248.132 842.052C248.115 842.051 248.097 842.051 248.08 842.051C240.795 841.799 233.174 842.506 226.33 841.142C226.31 841.134 226.29 841.125 226.27 841.116C224.43 840.297 222.667 838.886 222.35 836.917C222.348 836.903 222.346 836.89 222.344 836.876C221.979 834.369 222.335 831.746 222.892 829.23C223.574 826.397 224.477 823.44 226.217 821.209Z" fill="black"/>
<path d="M56.5326 824.803C56.6092 824.726 56.6522 824.622 56.6522 824.514C56.6522 824.406 56.6092 824.302 56.5326 824.225C56.4561 824.149 56.3522 824.106 56.244 824.106C56.1357 824.106 56.0319 824.149 55.9553 824.225C55.5578 824.621 55.1635 825.024 54.7591 825.357C54.6585 825.439 54.5564 825.515 54.4621 825.573C54.3786 825.633 54.248 825.657 54.3285 825.65C54.3784 825.646 54.4769 825.727 54.4758 825.744C54.484 825.762 54.4708 825.732 54.4675 825.692C54.458 825.608 54.4636 825.486 54.4781 825.362C54.4853 825.299 54.4927 825.236 54.5003 825.173C54.6825 823.67 54.9771 822.181 55.3692 820.716C60.138 804.525 73.7333 792.353 88.2392 784.389C88.2558 784.381 88.2724 784.372 88.289 784.363C98.2353 779.488 109.865 779.956 120.809 780.829C120.875 780.835 120.941 780.841 121.006 780.847C136.077 781.507 146.17 794.236 153.338 806.525L153.315 806.487C153.342 806.539 153.369 806.59 153.396 806.641C156.253 812.054 159.244 817.399 162.231 822.728L162.207 822.678C162.21 822.685 162.213 822.693 162.216 822.7C162.304 822.918 162.386 823.141 162.467 823.367C163.275 825.947 164.516 828.558 166.24 830.72C166.312 830.814 166.419 830.875 166.536 830.89C166.654 830.905 166.773 830.873 166.867 830.801C166.961 830.729 167.022 830.622 167.037 830.504C167.053 830.387 167.021 830.268 166.948 830.174C166.948 830.174 166.948 830.174 166.948 830.174C165.276 828.053 164.142 825.678 163.317 823.063C163.233 822.831 163.147 822.597 163.053 822.363C163.05 822.355 163.047 822.348 163.043 822.34L163.019 822.289C160.028 816.953 157.046 811.623 154.194 806.219C154.167 806.168 154.14 806.117 154.113 806.066L154.09 806.028C147.013 793.841 136.529 780.59 121.089 779.948C121.023 779.942 120.957 779.936 120.891 779.93C109.875 779.064 98.1724 778.536 87.8761 783.57C87.8589 783.579 87.8417 783.588 87.8245 783.597C73.14 791.686 59.4691 803.94 54.5792 820.505C54.1786 822.004 53.8769 823.532 53.6899 825.075C53.682 825.139 53.6744 825.204 53.667 825.268C53.6497 825.428 53.636 825.587 53.6562 825.783C53.6685 825.88 53.6845 825.994 53.7592 826.135C53.8219 826.276 54.0447 826.453 54.2359 826.461C54.6015 826.476 54.7344 826.349 54.8882 826.269C55.0335 826.18 55.1562 826.086 55.2744 825.99C55.7386 825.607 56.1323 825.2 56.5326 824.803Z" fill="black"/>
<path d="M56.0632 829.622C56.1591 829.67 56.2701 829.678 56.3719 829.644C56.4736 829.61 56.5577 829.537 56.6056 829.441C56.6536 829.345 56.6615 829.234 56.6276 829.132C56.5936 829.031 56.5207 828.947 56.4248 828.899C56.4248 828.899 56.4248 828.899 56.4248 828.899C56.1071 828.75 55.8367 828.569 55.3539 828.474C55.2296 828.462 55.0393 828.428 54.8061 828.591C54.5749 828.775 54.5603 829.007 54.5546 829.136C54.5557 829.408 54.6161 829.584 54.6729 829.771C54.6791 829.79 54.6855 829.809 54.6922 829.829C55.1314 831.011 55.7477 832.018 56.4059 833.021C57.1307 834.104 57.9412 835.132 58.8632 836.066C58.8746 836.077 58.886 836.089 58.8975 836.1C68.2851 842.595 79.9053 840.472 90.3835 840.229C90.4343 840.225 90.4759 840.221 90.5175 840.217C109.655 838.698 129.007 838.011 148.107 839.028C148.108 839.028 148.108 839.028 148.108 839.029L148.128 839.03C150.662 839.255 153.336 838.965 155.753 838.081C157.564 837.441 159.27 836.575 160.906 835.606C161.016 835.541 161.095 835.435 161.127 835.312C161.158 835.189 161.14 835.058 161.075 834.948C161.01 834.838 160.904 834.759 160.78 834.727C160.657 834.696 160.526 834.715 160.416 834.78C160.416 834.78 160.416 834.78 160.416 834.78C158.818 835.726 157.163 836.564 155.434 837.174C153.113 838.016 150.672 838.286 148.193 838.072L148.214 838.073C148.214 838.073 148.214 838.073 148.214 838.073C128.918 837.044 109.646 837.739 90.4358 839.26C90.3941 839.264 90.3524 839.267 90.3107 839.271C79.9535 839.578 68.1035 841.442 59.5285 835.466C59.5184 835.456 59.5083 835.446 59.4982 835.436C58.6197 834.551 57.8212 833.577 57.1057 832.545C56.4597 831.601 55.8347 830.591 55.4574 829.568C55.452 829.552 55.4468 829.536 55.4419 829.521C55.3948 829.379 55.3603 829.224 55.363 829.153C55.3609 829.113 55.3837 829.159 55.2936 829.236C55.2004 829.295 55.1968 829.264 55.2392 829.275C55.4343 829.306 55.7669 829.474 56.0632 829.622Z" fill="black"/>
<path d="M199.096 677.381C199.096 677.257 199.047 677.139 198.96 677.052C198.873 676.965 198.755 676.916 198.631 676.916C198.508 676.916 198.39 676.965 198.303 677.052C198.215 677.139 198.166 677.257 198.166 677.381C198.166 679.703 198.166 682.04 198.167 684.374C198.17 706.571 198.222 728.744 198.362 750.933C198.362 750.935 198.362 750.937 198.362 750.938C198.507 764.124 199.03 777.36 201.534 790.37C201.534 790.371 201.534 790.372 201.534 790.373L201.528 790.338C202.39 797.077 206.02 803.284 211.042 807.755C211.534 808.198 212.037 808.626 212.553 809.04C212.554 809.041 212.555 809.041 212.555 809.042L212.637 809.095C214.192 809.886 215.877 810.324 217.503 810.726C217.623 810.756 217.75 810.737 217.855 810.674C217.961 810.611 218.037 810.508 218.067 810.388C218.097 810.269 218.078 810.142 218.015 810.036C217.951 809.931 217.849 809.854 217.729 809.824C217.729 809.824 217.729 809.824 217.729 809.824C216.099 809.421 214.504 809.001 213.055 808.264L213.137 808.317C213.137 808.317 213.136 808.316 213.135 808.316C212.633 807.912 212.143 807.496 211.664 807.065C206.777 802.711 203.284 796.719 202.45 790.214L202.444 790.179C202.444 790.179 202.444 790.178 202.443 790.177C199.965 777.312 199.434 764.074 199.292 750.933C199.292 750.931 199.292 750.929 199.292 750.928C199.152 728.74 199.1 706.57 199.097 684.373C199.096 682.04 199.096 679.703 199.096 677.381Z" fill="black"/>
<path d="M354.251 799.956C354.346 799.908 354.419 799.825 354.452 799.723C354.486 799.622 354.478 799.512 354.43 799.416C354.383 799.321 354.299 799.248 354.198 799.214C354.097 799.181 353.986 799.189 353.891 799.236C353.891 799.236 353.891 799.236 353.891 799.236C353.593 799.385 353.3 799.534 353.029 799.626C352.896 799.672 352.761 799.697 352.703 799.69C352.646 799.668 352.715 799.727 352.676 799.663C352.67 799.648 352.665 799.634 352.66 799.619C352.447 799.009 352.344 798.36 352.335 797.705C352.597 791.699 357.514 786.836 358.428 780.489C358.453 780.287 358.478 780.084 358.505 779.881C359.818 769.82 362.588 759.984 363.978 749.851L363.976 749.866C363.992 749.768 364.008 749.67 364.025 749.573C364.894 744.524 366.134 739.523 367.137 734.467L367.142 734.431C367.147 734.388 367.152 734.346 367.157 734.304C367.467 731.306 367.56 728.335 367.972 725.402C368.157 724.049 368.399 722.706 368.723 721.385C368.75 721.275 368.732 721.159 368.673 721.062C368.615 720.966 368.52 720.897 368.411 720.87C368.301 720.843 368.185 720.861 368.089 720.919C367.992 720.978 367.923 721.072 367.896 721.182C367.896 721.182 367.896 721.182 367.896 721.182C367.563 722.538 367.317 723.91 367.128 725.287C366.71 728.267 366.616 731.273 366.31 734.211C366.306 734.252 366.301 734.294 366.296 734.335L366.302 734.299C365.303 739.338 364.064 744.334 363.188 749.43C363.172 749.529 363.155 749.628 363.139 749.726L363.136 749.742C361.766 759.781 359.009 769.637 357.692 779.777C357.666 779.982 357.64 780.186 357.615 780.39C356.812 786.376 351.88 791.162 351.53 797.716C351.54 798.446 351.656 799.185 351.9 799.884C351.906 799.9 351.912 799.917 351.918 799.933C351.977 800.192 352.347 800.497 352.629 800.491C352.906 800.511 353.101 800.447 353.285 800.389C353.647 800.264 353.95 800.105 354.251 799.956Z" fill="black"/>
<path d="M59.0509 649.022C59.0823 648.907 59.0668 648.784 59.0076 648.68C58.9485 648.577 58.8506 648.501 58.7356 648.469C58.6205 648.438 58.4977 648.453 58.3941 648.512C58.2906 648.572 58.2147 648.669 58.1833 648.785C58.1833 648.785 58.1833 648.785 58.1833 648.785C57.5613 651.065 57.0154 653.391 56.5086 655.714C52.8615 673.068 50.5157 690.669 48.8751 708.309C48.8742 708.32 48.8733 708.33 48.8724 708.34C47.2523 727.541 49.5995 746.764 51.4063 765.768L51.4111 765.809C51.4114 765.811 51.4117 765.813 51.412 765.815C52.2856 771.204 53.2705 776.573 54.5682 781.891C54.5685 781.892 54.5689 781.893 54.5692 781.895C54.6441 782.196 54.7209 782.503 54.8094 782.812C55.4908 785.207 56.86 787.239 58.202 789.206C58.2785 789.316 58.3957 789.392 58.5277 789.415C58.6598 789.439 58.7959 789.409 58.9062 789.332C59.0164 789.256 59.0916 789.138 59.1152 789.006C59.1389 788.874 59.109 788.738 59.0322 788.628C59.0322 788.628 59.0322 788.628 59.0322 788.628C57.7033 786.695 56.3865 784.722 55.7666 782.537C55.6833 782.248 55.6091 781.955 55.5337 781.654C55.5333 781.652 55.533 781.651 55.5327 781.65C54.2383 776.386 53.2451 771.027 52.3684 765.661C52.3681 765.659 52.3678 765.657 52.3675 765.655L52.3723 765.695C50.534 746.632 48.1587 727.496 49.7683 708.419C49.7692 708.409 49.7701 708.399 49.771 708.389C51.4073 690.79 53.7539 673.193 57.3874 655.905C57.8918 653.593 58.435 651.28 59.0509 649.022Z" fill="black"/>
<path d="M173.713 813.09C173.83 813.09 173.943 813.043 174.026 812.961C174.108 812.878 174.155 812.765 174.155 812.648C174.155 812.531 174.108 812.419 174.026 812.336C173.943 812.254 173.83 812.207 173.713 812.207C173.713 812.207 173.713 812.207 173.713 812.207C173.666 812.204 173.691 812.205 173.692 812.209C173.692 812.212 173.663 812.169 173.647 812.096C173.61 811.95 173.61 811.721 173.629 811.51C173.669 811.065 173.771 810.603 173.889 810.143C174.127 809.228 174.438 808.309 174.767 807.397C175.971 804.11 177.394 800.888 178.833 797.671L178.854 797.612C178.893 797.477 178.932 797.34 178.972 797.202C182.599 784.07 184.396 770.574 186.209 757.129L186.212 757.101C186.218 757.018 186.223 756.936 186.229 756.853C187.29 739.038 187.295 721.213 188.131 703.422C188.218 701.472 188.312 699.525 188.414 697.576C188.421 697.454 188.378 697.334 188.296 697.242C188.214 697.151 188.099 697.096 187.976 697.09C187.854 697.083 187.734 697.126 187.642 697.208C187.551 697.29 187.496 697.405 187.49 697.528C187.49 697.528 187.49 697.528 187.49 697.528C187.388 699.48 187.294 701.428 187.207 703.381C186.375 721.189 186.371 739.034 185.318 756.793C185.313 756.875 185.308 756.957 185.302 757.039L185.305 757.011C183.499 770.438 181.723 783.932 178.122 796.96C178.083 797.098 178.045 797.233 178.006 797.368L178.027 797.309C176.584 800.536 175.159 803.762 173.937 807.097C173.603 808.024 173.285 808.96 173.034 809.922C172.91 810.409 172.798 810.898 172.749 811.435C172.729 811.694 172.714 811.979 172.789 812.304C172.828 812.463 172.897 812.661 173.068 812.834C173.243 813.015 173.508 813.094 173.713 813.09Z" fill="black"/>
<path d="M99.2834 574.495C99.3751 574.41 99.4289 574.291 99.4331 574.165C99.4372 574.04 99.3914 573.918 99.3057 573.826C99.22 573.735 99.1013 573.681 98.9759 573.677C98.8505 573.673 98.7286 573.719 98.6369 573.804C98.6369 573.804 98.6369 573.804 98.6369 573.804C97.4272 574.939 96.2131 576.13 95.0183 577.302C84.6986 587.4 74.5715 597.842 62.9552 606.351C62.9489 606.355 62.9426 606.359 62.9364 606.364C59.473 608.804 56.1641 611.675 53.8728 615.35C53.8651 615.362 53.8574 615.374 53.8498 615.386L53.778 615.58C52.3268 626.319 52.7052 637.136 53.5551 647.871C53.557 647.892 53.559 647.914 53.5609 647.935C53.6369 648.632 53.7458 649.378 54.0715 650.084C54.9008 651.913 56.8644 652.615 58.5113 652.967C58.6451 652.996 58.7846 652.97 58.8991 652.895C59.0136 652.82 59.0937 652.703 59.1218 652.569C59.1499 652.435 59.1236 652.295 59.0488 652.18C58.974 652.066 58.8568 651.986 58.7229 651.958C58.7229 651.958 58.7229 651.958 58.7229 651.958C57.1625 651.637 55.5844 651 54.995 649.658C54.7452 649.121 54.6426 648.497 54.5714 647.833C54.5704 647.821 54.5684 647.8 54.5665 647.778C53.7203 637.121 53.3507 626.302 54.7824 615.731L54.7107 615.925C54.718 615.913 54.7253 615.902 54.7327 615.89C56.9217 612.377 60.0692 609.542 63.4819 607.137C63.4882 607.133 63.4946 607.128 63.5009 607.124C75.2436 598.52 85.3577 588.076 95.6815 577.977C96.8742 576.807 98.0872 575.617 99.2834 574.495Z" fill="black"/>
<path d="M206.593 509.846C206.532 509.937 206.51 510.049 206.531 510.157C206.553 510.264 206.616 510.359 206.707 510.42C206.799 510.481 206.911 510.503 207.018 510.482C207.126 510.46 207.221 510.397 207.282 510.305C207.786 509.549 208.289 508.794 208.792 508.036C209.043 507.658 209.294 507.278 209.543 506.897C209.668 506.707 209.793 506.516 209.917 506.323C209.978 506.228 210.041 506.129 210.102 506.031C210.132 505.982 210.163 505.933 210.195 505.878C210.21 505.853 210.228 505.823 210.244 505.794C210.253 505.778 210.264 505.757 210.274 505.736C210.283 505.717 210.293 505.7 210.308 505.651C210.293 505.642 210.383 505.615 210.276 505.335C210.214 505.17 209.918 505.088 209.858 505.118C209.802 505.126 209.767 505.139 209.741 505.15C209.646 505.197 209.637 505.217 209.615 505.234C209.588 505.259 209.561 505.285 209.533 505.311C209.353 505.479 209.174 505.651 208.997 505.824C198.573 516.89 192.347 531.372 190.385 546.459C190.383 546.593 190.384 546.724 190.387 546.849C191.039 551.782 195.267 554.234 197.167 557.932C197.214 558.015 197.261 558.099 197.307 558.183C201.601 566.359 192.36 573.166 188.999 581.01L188.952 581.239C188.952 581.42 188.953 581.603 188.955 581.788C189.236 590.952 191.341 599.804 193.105 608.655L193.098 608.611C193.103 608.648 193.107 608.685 193.112 608.722C193.145 608.996 193.17 609.266 193.183 609.534C193.275 611.497 192.709 613.521 192.133 615.511C192.088 615.661 192.105 615.823 192.18 615.96C192.254 616.098 192.38 616.2 192.53 616.245C192.68 616.289 192.842 616.273 192.979 616.198C193.117 616.124 193.219 615.998 193.264 615.848C193.264 615.848 193.264 615.848 193.264 615.848C193.847 613.815 194.458 611.729 194.361 609.476C194.347 609.175 194.319 608.875 194.283 608.581C194.278 608.541 194.273 608.502 194.268 608.462L194.261 608.418C192.494 599.575 190.405 590.71 190.135 581.772C190.133 581.593 190.132 581.416 190.132 581.24L190.085 581.469C193.068 574.053 203.044 567.096 198.342 557.617C198.292 557.526 198.242 557.436 198.19 557.346C196.101 553.463 191.879 550.776 191.438 546.821C191.435 546.709 191.434 546.592 191.435 546.469C193.235 531.915 199.369 517.194 209.576 506.416C209.749 506.247 209.924 506.08 210.099 505.915C210.126 505.89 210.153 505.865 210.18 505.84C210.166 505.849 210.164 505.865 210.073 505.909C210.048 505.92 210.014 505.933 209.96 505.94C209.9 505.97 209.606 505.889 209.545 505.725C209.44 505.446 209.527 505.43 209.512 505.421C209.524 505.382 209.528 505.379 209.528 505.376C209.529 505.375 209.525 505.384 209.52 505.393C209.511 505.409 209.497 505.433 209.484 505.454C209.457 505.5 209.428 505.547 209.4 505.592C209.341 505.686 209.28 505.782 209.22 505.875C209.098 506.065 208.974 506.255 208.851 506.444C208.603 506.822 208.352 507.201 208.102 507.579C207.6 508.335 207.096 509.09 206.593 509.846Z" fill="black"/>
<path d="M116.862 584.434C116.757 584.407 116.646 584.422 116.552 584.477C116.459 584.531 116.391 584.621 116.364 584.726C116.336 584.83 116.352 584.942 116.406 585.035C116.461 585.128 116.551 585.196 116.655 585.224C116.655 585.224 116.655 585.224 116.655 585.224C117.864 585.545 119.079 586.009 120.272 586.499C132.323 591.857 143.79 598.714 154.434 606.482L154.477 606.511C154.482 606.514 154.487 606.517 154.493 606.52C161.687 610.729 169.034 614.806 175.818 619.548C175.819 619.549 175.821 619.55 175.822 619.551C177.265 620.621 178.652 621.733 180.012 622.902C180.995 623.744 181.97 624.606 182.936 625.473C183.015 625.544 183.12 625.581 183.227 625.576C183.335 625.57 183.435 625.522 183.507 625.442C183.578 625.362 183.615 625.257 183.61 625.15C183.604 625.043 183.556 624.943 183.476 624.871C183.476 624.871 183.476 624.871 183.476 624.871C182.509 624 181.531 623.133 180.542 622.284C179.176 621.107 177.759 619.97 176.312 618.898C176.31 618.897 176.309 618.896 176.308 618.895C169.413 614.076 162.111 610.033 154.901 605.813C154.896 605.81 154.89 605.807 154.885 605.804L154.928 605.833C144.189 597.999 132.764 591.163 120.584 585.744C119.371 585.247 118.138 584.773 116.862 584.434Z" fill="black"/>
<path d="M218.682 627.219C218.596 627.251 218.525 627.316 218.487 627.4C218.448 627.484 218.445 627.579 218.477 627.666C218.509 627.752 218.574 627.822 218.658 627.861C218.741 627.899 218.837 627.903 218.923 627.871C218.923 627.871 218.923 627.871 218.923 627.871C220.348 627.343 221.779 626.818 223.211 626.298C243.153 619.074 263.361 612.547 283.817 606.955C283.812 606.957 283.812 606.957 283.812 606.957C288.27 605.843 292.733 604.634 297.293 604.36C297.293 604.36 297.293 604.36 297.293 604.36C298.872 604.254 300.457 604.205 302.044 604.182C303.563 604.159 305.085 604.159 306.608 604.159C306.7 604.159 306.788 604.123 306.853 604.058C306.918 603.993 306.954 603.905 306.954 603.814C306.954 603.722 306.918 603.634 306.853 603.569C306.788 603.504 306.7 603.468 306.608 603.468C305.085 603.468 303.56 603.468 302.034 603.49C300.439 603.514 298.843 603.563 297.247 603.67C297.246 603.671 297.246 603.671 297.246 603.671C292.596 603.952 288.104 605.169 283.639 606.283C283.639 606.283 283.639 606.283 283.639 606.283C263.154 611.883 242.933 618.414 222.973 625.645C221.54 626.165 220.108 626.691 218.682 627.219Z" fill="black"/>
<path d="M84.7214 476.565C84.6452 476.565 84.5722 476.595 84.5184 476.649C84.4645 476.703 84.4343 476.776 84.4343 476.852C84.4343 476.928 84.4645 477.001 84.5184 477.055C84.5722 477.109 84.6452 477.139 84.7214 477.139C84.7214 477.139 84.7214 477.139 84.7214 477.139C84.6202 477.141 84.5652 477.047 84.5773 477.063C84.5795 477.065 84.5905 477.107 84.5943 477.141C84.6052 477.229 84.6054 477.319 84.6018 477.423C84.5945 477.62 84.569 477.845 84.5421 478.043C84.4848 478.461 84.4029 478.901 84.32 479.315C84.1465 480.174 83.9517 481.008 83.7457 481.857C82.2873 487.734 80.5998 493.558 78.9397 499.401L78.9316 499.438C78.9193 499.524 78.907 499.609 78.8947 499.694C75.6445 523.944 73.3682 548.568 76.1286 572.998L76.131 573.009C76.1332 573.018 76.1354 573.027 76.1376 573.035C76.3202 573.771 76.5132 574.513 76.7366 575.244C77.2503 576.927 77.8748 578.56 78.5219 580.189C78.5501 580.26 78.6052 580.316 78.6752 580.346C78.7452 580.376 78.8242 580.377 78.8949 580.349C78.9657 580.321 79.0223 580.266 79.0524 580.196C79.0824 580.126 79.0835 580.047 79.0553 579.976C79.0553 579.976 79.0553 579.976 79.0553 579.976C78.411 578.355 77.7911 576.732 77.286 575.077C77.0662 574.357 76.8773 573.632 76.6947 572.896C76.6925 572.887 76.6903 572.879 76.6881 572.87L76.6905 572.88C73.9564 548.666 76.214 523.965 79.4631 499.776C79.4753 499.691 79.4876 499.606 79.4999 499.521L79.4918 499.558C81.1527 493.713 82.8395 487.893 84.3037 481.992C84.5107 481.139 84.7068 480.3 84.883 479.428C84.9672 479.008 85.0509 478.559 85.1111 478.12C85.1393 477.912 85.167 477.675 85.1757 477.444C85.1793 477.321 85.1815 477.215 85.1637 477.067C85.156 477.008 85.1403 476.918 85.1043 476.835C85.0711 476.746 84.9422 476.562 84.7214 476.565Z" fill="black"/>
<path d="M102.277 106.778C102.387 106.815 102.507 106.806 102.611 106.755C102.715 106.703 102.794 106.612 102.83 106.502C102.867 106.392 102.859 106.271 102.807 106.168C102.755 106.064 102.664 105.985 102.554 105.948C102.554 105.948 102.554 105.948 102.554 105.948C102.172 105.821 101.788 105.695 101.539 105.527C101.295 105.329 101.3 105.329 101.418 105.018C101.426 105.002 101.433 104.987 101.441 104.971C101.611 104.624 101.806 104.288 102.023 103.966C109.35 95.618 122.247 95.7859 132.964 95.8222L132.818 95.7915C132.912 95.8286 133.005 95.8656 133.099 95.9025C142.4 99.7191 152.549 103.769 157.683 112.757C157.687 112.763 157.695 112.776 157.703 112.789C158.129 113.501 158.594 114.198 159.09 114.865C159.842 115.876 160.647 116.829 161.458 117.774C161.532 117.861 161.638 117.914 161.751 117.923C161.865 117.931 161.977 117.895 162.063 117.821C162.15 117.747 162.203 117.642 162.212 117.528C162.221 117.415 162.185 117.302 162.111 117.216C162.111 117.216 162.111 117.216 162.111 117.216C161.309 116.273 160.521 115.326 159.797 114.342C159.32 113.693 158.877 113.025 158.463 112.333C158.456 112.32 158.448 112.308 158.441 112.295C153.122 103.012 142.736 98.8947 133.428 95.0706C133.334 95.0335 133.24 94.9963 133.145 94.9591L132.999 94.9284C122.133 94.9604 109.289 94.5018 101.296 103.478C101.059 103.831 100.843 104.202 100.655 104.586C100.647 104.603 100.638 104.621 100.63 104.638C100.521 104.867 100.418 105.17 100.5 105.521C100.584 105.875 100.838 106.11 101.047 106.251C101.481 106.533 101.89 106.644 102.277 106.778Z" fill="black"/>
<path d="M191.116 115.532C191.088 115.625 191.097 115.726 191.143 115.813C191.189 115.899 191.268 115.964 191.361 115.993C191.455 116.021 191.556 116.012 191.642 115.966C191.729 115.92 191.794 115.841 191.822 115.748C191.822 115.748 191.822 115.748 191.822 115.748C192.166 114.745 192.915 113.796 193.651 112.893C200.549 105.235 209.076 98.9727 218.052 93.8669L217.95 93.9047C217.974 93.8997 217.998 93.8948 218.022 93.8898C227.029 91.9576 236.44 93.6379 244.922 97.0957L244.901 97.0865C244.914 97.0926 244.927 97.0987 244.94 97.1048C246.401 97.8018 247.835 98.59 248.829 99.7986C249.552 100.662 250.058 101.711 250.496 102.791C250.533 102.882 250.604 102.954 250.694 102.993C250.785 103.031 250.886 103.032 250.977 102.995C251.068 102.958 251.14 102.887 251.178 102.797C251.217 102.707 251.217 102.605 251.181 102.514C251.181 102.514 251.181 102.514 251.181 102.514C250.729 101.404 250.197 100.284 249.396 99.3257C248.284 97.9791 246.742 97.1482 245.256 96.4378C245.243 96.4316 245.23 96.4254 245.217 96.4192L245.196 96.4101C236.639 92.9192 227.047 91.1966 217.873 93.1666C217.849 93.1717 217.824 93.1767 217.8 93.1818L217.697 93.2196C208.624 98.3876 200.116 104.619 193.083 112.421C192.322 113.366 191.554 114.284 191.116 115.532Z" fill="black"/>
<path d="M123.432 317.188C123.498 317.273 123.595 317.328 123.702 317.341C123.809 317.354 123.916 317.324 124.001 317.258C124.086 317.191 124.14 317.094 124.153 316.988C124.166 316.881 124.137 316.773 124.07 316.689C124.07 316.689 124.07 316.689 124.07 316.689C119.17 309.709 115.688 301.648 111.677 294.013C109.258 289.276 106.798 284.558 104.218 279.899C104.212 279.887 104.205 279.875 104.198 279.864C97.8983 268.491 92.0898 256.861 87.1068 244.858C87.0913 244.821 87.0757 244.784 87.0602 244.747C84.3321 238.406 80.5495 232.68 77.22 226.741C77.1947 226.696 77.1695 226.652 77.1443 226.607C75.026 223.051 74.5681 219.031 73.6906 214.841C73.6834 214.817 73.6761 214.793 73.6687 214.769C73.3488 213.783 73.8637 212.676 74.7012 211.94C74.7182 211.925 74.7353 211.91 74.7526 211.895C81.234 207.009 90.379 209.37 98.0884 211.05C98.1076 211.054 98.1269 211.059 98.1463 211.064C109.556 214.503 121.362 217.239 133.253 218.77C133.265 218.772 133.277 218.774 133.289 218.775C149.535 220.792 165.892 220.853 182.184 221.248C182.204 221.248 182.223 221.249 182.242 221.249C198.646 221.555 215.415 220.515 230.991 214.818C231.041 214.8 231.091 214.781 231.141 214.763C238.686 212.035 245.982 208.297 252.333 203.369C252.389 203.328 252.444 203.287 252.499 203.246C257.434 199.558 258.353 193.265 260.541 188.227C260.544 188.22 260.547 188.214 260.55 188.208C260.952 187.121 261.847 186.091 261.504 184.464C261.503 184.461 261.502 184.458 261.501 184.454C260.899 182.937 259.362 182.603 258.128 182.567C258.124 182.567 258.12 182.567 258.116 182.567C250.868 182.591 244.783 186.818 238.114 187.977C238.043 187.989 237.972 188.001 237.901 188.013C220.198 191.157 203.035 196.403 185.835 201.423C185.804 201.432 185.773 201.441 185.742 201.45C171.584 205.008 157.045 207.314 142.666 210.221C142.661 210.222 142.657 210.223 142.653 210.223C133.063 212.095 123.202 212.98 113.509 211.8C113.496 211.798 113.483 211.797 113.47 211.795C107.412 210.634 102.48 205.907 98.0661 201.509C95.2395 198.578 92.6354 195.419 90.2999 192.085L90.3672 192.225C90.3651 192.218 90.3631 192.211 90.361 192.204C89.4692 189.147 88.9207 185.938 89.434 182.838L89.4108 182.925C89.4109 182.925 89.411 182.925 89.411 182.925C89.8134 181.811 90.7018 180.904 91.6234 179.987C91.7135 179.897 91.7641 179.775 91.7641 179.647C91.7641 179.52 91.7135 179.397 91.6234 179.307C91.5333 179.217 91.4111 179.167 91.2836 179.167C91.1562 179.167 91.034 179.217 90.9439 179.307C90.9439 179.307 90.9439 179.307 90.9439 179.307C90.0312 180.222 89.01 181.225 88.5093 182.593C88.5092 182.593 88.5091 182.593 88.509 182.593L88.4859 182.681C87.9392 186 88.5274 189.344 89.4388 192.474C89.4409 192.481 89.443 192.489 89.4451 192.496L89.5123 192.636C91.8791 196.014 94.5113 199.207 97.375 202.176C101.89 206.632 106.707 211.438 113.355 212.749C113.368 212.751 113.381 212.752 113.394 212.754C123.22 213.95 133.182 213.056 142.839 211.172C142.843 211.171 142.847 211.171 142.851 211.17C157.246 208.26 171.698 205.977 186.015 202.38C186.047 202.371 186.079 202.361 186.111 202.352C203.299 197.334 220.463 192.093 238.063 188.969C238.134 188.957 238.204 188.945 238.275 188.933C245.238 187.685 251.273 183.526 258.11 183.536C258.114 183.536 258.118 183.536 258.122 183.536C259.145 183.53 260.327 183.973 260.579 184.752C260.58 184.753 260.58 184.755 260.581 184.756C260.815 185.558 260.127 186.728 259.662 187.821C259.659 187.827 259.656 187.834 259.653 187.84C257.419 193.072 256.458 199.12 251.923 202.467C251.868 202.508 251.813 202.549 251.758 202.59C245.435 207.489 238.314 211.133 230.804 213.854C230.755 213.873 230.705 213.891 230.656 213.909C215.269 219.54 198.602 220.588 182.264 220.281C182.244 220.28 182.225 220.28 182.205 220.279C165.916 219.886 149.554 219.805 133.423 217.792C133.411 217.791 133.399 217.789 133.387 217.787C121.51 216.247 109.898 213.542 98.3884 210.077C98.3684 210.073 98.3486 210.068 98.3287 210.063C90.5286 208.427 81.3614 205.767 74.0857 211.129C74.0644 211.147 74.0433 211.166 74.0224 211.185C73.0034 212.071 72.2475 213.6 72.7298 215.063C72.7365 215.084 72.743 215.105 72.7495 215.126C73.5904 218.995 74.1905 223.403 76.3785 227.038C76.4038 227.083 76.4292 227.128 76.4546 227.173C79.7989 233.135 83.5766 238.867 86.2492 245.086C86.2647 245.123 86.2803 245.16 86.2959 245.197C91.2933 257.235 97.1797 268.867 103.489 280.256C103.496 280.268 103.503 280.28 103.509 280.292C106.083 284.939 108.538 289.648 110.955 294.382C114.977 302.03 118.398 310.011 123.432 317.188Z" fill="black"/>
<path d="M336.289 347.98C336.403 347.951 336.501 347.879 336.561 347.778C336.621 347.678 336.639 347.557 336.611 347.443C336.582 347.33 336.51 347.232 336.409 347.171C336.309 347.111 336.188 347.093 336.074 347.121C336.074 347.121 336.074 347.121 336.074 347.121C335.956 347.166 335.821 347.113 335.964 347.173C336.04 347.223 336.059 347.32 336.054 347.307C336.053 347.303 336.057 347.256 336.071 347.204C336.13 346.984 336.272 346.709 336.422 346.448C336.727 345.923 337.088 345.406 337.463 344.891C342.042 338.896 347.243 333.342 352.339 327.7L352.354 327.683C352.529 327.469 352.704 327.257 352.879 327.044C361.66 316.488 370.673 305.984 381.085 297.058L381.095 297.049C381.128 297.019 381.161 296.99 381.194 296.961C382.189 296.068 383.164 295.145 384.09 294.168C384.982 293.232 385.81 292.229 386.604 291.228C386.674 291.141 386.706 291.029 386.693 290.918C386.681 290.807 386.625 290.705 386.538 290.635C386.45 290.565 386.339 290.533 386.228 290.545C386.117 290.558 386.015 290.614 385.945 290.701C385.945 290.701 385.945 290.701 385.945 290.701C385.149 291.701 384.346 292.669 383.473 293.583C382.568 294.536 381.607 295.443 380.623 296.324C380.591 296.352 380.558 296.381 380.526 296.411L380.536 296.402C370.026 305.4 360.998 315.902 352.196 326.482C352.021 326.694 351.846 326.907 351.67 327.121L351.685 327.104C346.579 332.759 341.4 338.281 336.749 344.369C336.364 344.899 335.991 345.428 335.655 346.006C335.488 346.304 335.326 346.583 335.214 346.984C335.188 347.087 335.164 347.201 335.171 347.356C335.176 347.441 335.19 347.525 335.233 347.624C335.278 347.731 335.366 347.838 335.461 347.902C335.897 348.134 336.07 348.01 336.289 347.98Z" fill="black"/>
<path d="M384.966 289.067C384.955 289.168 384.984 289.269 385.048 289.348C385.111 289.428 385.204 289.478 385.305 289.49C385.405 289.501 385.507 289.471 385.586 289.408C385.665 289.344 385.716 289.252 385.727 289.151C385.727 289.151 385.727 289.151 385.727 289.151C385.958 287.077 386.181 284.99 386.378 282.902C387.399 272.058 387.891 261.209 388.201 250.328C388.201 250.327 388.202 250.326 388.202 250.326C388.596 230.727 387.971 211.11 387.59 191.536C387.589 191.533 387.589 191.53 387.589 191.527C387.293 184.297 387.082 177.098 386.164 169.901C386.074 169.222 385.977 168.549 385.885 167.877C385.884 167.874 385.884 167.872 385.884 167.87L385.885 167.883C385.726 166.501 385.764 165.147 386.583 164.104C386.643 164.022 386.668 163.92 386.653 163.819C386.638 163.719 386.583 163.629 386.501 163.569C386.419 163.509 386.317 163.483 386.217 163.499C386.116 163.514 386.026 163.569 385.966 163.65C384.989 164.877 384.955 166.582 385.124 167.96L385.125 167.974C385.125 167.976 385.126 167.978 385.126 167.98C385.219 168.657 385.316 169.328 385.405 170.002C386.315 177.13 386.529 184.335 386.824 191.549C386.824 191.546 386.824 191.549 386.824 191.552C387.206 211.125 387.83 230.75 387.436 250.304C387.436 250.305 387.436 250.306 387.436 250.307C387.126 261.177 386.634 272.013 385.616 282.83C385.419 284.913 385.197 286.993 384.966 289.067Z" fill="black"/>
<path d="M346.675 459.576C346.617 459.499 346.531 459.449 346.435 459.436C346.34 459.422 346.243 459.448 346.166 459.506C346.09 459.564 346.039 459.65 346.026 459.746C346.013 459.841 346.038 459.938 346.096 460.015C346.096 460.015 346.096 460.015 346.096 460.015C346.977 461.654 347.452 463.847 347.985 465.83C350.544 476.267 352.438 486.833 354.359 497.442C354.36 497.45 354.362 497.458 354.363 497.466C356.59 516.622 350.085 535.529 346.374 554.338L346.377 554.326C346.373 554.34 346.37 554.353 346.366 554.367C344.425 561.663 342.75 569.187 338.998 575.696C338.749 576.108 338.49 576.512 338.219 576.91L338.213 576.919C338.212 576.921 338.211 576.923 338.21 576.925C337.336 578.282 336.565 579.718 335.857 581.154C335.814 581.241 335.807 581.34 335.837 581.432C335.867 581.523 335.933 581.599 336.019 581.642C336.105 581.685 336.205 581.692 336.297 581.661C336.388 581.631 336.463 581.565 336.507 581.479C336.507 581.479 336.507 581.479 336.507 581.479C337.215 580.043 337.962 578.653 338.822 577.315C338.823 577.313 338.824 577.312 338.826 577.31L338.82 577.319C339.097 576.911 339.364 576.495 339.62 576.071C343.47 569.377 345.118 561.864 347.071 554.545C347.074 554.531 347.078 554.518 347.081 554.504L347.084 554.492C350.783 535.671 357.33 516.859 355.078 497.338C355.077 497.33 355.075 497.322 355.074 497.315C353.151 486.697 351.259 476.136 348.69 465.651C348.124 463.609 347.77 461.603 346.675 459.576Z" fill="black"/>
<path d="M334.388 611.563C334.291 611.547 334.191 611.57 334.111 611.627C334.031 611.684 333.977 611.77 333.96 611.867C333.944 611.964 333.967 612.064 334.024 612.144C334.081 612.224 334.168 612.279 334.265 612.295C334.265 612.295 334.265 612.295 334.265 612.295C336.739 612.557 339.098 612.54 341.506 612.625C345.13 612.728 348.759 612.817 352.361 613.064C352.362 613.064 352.364 613.064 352.366 613.065C352.998 613.057 353.359 613.84 353.629 614.594C353.901 615.373 354.088 616.177 354.266 617C354.612 618.642 354.88 620.311 355.136 621.986C355.64 625.32 356.075 628.673 356.505 632.05C356.508 632.079 356.512 632.107 356.515 632.136C359.355 655.334 361.719 678.608 363.762 701.886C363.763 701.897 363.764 701.908 363.764 701.919C364.517 711.257 365.383 720.636 365.132 729.974C365.054 732.363 364.863 734.743 364.57 737.116C364.558 737.213 364.586 737.312 364.646 737.389C364.707 737.467 364.796 737.517 364.893 737.529C364.991 737.541 365.09 737.514 365.167 737.453C365.245 737.393 365.295 737.304 365.307 737.206C365.307 737.206 365.307 737.206 365.307 737.206C365.602 734.815 365.795 732.409 365.874 729.999C366.126 720.581 365.257 711.204 364.504 701.856C364.503 701.845 364.502 701.834 364.501 701.823C362.457 678.53 360.094 655.261 357.252 632.043C357.248 632.014 357.244 631.985 357.241 631.957C356.811 628.577 356.376 625.221 355.87 621.875C355.613 620.192 355.343 618.516 354.992 616.846C354.81 616.006 354.621 615.186 354.329 614.347C354.18 613.931 354.017 613.519 353.74 613.116C353.49 612.716 352.945 612.33 352.418 612.324C352.417 612.324 352.415 612.324 352.413 612.324C348.784 612.075 345.152 611.986 341.527 611.883C339.141 611.801 336.688 611.806 334.388 611.563Z" fill="black"/>
<path d="M381.479 421.448C381.396 421.489 381.332 421.562 381.303 421.651C381.273 421.739 381.28 421.836 381.322 421.919C381.363 422.003 381.437 422.066 381.525 422.096C381.614 422.125 381.71 422.118 381.793 422.077C381.793 422.077 381.793 422.077 381.793 422.077C381.824 422.061 381.855 422.046 381.886 422.03C382.443 421.752 382.999 421.474 383.556 421.195C383.587 421.18 383.618 421.164 383.649 421.149C383.732 421.107 383.796 421.034 383.825 420.946C383.854 420.857 383.848 420.761 383.806 420.677C383.764 420.594 383.691 420.53 383.603 420.501C383.514 420.471 383.418 420.478 383.334 420.52C383.334 420.52 383.334 420.52 383.334 420.52C383.303 420.535 383.272 420.551 383.241 420.566C382.685 420.845 382.128 421.123 381.572 421.401C381.541 421.417 381.51 421.432 381.479 421.448Z" fill="black"/>
<path d="M381.636 421.762L383.491 420.834" stroke="black" stroke-width="2" stroke-linecap="round"/>
<path d="M439.053 316.812C439.008 316.894 438.996 316.99 439.022 317.081C439.047 317.171 439.107 317.247 439.189 317.293C439.271 317.339 439.368 317.35 439.458 317.325C439.548 317.3 439.624 317.239 439.67 317.157C439.67 317.157 439.67 317.157 439.67 317.157C440.988 314.804 442.216 312.409 443.302 309.937C444.986 306.132 446.258 302.138 447.123 298.072C447.123 298.07 447.123 298.068 447.124 298.066C450.83 279.027 449.889 259.651 450.086 240.383C450.086 240.377 450.086 240.371 450.086 240.365C449.825 221.926 446.367 203.785 443.919 185.622C443.919 185.619 443.919 185.617 443.918 185.615C443.019 179.127 442.258 172.666 440.973 166.217C440.869 165.738 440.756 165.258 440.637 164.784C440.637 164.784 440.637 164.784 440.637 164.784C440.074 162.689 439.894 160.515 439.714 158.33C439.707 158.237 439.663 158.15 439.592 158.089C439.52 158.028 439.428 157.998 439.334 158.005C439.241 158.012 439.154 158.057 439.093 158.128C439.032 158.199 439.002 158.292 439.009 158.385C439.009 158.385 439.009 158.385 439.009 158.385C439.19 160.576 439.374 162.803 439.951 164.955C439.951 164.955 439.951 164.955 439.951 164.955C440.068 165.424 440.179 165.895 440.282 166.367C441.553 172.742 442.32 179.231 443.218 185.709C443.218 185.711 443.218 185.713 443.218 185.714C445.671 203.904 449.121 222.032 449.379 240.367C449.379 240.373 449.379 240.379 449.379 240.385C449.186 259.633 450.111 279.053 446.433 297.917C446.432 297.919 446.432 297.921 446.431 297.923C445.574 301.953 444.321 305.886 442.655 309.653C441.58 312.099 440.363 314.474 439.053 316.812Z" fill="black"/>
<path d="M383.186 418.817C383.143 418.898 383.134 418.992 383.161 419.08C383.188 419.168 383.248 419.241 383.329 419.284C383.41 419.327 383.505 419.337 383.592 419.31C383.68 419.283 383.754 419.223 383.797 419.142C383.797 419.142 383.797 419.142 383.797 419.142C384.667 417.506 385.549 415.875 386.441 414.245C395.301 398.185 404.619 382.348 414.926 367.196C414.926 367.196 414.926 367.195 414.927 367.195L414.944 367.167C421.707 354.907 428.44 342.66 434.358 329.924C434.358 329.924 434.358 329.923 434.359 329.922L434.341 329.958C434.863 329.018 435.52 328.126 436.164 327.225C437.252 325.724 438.351 324.219 439.431 322.705C439.485 322.631 439.506 322.538 439.491 322.448C439.476 322.357 439.426 322.276 439.351 322.223C439.277 322.17 439.184 322.148 439.093 322.163C439.003 322.178 438.922 322.229 438.869 322.303C438.869 322.303 438.869 322.303 438.869 322.303C437.79 323.815 436.695 325.314 435.604 326.821C434.957 327.726 434.293 328.623 433.736 329.624L433.719 329.66C433.719 329.66 433.718 329.661 433.718 329.662C427.845 342.3 421.093 354.591 414.34 366.831L414.357 366.803C414.357 366.803 414.356 366.804 414.356 366.804C404.025 381.992 394.706 397.833 385.835 413.913C384.941 415.545 384.058 417.178 383.186 418.817Z" fill="black"/>
<path d="M389.776 164.086C389.832 164.141 389.907 164.172 389.985 164.172C390.063 164.172 390.138 164.141 390.194 164.086C390.249 164.03 390.28 163.955 390.28 163.877C390.28 163.799 390.249 163.724 390.194 163.669C390.194 163.669 390.194 163.669 390.194 163.669C389.827 163.315 389.808 163.195 390.065 162.823L389.968 162.907C389.974 162.904 389.979 162.901 389.985 162.898C390.179 162.793 390.393 162.685 390.599 162.587C400.315 158.737 411.145 158.481 421.585 158.301C421.588 158.301 421.591 158.301 421.595 158.301L421.575 158.301C423.847 158.436 426.083 158.835 427.936 160.154C428.526 160.537 429.109 160.946 429.706 161.344C429.773 161.389 429.854 161.405 429.932 161.389C430.01 161.374 430.079 161.328 430.124 161.261C430.168 161.195 430.184 161.114 430.169 161.036C430.153 160.957 430.107 160.889 430.041 160.844C430.041 160.844 430.041 160.844 430.041 160.844C429.449 160.449 428.868 160.042 428.263 159.649C426.343 158.273 423.895 157.829 421.614 157.7L421.594 157.7C421.591 157.7 421.588 157.7 421.585 157.7C411.083 157.89 400.309 158.114 390.345 162.054C390.131 162.156 389.908 162.269 389.704 162.379C389.698 162.383 389.692 162.386 389.686 162.389L389.59 162.473C389.438 162.686 389.261 162.968 389.311 163.342C389.374 163.715 389.619 163.921 389.776 164.086Z" fill="black"/>
<path d="M386.132 160.44C386.205 160.478 386.289 160.485 386.367 160.46C386.445 160.436 386.51 160.381 386.548 160.309C386.585 160.236 386.593 160.152 386.568 160.074C386.543 159.996 386.489 159.931 386.416 159.893C386.416 159.893 386.416 159.893 386.416 159.893C382.696 157.922 379.252 155.367 375.983 152.669C368.968 146.778 362.581 139.951 358.138 131.928C358.026 131.723 357.917 131.518 357.809 131.313C356.971 129.754 356.685 127.942 357.143 126.242C357.204 125.996 357.278 125.749 357.358 125.504C357.679 124.474 358.387 123.635 359.337 123.118C359.579 122.983 359.833 122.864 360.094 122.758C365.559 120.42 371.495 122.267 377.233 123.423C377.545 123.473 377.858 123.516 378.169 123.549C379.698 123.778 381.613 123.202 382.319 121.653C383.046 120.195 383.074 118.612 383.043 117.104C382.924 114.068 382.335 111.104 381.774 108.17C380.669 102.306 379.162 96.4083 379.486 90.5067C379.532 89.883 379.598 89.2725 379.685 88.6621C380.616 80.5061 386.426 74.1195 392.651 69.0636C393.042 68.726 393.451 68.4067 393.874 68.1037C398.602 64.8164 404.381 63.2987 410.081 62.4808C410.481 62.4261 410.883 62.387 411.286 62.3629C415.503 62.1115 419.636 63.5289 423.521 65.2158C423.814 65.344 424.088 65.4801 424.365 65.6347C432.236 70.9881 430.68 82.1309 432.17 90.8911C432.215 91.2405 432.258 91.5883 432.299 91.9343C434.131 105.618 432.111 119.353 430.628 133.059L430.627 133.073C430.623 133.194 430.619 133.315 430.615 133.435C430.546 135.404 430.45 137.371 430.297 139.331C430.139 141.315 429.934 143.299 429.553 145.236C429.544 145.278 429.536 145.32 429.527 145.362C429.125 147.532 428.462 149.622 427.706 151.705C427.676 151.788 427.68 151.879 427.718 151.959C427.755 152.038 427.822 152.1 427.905 152.13C427.988 152.16 428.079 152.156 428.159 152.119C428.239 152.081 428.301 152.014 428.331 151.931C428.331 151.931 428.331 151.931 428.331 151.931C429.091 149.84 429.771 147.689 430.179 145.493C430.187 145.45 430.195 145.408 430.204 145.366C430.595 143.382 430.799 141.382 430.959 139.383C431.114 137.409 431.209 135.434 431.278 133.459C431.283 133.338 431.287 133.216 431.291 133.095L431.29 133.109C432.764 119.495 434.804 105.614 432.959 91.8555C432.917 91.5073 432.874 91.1574 432.828 90.8058C431.282 82.1019 433.116 70.9223 424.689 65.0555C424.393 64.8897 424.1 64.7441 423.787 64.6072C419.865 62.9069 415.643 61.4412 411.247 61.7C410.827 61.7251 410.408 61.7658 409.991 61.8228C404.219 62.6553 398.377 64.1703 393.487 67.5638C393.049 67.8775 392.625 68.209 392.217 68.5609C386.002 73.5986 379.972 80.2005 379.027 88.5687C378.938 89.1942 378.871 89.8193 378.824 90.4573C378.496 96.541 380.022 102.437 381.122 108.297C381.682 111.222 382.265 114.177 382.379 117.125C382.415 118.583 382.357 120.105 381.73 121.345C381.125 122.625 379.677 123.074 378.238 122.888C377.941 122.857 377.64 122.816 377.338 122.767C371.743 121.649 365.549 119.706 359.848 122.149C359.564 122.264 359.286 122.394 359.016 122.546C357.954 123.114 357.089 124.143 356.74 125.302C356.656 125.558 356.579 125.821 356.513 126.086C356.018 127.927 356.365 129.956 357.263 131.6C357.372 131.807 357.484 132.015 357.597 132.222C362.1 140.349 368.527 147.21 375.589 153.143C378.884 155.861 382.341 158.43 386.132 160.44Z" fill="black"/>
</svg>
