<svg xmlns="http://www.w3.org/2000/svg" width="120" height="242" viewBox="0 0 120 242" fill="none">
  <path d="M34.3294 91.1551C34.307 91.2399 34.3192 91.3301 34.3633 91.4058C34.4074 91.4816 34.4797 91.5368 34.5645 91.5592C34.6493 91.5816 34.7394 91.5694 34.8152 91.5253C34.891 91.4812 34.9462 91.4089 34.9686 91.3241C34.9686 91.3241 34.9686 91.3241 34.9686 91.3241C34.9983 89.4485 34.2004 88.1863 33.6147 86.7224C31.6827 82.5043 29.2677 78.5271 26.5321 74.7879C26.5281 74.7824 26.524 74.7769 26.52 74.7714C23.6819 70.8909 20.724 67.0758 18.2479 62.9934C18.2315 62.9656 18.2151 62.9379 18.1989 62.9103C17.926 62.4841 18.3511 61.7346 18.7545 61.1221C18.7698 61.0988 18.7852 61.0754 18.8007 61.052C26.4731 55.5631 37.5722 57.373 47.1096 56.5863C47.1578 56.5844 47.206 56.5826 47.254 56.5808C54.1926 56.357 61.1447 55.8554 68.0334 55.6085L67.9611 55.6008C67.9711 55.603 67.981 55.6052 67.9909 55.6074C68.575 55.7373 69.1349 55.9836 69.6887 56.2739C69.8508 56.3586 70.012 56.4465 70.174 56.5364C70.1796 56.5395 70.1852 56.5426 70.1908 56.5457C71.3583 57.1568 72.3107 58.0469 73.1985 59.0416C73.2578 59.1081 73.3412 59.1482 73.4301 59.1532C73.5191 59.1581 73.6064 59.1276 73.6728 59.0682C73.7392 59.0088 73.7793 58.9255 73.7843 58.8365C73.7893 58.7476 73.7587 58.6603 73.6993 58.5938C73.6993 58.5938 73.6993 58.5938 73.6993 58.5938C72.7967 57.5785 71.7483 56.6008 70.5171 55.9584C70.5114 55.9552 70.5057 55.952 70.4999 55.9488C70.335 55.8574 70.1691 55.7669 69.9999 55.6784C69.4235 55.3764 68.804 55.1001 68.1384 54.9519C68.1272 54.9494 68.1159 54.9469 68.1046 54.9444L68.0323 54.9367C61.0577 55.1862 54.1777 55.6853 47.2285 55.9094C47.1805 55.9112 47.1324 55.913 47.0842 55.9149C37.4624 56.7908 26.7592 54.5908 18.2402 60.6814C18.2242 60.7056 18.2083 60.7299 18.1924 60.7542C17.8221 61.3989 17.1117 62.1935 17.6196 63.2505C17.6361 63.2787 17.6528 63.307 17.6695 63.3353C20.1866 67.4835 23.1496 71.2818 25.9878 75.1637C25.9918 75.1691 25.9958 75.1746 25.9999 75.18C28.7072 78.8796 31.1081 82.8361 33.0117 86.9936C33.5961 88.3537 34.3427 89.9391 34.3294 91.1551Z" fill="black"/>
  <path d="M26.3804 54.2127C26.4277 54.2912 26.5043 54.3477 26.5933 54.3698C26.6823 54.3918 26.7764 54.3776 26.8549 54.3302C26.9334 54.2829 26.9899 54.2063 27.012 54.1173C27.034 54.0283 27.0198 53.9342 26.9724 53.8557C26.9724 53.8557 26.9724 53.8557 26.9724 53.8557C26.8132 53.5891 26.6803 53.2637 26.5618 52.9391C25.4238 49.4499 24.8938 45.7059 24.2751 42.0336L24.2667 41.9954C24.2659 41.9922 24.265 41.989 24.2641 41.9859C23.7594 40.1722 23.3596 38.3224 23.1236 36.4626L23.1162 36.4225C23.1159 36.4213 23.1156 36.4202 23.1153 36.419C22.897 35.5664 22.5022 34.8451 22.1512 34.1152C21.9914 33.7923 21.8317 33.4732 21.6705 33.1509C21.6295 33.0689 21.5576 33.0065 21.4707 32.9775C21.3837 32.9485 21.2887 32.9553 21.2067 32.9963C21.1247 33.0373 21.0624 33.1092 21.0334 33.1961C21.0044 33.2831 21.0111 33.3781 21.0521 33.4601C21.0521 33.4601 21.0521 33.4601 21.0521 33.4601C21.2133 33.7824 21.3728 34.1011 21.5315 34.4217C21.8814 35.1439 22.2635 35.865 22.4441 36.5848C22.4443 36.5858 22.4446 36.5868 22.4448 36.5878L22.4374 36.5477C22.6795 38.4541 23.0853 40.328 23.5982 42.172C23.5991 42.1753 23.6 42.1785 23.6009 42.1818L23.5925 42.1436C24.2169 45.8347 24.7291 49.5415 25.912 53.1751C26.0397 53.5224 26.1773 53.8705 26.3804 54.2127Z" fill="black"/>
  <path d="M61.2243 0.524266C61.1289 0.524266 61.0375 0.562129 60.9701 0.629525C60.9027 0.696921 60.8649 0.788329 60.8649 0.883641C60.8649 0.978953 60.9027 1.07036 60.9701 1.13776C61.0375 1.20515 61.1289 1.24302 61.2243 1.24302C61.3793 1.24302 61.5343 1.24302 61.6892 1.24302C61.7668 1.24302 61.8444 1.24302 61.9218 1.24302C61.9603 1.24302 61.9998 1.24302 62.0379 1.24302C62.0481 1.24302 62.0576 1.24302 62.0671 1.24302C62.0722 1.24302 62.0763 1.24302 62.0818 1.24302C62.0831 1.24302 62.0841 1.24302 62.0851 1.24302C62.086 1.24302 62.0868 1.24302 62.0872 1.24302C62.0875 1.24302 62.0877 1.24302 62.0878 1.24302C62.0878 1.24302 62.0879 1.24302 62.0879 1.24302C62.0879 1.24302 62.0879 1.24302 62.0879 1.24302C62.0879 1.24302 62.0879 1.24302 62.0879 1.24302C62.0879 1.24302 62.0879 1.24302 62.0879 1.24302C62.0879 1.24302 62.0879 1.24302 62.0879 1.24302C62.0879 1.24302 62.0879 1.24302 62.0879 1.24302C62.0879 1.24302 62.0879 1.24302 62.0879 1.24302C62.0879 1.24302 62.0879 1.24302 62.0879 1.24302C62.0879 -0.274345 62.0879 0.76385 62.0879 0.524266C62.0879 0.524266 62.0879 0.524266 62.0879 0.524266C62.0879 0.524266 62.0879 0.524266 62.0879 0.524266C62.0879 0.524266 62.0879 0.524266 62.0879 0.524266C62.0879 0.524266 62.0879 0.524266 62.0879 0.524266C62.0879 0.524266 62.0879 0.524266 62.0879 0.524266C62.0879 0.524266 62.0879 0.524266 62.0879 0.524266C62.0879 0.524266 62.0879 0.524266 62.0878 0.524266C62.0877 0.524266 62.0874 0.524266 62.087 0.524266C62.0856 0.524266 62.0816 0.524266 62.08 0.524266C62.0607 0.524266 62.0419 0.524266 62.0215 0.524266C61.9894 0.524266 61.9572 0.524188 61.9249 0.524034C60.4513 0.514368 58.963 0.364528 57.4687 0.239608C55.0061 0.0274332 52.4988 -0.129434 49.9997 0.152055C49.9535 0.157216 49.9073 0.162526 49.861 0.167986C45.9736 0.46507 42.5286 2.72086 39.0027 3.42596C38.9322 3.43492 38.8618 3.44263 38.7915 3.44902C37.5528 3.57583 36.4578 2.9168 35.0409 2.50446C34.9501 2.4867 34.8516 2.47276 34.7432 2.47223C34.6713 2.47361 34.6018 2.47421 34.4905 2.51834C34.3783 2.55438 34.2298 2.71502 34.2093 2.84902C34.1689 3.10775 34.2384 3.19032 34.2716 3.29153C34.3503 3.47101 34.4369 3.6042 34.5227 3.7389C34.6955 4.00444 34.8697 4.24713 35.0348 4.49383C35.3536 4.972 35.6964 5.51979 35.7087 5.92663C35.709 5.97815 35.7075 6.02736 35.7044 6.07429C35.7087 6.96732 34.7953 7.24962 33.8358 7.18571C32.8814 7.13565 31.9071 6.89191 30.9488 6.61712C29.0231 6.0659 27.1737 5.27928 25.1843 4.70318C24.9101 4.63085 24.6341 4.52051 24.3435 4.40224C24.2384 4.35998 24.1329 4.31656 24.0111 4.27489C23.9492 4.2543 23.8855 4.23322 23.7963 4.21693C23.7502 4.20962 23.7001 4.20065 23.6149 4.20808C23.541 4.21203 23.3598 4.2619 23.2693 4.42431C23.1636 4.6444 23.22 4.73448 23.2278 4.80555C23.2451 4.87558 23.2647 4.92524 23.2845 4.97328C23.3241 5.06684 23.3652 5.14511 23.406 5.22074C23.488 5.37112 23.5712 5.51003 23.6522 5.64739C23.7926 5.8847 23.9287 6.11692 24.0461 6.34974C24.1796 6.61372 24.2853 6.8801 24.2931 7.09999C24.3122 7.39938 24.113 7.63023 23.7641 7.82487C23.4989 7.97273 23.2415 8.10792 22.9716 8.24061C19.1323 10.3291 14.7707 9.60942 10.3683 9.55892C10.3615 9.55926 10.3552 9.55959 10.3483 9.56005C10.3466 9.56017 10.3374 9.56075 10.3268 9.56188C10.3074 9.56574 10.3591 9.5526 10.2596 9.57521C10.2436 9.58054 10.2234 9.58495 10.1783 9.61065C10.1463 9.6354 10.0086 9.69668 10.0013 9.93154C10.0228 10.1628 10.1539 10.2116 10.1858 10.2362C10.2297 10.2599 10.2495 10.264 10.2652 10.2689C10.2796 10.2729 10.2865 10.2742 10.2936 10.2757C10.3068 10.2782 10.3141 10.2791 10.3202 10.2799C10.3738 10.2849 10.3636 10.2828 10.3786 10.2837C10.3994 10.2843 10.4167 10.2847 10.4349 10.2851C10.47 10.2859 10.5067 10.2866 10.5403 10.2873C10.6101 10.2887 10.6792 10.2902 10.7484 10.292C10.8871 10.2954 11.025 10.2998 11.1625 10.3053C11.4773 10.318 11.7914 10.3372 12.0989 10.3683C12.3947 10.3992 12.7263 10.4414 12.9294 10.5155C12.9628 10.5152 12.9952 10.5936 12.8931 10.4435C12.8356 10.3442 12.8905 10.1834 12.9121 10.1697C12.9345 10.1405 12.9329 10.1478 12.9238 10.1533C12.878 10.187 12.7591 10.2404 12.648 10.281C12.3529 10.3903 12.0775 10.4918 11.7826 10.5998C8.25441 11.9948 4.54604 12.7986 1.14978 14.8342C0.96521 14.9604 0.777683 15.0888 0.589208 15.2423C0.446254 15.3612 0.300085 15.4883 0.167535 15.6817C0.0341351 15.8588 -0.06916 16.2194 0.0574912 16.4968C0.312155 17.0106 0.672711 17.1401 0.987713 17.3217L1.05993 17.3493C1.26571 17.4038 1.46904 17.4574 1.67004 17.5099C8.54229 19.4414 15.7566 20.2767 22.8827 20.2017C23.5107 20.2056 24.1393 20.2073 24.7787 20.2077L24.8098 20.2064C24.8365 20.2041 24.863 20.2018 24.8893 20.1995C26.0717 20.0984 27.3586 19.8811 28.4343 19.2815C28.5209 19.2382 28.5868 19.1622 28.6174 19.0703C28.6481 18.9784 28.6409 18.8781 28.5976 18.7915C28.5543 18.7049 28.4783 18.639 28.3864 18.6083C28.2945 18.5777 28.1942 18.5848 28.1076 18.6282C28.1076 18.6282 28.1076 18.6282 28.1076 18.6282C27.0979 19.187 25.9925 19.3672 24.8249 19.4718C24.7995 19.4741 24.7739 19.4763 24.7481 19.4785L24.7791 19.4772C24.1408 19.4769 23.5135 19.4751 22.8873 19.4712C15.7649 19.542 8.71145 18.7257 1.85478 16.8032C1.65463 16.7509 1.45212 16.6975 1.24713 16.6432L1.31935 16.6708C1.05099 16.54 0.768285 16.3325 0.735348 16.2246C0.724994 16.1876 0.71671 16.183 0.774234 16.0885C0.830798 16.0034 0.935607 15.9023 1.05175 15.8076C1.20559 15.6821 1.38097 15.5608 1.56123 15.4377C4.68668 13.5501 8.52111 12.6674 12.034 11.2857C12.3296 11.1774 12.6058 11.0756 12.9018 10.966C13.0425 10.9112 13.1736 10.8666 13.3497 10.7468C13.3945 10.7134 13.4456 10.6769 13.5069 10.5937C13.5677 10.5279 13.6428 10.2925 13.554 10.1323C13.3867 9.86231 13.2822 9.88555 13.1953 9.83518C12.803 9.69905 12.4989 9.6824 12.1699 9.64558C11.841 9.61462 11.5156 9.5972 11.1912 9.58416C11.0496 9.57854 10.9081 9.57413 10.7664 9.57061C10.6958 9.56885 10.6252 9.56732 10.5549 9.56591C10.5211 9.56523 10.4842 9.56452 10.4507 9.5638C10.4336 9.56342 10.4166 9.56304 10.4019 9.56257C10.3999 9.56285 10.372 9.5604 10.4077 9.56372C10.4128 9.56436 10.4192 9.56513 10.4319 9.56755C10.4386 9.56892 10.4452 9.57019 10.4594 9.57407C10.4748 9.57892 10.4944 9.58295 10.5382 9.60662C10.5699 9.63109 10.7009 9.67979 10.7225 9.91101C10.7151 10.1458 10.5775 10.207 10.5456 10.2317C10.5007 10.2573 10.4807 10.2616 10.4649 10.2669C10.3699 10.2885 10.4209 10.2757 10.4039 10.2792C10.3964 10.28 10.3961 10.2799 10.3963 10.2799C10.3966 10.2799 10.3993 10.2797 10.4033 10.2795C14.5532 10.3207 19.2981 11.0741 23.2885 8.88571C23.5702 8.74723 23.8385 8.60634 24.1143 8.45252C24.5446 8.23597 25.0648 7.70531 25.0113 7.07209C24.9899 6.65513 24.8352 6.32607 24.688 6.02639C24.5564 5.76541 24.412 5.52017 24.2709 5.28159C24.1899 5.14432 24.1085 5.00793 24.0378 4.87794C24.0029 4.81362 23.9698 4.74874 23.9474 4.69538C23.9363 4.66918 23.9282 4.64488 23.9265 4.6372C23.9169 4.63234 23.9585 4.63465 23.8915 4.78404C23.829 4.89608 23.706 4.92419 23.6869 4.92321C23.6578 4.92529 23.6633 4.92274 23.6722 4.92488C23.6928 4.92828 23.7366 4.94058 23.7803 4.95556C23.8699 4.98609 23.9712 5.02708 24.0739 5.06853C24.3628 5.18573 24.6691 5.31032 25.0008 5.3981C26.8875 5.94288 28.7861 6.74469 30.7484 7.30737C31.7345 7.58863 32.7349 7.84594 33.8031 7.90371C34.3353 7.92316 34.9066 7.90654 35.4629 7.64048C36.0462 7.38719 36.412 6.69278 36.4216 6.12155C36.4258 6.05693 36.4278 5.99086 36.4275 5.92331C36.3669 5.10682 35.9579 4.61771 35.6316 4.09331C35.4602 3.83746 35.2838 3.59091 35.1262 3.34845C35.0491 3.22931 34.9733 3.10433 34.9328 3.00985C34.9084 2.97011 34.9204 2.90358 34.9092 3.01282C34.9039 3.07341 34.8107 3.17262 34.7694 3.18079C34.7285 3.19632 34.7288 3.18992 34.7408 3.19098C34.785 3.19102 34.8419 3.19774 34.902 3.20966C36.0278 3.52294 37.3719 4.31492 38.8565 4.16482C38.9356 4.15763 39.0146 4.14899 39.0934 4.13897C42.9981 3.33134 46.1583 1.17023 49.9454 0.881775C49.9901 0.876492 50.0348 0.871353 50.0795 0.866358C52.4984 0.593584 54.9531 0.743881 57.4079 0.955783C58.8983 1.08005 60.3974 1.23236 61.9214 1.24278C61.9549 1.24294 61.9882 1.24302 62.0215 1.24302C62.0419 1.24302 62.0607 1.24302 62.08 1.24302C62.0816 1.24302 62.0856 1.24302 62.087 1.24302C62.0874 1.24302 62.0877 1.24302 62.0878 1.24302C62.0879 1.24302 62.0879 1.24302 62.0879 1.24302C62.0879 1.24302 62.0879 1.24302 62.0879 1.24302C62.0879 1.24302 62.0879 1.24302 62.0879 1.24302C62.0879 1.24302 62.0879 1.24302 62.0879 1.24302C62.0879 1.24302 62.0879 1.24302 62.0879 1.24302C62.0879 1.24302 62.0879 1.24302 62.0879 1.24302C62.0879 1.24302 62.0879 1.24302 62.0879 1.24302C62.0879 1.00343 62.0879 2.04163 62.0879 0.524266C62.0879 0.524266 62.0879 0.524266 62.0879 0.524266C62.0879 0.524266 62.0879 0.524266 62.0879 0.524266C62.0879 0.524266 62.0879 0.524266 62.0879 0.524266C62.0879 0.524266 62.0879 0.524266 62.0879 0.524266C62.0879 0.524266 62.0879 0.524266 62.0879 0.524266C62.0879 0.524266 62.0879 0.524266 62.0879 0.524266C62.0879 0.524266 62.0879 0.524266 62.0879 0.524266C62.0879 0.524266 62.0878 0.524266 62.0878 0.524266C62.0877 0.524266 62.0875 0.524266 62.0872 0.524266C62.0868 0.524266 62.086 0.524266 62.0851 0.524266C62.0841 0.524266 62.0831 0.524266 62.0818 0.524266C62.0763 0.524266 62.0722 0.524266 62.0671 0.524266C62.0576 0.524266 62.0481 0.524266 62.0379 0.524266C61.9998 0.524266 61.9603 0.524266 61.9218 0.524266C61.8444 0.524266 61.7668 0.524266 61.6892 0.524266C61.5343 0.524266 61.3793 0.524266 61.2243 0.524266Z" fill="black"/>
  <path d="M77.3952 7.10886C77.3547 7.18994 77.348 7.2838 77.3767 7.3698C77.4054 7.4558 77.467 7.52689 77.5481 7.56743C77.6292 7.60797 77.723 7.61464 77.809 7.58597C77.895 7.5573 77.9661 7.49565 78.0067 7.41457C78.0067 7.41457 78.0067 7.41457 78.0067 7.41457C78.1383 7.14932 78.3648 6.9266 78.6415 6.7545C79.1827 6.42016 79.8677 6.26492 80.552 6.18597C80.5551 6.18562 80.5582 6.18527 80.5613 6.18492C82.7408 6.03886 84.6578 7.871 86.2051 9.51453C86.2051 9.51457 86.2051 9.5146 86.2052 9.51464L86.1597 9.4518C87.701 12.153 88.6413 15.1496 88.9619 18.2487C88.9626 18.2554 88.9634 18.262 88.9642 18.2686L88.9631 18.2581C89.0026 18.7035 89.0185 19.1559 89.0993 19.6388C89.1702 20.021 89.2862 20.513 89.7295 20.8294C89.8038 20.8813 89.8957 20.9017 89.985 20.8859C90.0742 20.8702 90.1536 20.8196 90.2056 20.7454C90.2576 20.6711 90.2779 20.5792 90.2622 20.49C90.2464 20.4007 90.1958 20.3213 90.1216 20.2693C90.1216 20.2693 90.1216 20.2693 90.1216 20.2693C89.9382 20.1494 89.8293 19.8581 89.7728 19.5213C89.703 19.1108 89.684 18.6572 89.6443 18.2006L89.6432 18.1901C89.6425 18.1834 89.6417 18.1766 89.6409 18.1699C89.3162 15.0094 88.3379 11.8844 86.7553 9.11635L86.7098 9.05352C86.7098 9.05349 86.7098 9.05345 86.7097 9.05342C85.0914 7.38081 83.2107 5.37703 80.4852 5.50558C80.4818 5.50596 80.4785 5.50633 80.4751 5.50671C79.7345 5.59513 78.9728 5.751 78.2793 6.17473C77.9264 6.39391 77.5956 6.70556 77.3952 7.10886Z" fill="black"/>
  <path d="M86.205 29.4206C86.3024 29.4206 86.3958 29.3819 86.4647 29.3131C86.5335 29.2442 86.5722 29.1508 86.5722 29.0534C86.5722 28.956 86.5335 28.8626 86.4647 28.7938C86.3958 28.7249 86.3024 28.6862 86.205 28.6862C85.9116 28.6926 85.5818 28.6643 85.5349 28.6102C85.5237 28.598 85.5167 28.606 85.5118 28.5217C85.5118 28.5212 85.5118 28.5206 85.5118 28.5201C85.5221 24.7687 89.8337 22.6759 93.2355 21.9769L93.1153 21.9715C93.1488 21.9786 93.1829 21.987 93.2168 21.9964C93.9521 22.2128 94.6418 22.8147 95.1036 23.4893C95.1142 23.5049 95.1246 23.5206 95.1349 23.5364C95.4296 23.9854 95.6175 24.503 95.7531 25.0541C95.8244 25.3405 95.8835 25.6358 95.9436 25.9364C95.9627 26.0319 96.0189 26.1159 96.1 26.1699C96.181 26.2239 96.2802 26.2436 96.3757 26.2245C96.4711 26.2054 96.5551 26.1491 96.6092 26.0681C96.6632 25.987 96.6828 25.8879 96.6637 25.7924C96.6637 25.7924 96.6637 25.7924 96.6637 25.7924C96.6035 25.4918 96.5425 25.1856 96.4658 24.8769C96.3202 24.2846 96.1044 23.6747 95.7499 23.1352C95.7376 23.1163 95.7251 23.0974 95.7124 23.0786C95.1521 22.2786 94.418 21.5978 93.4126 21.2886C93.3653 21.2755 93.3166 21.2635 93.268 21.2532L93.1478 21.2478C89.4841 22.0338 84.9109 24.059 84.7775 28.531C84.7775 28.5316 84.7775 28.5322 84.7775 28.5328C84.7724 28.7314 84.8669 29.0364 85.09 29.1945C85.5638 29.4935 85.8958 29.4005 86.205 29.4206Z" fill="black"/>
  <path d="M96.6618 25.8787C96.6656 25.7837 96.6315 25.6911 96.567 25.6213C96.5025 25.5515 96.4129 25.5101 96.318 25.5063C96.223 25.5025 96.1304 25.5366 96.0605 25.601C95.9907 25.6655 95.9493 25.7551 95.9455 25.8501C95.9455 25.8501 95.9455 25.8501 95.9455 25.8501C95.932 26.1891 95.9183 26.5135 95.9032 26.8504C95.5652 31.3446 95.7965 36.5727 93.8935 40.1811L93.9547 40.1469C93.9502 40.1489 93.9458 40.1508 93.9413 40.1527C93.4018 40.3863 92.7625 40.3772 92.1477 40.2241C92.145 40.2234 92.1424 40.2228 92.1397 40.2221C91.5458 40.0893 91.0956 39.7593 90.7313 39.262C90.5487 39.0165 90.3892 38.744 90.2443 38.4588C90.2014 38.3742 90.1267 38.3102 90.0366 38.2808C89.9465 38.2513 89.8483 38.2589 89.7638 38.3018C89.6793 38.3447 89.6152 38.4194 89.5858 38.5095C89.5564 38.5996 89.5639 38.6977 89.6068 38.7823C89.6068 38.7823 89.6068 38.7823 89.6068 38.7823C89.7651 39.0935 89.9423 39.3988 90.1579 39.6889C90.5656 40.2694 91.2549 40.7699 91.9674 40.9159C91.9705 40.9167 91.9736 40.9174 91.9767 40.9182C92.6857 41.0945 93.4929 41.1262 94.2232 40.8117C94.2292 40.8092 94.2351 40.8066 94.2411 40.804L94.3023 40.7699C96.8244 36.2368 96.1868 31.5145 96.6193 26.8824C96.6344 26.5443 96.6481 26.2188 96.6618 25.8787Z" fill="black"/>
  <path d="M65.3685 15.5483C65.4518 15.5769 65.543 15.5713 65.6221 15.5326C65.7012 15.4939 65.7617 15.4254 65.7903 15.3421C65.8189 15.2589 65.8133 15.1676 65.7746 15.0885C65.736 15.0094 65.6674 14.9489 65.5842 14.9203C65.5842 14.9203 65.5842 14.9203 65.5842 14.9203C64.8331 14.7521 64.3675 15.0074 63.8454 15.1533C61.5796 15.9658 59.4596 16.9791 57.1849 17.4773L57.2443 17.4697C57.2148 17.4708 57.1853 17.4718 57.1559 17.4729C50.8701 17.6962 44.5954 18.0933 38.3266 18.0036C38.33 18.0037 38.3255 18.0035 38.3209 18.0033C37.6159 17.9749 36.9136 17.9362 36.2248 17.8544C35.7166 17.7954 35.2327 17.7002 34.7295 17.5697C34.6441 17.5484 34.5537 17.5618 34.4782 17.6071C34.4026 17.6524 34.3482 17.7259 34.3269 17.8113C34.3055 17.8967 34.319 17.9871 34.3643 18.0627C34.4096 18.1382 34.483 18.1926 34.5685 18.2139C34.5685 18.2139 34.5685 18.2139 34.5685 18.2139C35.0746 18.3458 35.6182 18.4532 36.1455 18.5138C36.8663 18.5992 37.5801 18.6379 38.2948 18.6669C38.2995 18.667 38.3041 18.6672 38.3088 18.6674C44.6222 18.7575 50.9031 18.3593 57.1805 18.1365C57.21 18.1355 57.2394 18.1344 57.2689 18.1333L57.3283 18.1257C59.6889 17.6078 61.8702 16.5645 64.0567 15.7828C64.5174 15.6287 65.0904 15.4645 65.3685 15.5483Z" fill="black"/>
  <path d="M68.8726 2.2039C68.7999 2.14894 68.7083 2.12512 68.618 2.13768C68.5277 2.15024 68.4461 2.19816 68.3911 2.2709C68.3361 2.34363 68.3123 2.43522 68.3249 2.52552C68.3374 2.61582 68.3853 2.69743 68.4581 2.75239C68.4581 2.75239 68.4581 2.75239 68.4581 2.75239C68.7267 2.94967 68.9765 3.1129 69.2297 3.29142C71.1528 4.6398 72.9968 6.25426 73.9278 8.35989L73.9116 8.13428C73.9099 8.14063 73.9081 8.14698 73.9064 8.15333C73.268 10.5027 71.8649 12.7141 69.8437 14.0381C69.8369 14.0424 69.8301 14.0467 69.8234 14.051L69.888 14.019C69.3439 14.221 68.6843 14.3062 68.28 14.082C68.0943 13.9775 67.9852 13.8119 67.94 13.5756C67.923 13.486 67.8711 13.4069 67.7958 13.3556C67.7204 13.3043 67.6277 13.285 67.5382 13.3021C67.4486 13.3191 67.3695 13.371 67.3182 13.4463C67.2669 13.5217 67.2476 13.6144 67.2646 13.7039C67.2646 13.7039 67.2646 13.7039 67.2646 13.7039C67.3256 14.0793 67.5773 14.4874 67.9422 14.6808C68.7169 15.0706 69.4678 14.8885 70.1268 14.6637L70.1914 14.6317C70.1989 14.6269 70.2064 14.6222 70.2139 14.6174C72.4258 13.163 73.8877 10.8253 74.5699 8.33336C74.5718 8.32664 74.5736 8.31991 74.5754 8.31318L74.6066 8.19754L74.5591 8.08757C73.5285 5.77234 71.5912 4.11358 69.6237 2.72808C69.37 2.54936 69.0984 2.37007 68.8726 2.2039Z" fill="black"/>
  <path d="M80.7362 21.9198C80.8178 21.9606 80.9122 21.9673 80.9987 21.9385C81.0852 21.9096 81.1567 21.8476 81.1974 21.7661C81.2382 21.6845 81.2449 21.5901 81.2161 21.5037C81.1873 21.4172 81.1252 21.3457 81.0437 21.3049C81.0437 21.3049 81.0437 21.3049 81.0437 21.3049C80.8567 21.2113 80.6703 21.1054 80.4872 20.9934C79.6447 20.4741 78.8588 19.8369 78.1207 19.1545L78.1725 19.2151C78.1724 19.2151 78.1724 19.2151 78.1724 19.2151C77.3165 17.9616 76.7994 16.4957 76.8909 14.9992C76.8909 14.9992 76.8909 14.9992 76.8909 14.9992L76.8797 15.0705C77.2292 13.8111 78.1449 12.7087 79.0818 11.6975C79.2315 11.5381 79.3834 11.3814 79.5392 11.2246C79.6035 11.1599 79.6395 11.0724 79.6392 10.9812C79.6389 10.8901 79.6024 10.8027 79.5378 10.7385C79.4731 10.6742 79.3856 10.6382 79.2944 10.6385C79.2033 10.6388 79.1159 10.6753 79.0517 10.7399C79.0517 10.7399 79.0517 10.7399 79.0517 10.7399C78.8917 10.9009 78.7354 11.0622 78.5807 11.2267C77.6166 12.2764 76.6372 13.408 76.2155 14.8931L76.2043 14.9644C76.2043 14.9644 76.2043 14.9644 76.2043 14.9644C76.0995 16.6202 76.6901 18.2701 77.6014 19.598C77.6014 19.598 77.6015 19.5981 77.6015 19.5981L77.6533 19.6587C78.4173 20.3644 79.2283 21.0245 80.1283 21.5798C80.3246 21.6998 80.5262 21.8147 80.7362 21.9198Z" fill="black"/>
  <path d="M40.1211 26.7148C40.2057 26.6731 40.2702 26.5996 40.3006 26.5103C40.3309 26.4211 40.3246 26.3234 40.2829 26.2388C40.2413 26.1543 40.1677 26.0897 40.0785 26.0593C39.9892 26.029 39.8916 26.0353 39.807 26.077C39.807 26.077 39.807 26.077 39.807 26.077C39.5157 26.2348 39.3525 26.3833 39.1503 26.5422C37.0292 28.3449 35.0027 30.1756 32.7727 31.7677L32.809 31.7448C32.8072 31.7458 32.8055 31.7468 32.8037 31.7478C31.926 32.2266 30.9618 32.5662 29.9832 32.761C29.9824 32.7612 29.9816 32.7613 29.9809 32.7615C29.4488 32.8668 28.9367 32.9091 28.5026 32.7519C28.315 32.6861 28.1381 32.587 27.9697 32.4608C27.8871 32.3991 27.7836 32.373 27.6817 32.3886C27.5798 32.4041 27.4878 32.4601 27.4263 32.5437C27.3648 32.6274 27.3388 32.7318 27.3544 32.8337C27.3699 32.9356 27.4257 33.0266 27.5092 33.0871C27.7315 33.2487 27.983 33.3867 28.2552 33.4772C28.9006 33.6951 29.5599 33.6064 30.1279 33.489C30.1287 33.4888 30.1296 33.4886 30.1304 33.4885C31.1867 33.2646 32.1981 32.8872 33.1453 32.3712C33.1473 32.3702 33.1492 32.3691 33.1511 32.368L33.1875 32.3451C35.4482 30.7316 37.5225 28.8584 39.5985 27.094C39.7783 26.9488 39.9822 26.7873 40.1211 26.7148Z" fill="black"/>
  <path d="M54.4763 26.1109C54.4008 26.068 54.3112 26.0569 54.2275 26.0801C54.1437 26.1032 54.0726 26.1587 54.0297 26.2343C53.9868 26.3099 53.9758 26.3994 53.9989 26.4831C54.022 26.5669 54.0775 26.638 54.1531 26.6809C54.1531 26.6809 54.1531 26.6809 54.1531 26.6809C54.4393 26.8477 54.7409 27.0846 55.0357 27.3146C57.0901 28.9084 59.0517 30.8158 61.7596 31.5865L61.7981 31.5929C61.8121 31.5944 61.8261 31.5959 61.8401 31.5974C65.755 31.9539 69.8077 31.9488 73.5807 30.4496C73.5808 30.4495 73.581 30.4494 73.5812 30.4493L73.5981 30.4414C73.8405 30.3201 74.0863 30.1979 74.333 30.0623C74.6744 29.8534 75.0385 29.721 75.3593 29.2207C75.4037 29.1369 75.4129 29.0389 75.3851 28.9483C75.3572 28.8577 75.2944 28.7819 75.2107 28.7375C75.1269 28.6932 75.0289 28.6839 74.9383 28.7118C74.8477 28.7397 74.7719 28.8024 74.7276 28.8862C74.7276 28.8862 74.7276 28.8862 74.7276 28.8862C74.6466 29.0409 74.295 29.2696 73.9882 29.4361C73.7601 29.5615 73.5206 29.6809 73.2784 29.8021L73.2953 29.7942C73.2952 29.7942 73.295 29.7943 73.2948 29.7944C69.7664 31.206 65.7353 31.3023 61.9087 30.9457C61.895 30.9443 61.8813 30.9428 61.8676 30.9414L61.9061 30.9478C59.4987 30.2762 57.4952 28.4097 55.4408 26.7996C55.1349 26.5622 54.8422 26.3257 54.4763 26.1109Z" fill="black"/>
  <path d="M44.9893 21.8541C45.0534 21.79 45.0894 21.703 45.0894 21.6124C45.0894 21.5217 45.0534 21.4348 44.9893 21.3707C44.9252 21.3066 44.8382 21.2706 44.7476 21.2706C44.6569 21.2706 44.57 21.3066 44.5059 21.3707C44.5059 21.3707 44.5059 21.3707 44.5059 21.3707C44.4172 21.4582 44.2791 21.5995 44.2036 21.7832C44.0873 22.066 44.1115 22.3263 44.1444 22.5463C44.1447 22.548 44.145 22.5498 44.1452 22.5516C44.3404 23.4653 44.6334 24.2038 44.7614 25.0206C44.7615 25.0215 44.7617 25.0223 44.7618 25.0232C44.9387 26.2186 45.0255 27.5348 45.3763 28.7723C45.4102 28.8987 45.4455 29.0239 45.4829 29.1504C45.5086 29.2373 45.5678 29.3105 45.6474 29.3538C45.7271 29.397 45.8207 29.4069 45.9076 29.3812C45.9945 29.3555 46.0677 29.2963 46.111 29.2166C46.1542 29.137 46.1641 29.0434 46.1384 28.9565C46.1384 28.9565 46.1384 28.9565 46.1384 28.9565C46.1026 28.8356 46.0689 28.716 46.0366 28.5953C45.7007 27.4066 45.6251 26.1985 45.4358 24.9091C45.4357 24.9082 45.4355 24.9073 45.4354 24.9064C45.2996 24.0432 44.9762 23.1863 44.8199 22.4416C44.8197 22.4403 44.8195 22.439 44.8193 22.4377C44.7922 22.2756 44.7965 22.13 44.833 22.0501C44.8558 21.9955 44.8966 21.9452 44.9893 21.8541Z" fill="black"/>
  <path d="M50.5941 21.8001C50.503 21.8001 50.4155 21.8363 50.3511 21.9008C50.2866 21.9653 50.2504 22.0527 50.2504 22.1439C50.2504 22.235 50.2866 22.3225 50.3511 22.3869C50.4155 22.4514 50.503 22.4876 50.5941 22.4876C50.6682 22.4818 50.6288 22.5133 50.5376 22.4357C50.4714 22.3563 50.5014 22.3616 50.4985 22.3954C50.5052 22.5017 50.4736 22.6909 50.4364 22.8597C50.435 22.8662 50.4335 22.8728 50.432 22.8795C50.1527 24.0254 49.7432 25.1941 49.386 26.3638C49.3849 26.3672 49.3839 26.3707 49.3828 26.3742C49.1023 27.2679 48.8594 28.2061 48.7188 29.1427C48.698 29.2737 48.6783 29.4047 48.6594 29.5359C48.6464 29.6262 48.6698 29.7179 48.7244 29.7909C48.779 29.8639 48.8604 29.9122 48.9506 29.9252C49.0409 29.9382 49.1326 29.9148 49.2056 29.8602C49.2786 29.8056 49.3269 29.7242 49.3399 29.634C49.3399 29.634 49.3399 29.634 49.3399 29.634C49.3584 29.5054 49.3776 29.3776 49.3978 29.2503C49.5354 28.3393 49.7617 27.4651 50.0398 26.5766C50.0409 26.5732 50.042 26.5697 50.043 26.5663C50.3985 25.3997 50.8027 24.2585 51.1031 23.029C51.1048 23.0215 51.1064 23.014 51.108 23.0066C51.1482 22.8072 51.1948 22.6216 51.1845 22.3499C51.1718 22.2548 51.1803 22.1211 51.0206 21.9464C50.8333 21.7726 50.6477 21.8061 50.5941 21.8001Z" fill="black"/>
  <path d="M29.4992 35.6373C29.4129 35.5935 29.3126 35.5857 29.2205 35.6158C29.1284 35.6459 29.0521 35.7113 29.0082 35.7977C28.9644 35.8841 28.9567 35.9843 28.9867 36.0764C29.0168 36.1685 29.0822 36.2448 29.1686 36.2887C29.1686 36.2887 29.1686 36.2887 29.1686 36.2887C29.7566 36.5201 30.1573 36.4597 30.6099 36.4732C32.8361 36.4146 34.9838 36.1187 37.1536 35.8848C37.1596 35.8841 37.1656 35.8834 37.1717 35.8827C38.3564 35.7665 39.6475 35.7586 40.7005 36.1226C40.7058 36.1247 40.711 36.1267 40.7162 36.1288C41.2416 36.3195 41.5167 36.7763 41.2725 37.06L41.4301 36.9429C41.4235 36.9454 41.417 36.948 41.4104 36.9505C38.6872 37.9739 35.7855 38.7695 32.9208 38.6123L32.9539 38.6162C32.9484 38.6153 32.9429 38.6144 32.9375 38.6135C32.2618 38.5096 31.8328 38.3024 31.7692 37.7214C31.718 37.3692 31.762 36.9618 31.8352 36.5598C31.8534 36.4604 31.8306 36.3581 31.7724 36.2755C31.7141 36.1929 31.6252 36.1367 31.5252 36.1193C31.4252 36.1019 31.3225 36.1248 31.2398 36.1829C31.1571 36.241 31.1011 36.3296 31.0847 36.4293C31.0847 36.4293 31.0847 36.4293 31.0847 36.4293C31.0142 36.8762 30.96 37.3346 31.0359 37.8364C31.0898 38.23 31.3099 38.7005 31.6971 38.95C32.0739 39.2011 32.464 39.2716 32.818 39.3341C32.8241 39.3351 32.8301 39.3361 32.8361 39.3371L32.8692 39.341C35.9379 39.5039 38.8807 38.6766 41.6722 37.6324C41.6789 37.6299 41.6856 37.6273 41.6923 37.6247L41.7874 37.5881L41.8499 37.5076C42.1509 37.1462 42.1598 36.5599 41.9187 36.1879C41.6873 35.8051 41.3297 35.589 40.987 35.4504C40.9799 35.4476 40.9728 35.4447 40.9656 35.442C39.6483 34.9976 38.3745 35.0407 37.0909 35.1568C37.0844 35.1575 37.0779 35.1582 37.0714 35.1589C34.9093 35.3929 32.7362 35.6876 30.6034 35.7428C30.2076 35.7464 29.7072 35.7306 29.4992 35.6373Z" fill="black"/>
  <path d="M58.4102 34.9C58.4102 34.8005 58.3707 34.7052 58.3004 34.6348C58.2301 34.5645 58.1347 34.525 58.0352 34.525C57.9358 34.525 57.8404 34.5645 57.7701 34.6348C57.6997 34.7052 57.6602 34.8005 57.6602 34.9C57.7032 35.2484 57.8758 35.2565 57.9199 35.2996C57.9805 35.3314 58.0317 35.3485 58.0723 35.3615C58.164 35.3896 58.2339 35.4035 58.3033 35.4168C58.4515 35.4441 58.5779 35.4597 58.7135 35.475C58.9802 35.5041 59.2382 35.5228 59.4996 35.5394C62.5399 35.6956 65.5526 35.7123 68.5704 35.8026C68.5845 35.8029 68.5986 35.8033 68.6127 35.8037C69.1252 35.8175 69.6591 35.9004 69.9778 36.1385C70.2887 36.3574 70.3118 36.7579 70.1164 37.1777C70.1123 37.1864 70.1081 37.1951 70.1039 37.2036C68.7627 39.7715 65.1257 39.1141 62.2286 39.6685C62.1975 39.6743 62.1664 39.6791 62.1349 39.6828C61.6123 39.7473 61.0379 39.5064 60.5854 39.1334C60.5659 39.1174 60.5467 39.1009 60.5278 39.0841C60.1028 38.7063 59.8326 38.1281 59.8294 37.5653C59.8292 37.5491 59.8293 37.533 59.8297 37.5171C59.8205 36.9828 60.246 36.5105 60.7454 36.0881C61.1199 35.7736 61.5328 35.4892 61.9582 35.2157C62.042 35.162 62.1009 35.0772 62.1221 34.9801C62.1434 34.8829 62.1251 34.7813 62.0715 34.6976C62.0178 34.6138 61.933 34.5549 61.8359 34.5336C61.7387 34.5124 61.6371 34.5306 61.5534 34.5843C61.5534 34.5843 61.5534 34.5843 61.5534 34.5843C61.1114 34.8688 60.6781 35.1656 60.262 35.5146C59.7337 35.9656 59.0849 36.6037 59.0799 37.5009C59.0794 37.5244 59.0792 37.5478 59.0794 37.5709C59.0888 38.3662 59.4441 39.1187 60.029 39.6442C60.0552 39.6676 60.082 39.6905 60.1092 39.7128C60.6736 40.173 61.4122 40.5189 62.2236 40.4276C62.2716 40.4218 62.3195 40.4145 62.3673 40.4055C65.0436 39.8074 68.9298 40.761 70.7772 37.534C70.7835 37.5214 70.7896 37.5085 70.7956 37.4956C71.0927 36.9499 71.0808 35.9735 70.4291 35.5395C69.8404 35.1234 69.2147 35.0805 68.633 35.054C68.6188 35.0536 68.6047 35.0532 68.5906 35.0528C65.5737 34.9628 62.538 34.9447 59.5466 34.7909C59.2922 34.7748 59.0418 34.7564 58.7958 34.7295C58.6717 34.7156 58.5565 34.7009 58.4413 34.6796C58.3888 34.6698 58.336 34.6581 58.2963 34.6457C58.2797 34.6408 58.2638 34.6335 58.2713 34.637C58.2625 34.6511 58.3692 34.6182 58.4102 34.9Z" fill="black"/>
  <path d="M48.0036 41.5542C48.0768 41.5365 48.14 41.4903 48.1793 41.426C48.2185 41.3616 48.2306 41.2843 48.2128 41.2111C48.195 41.1378 48.1489 41.0746 48.0846 41.0354C48.0202 40.9962 47.9429 40.9841 47.8697 41.0019C47.8697 41.0019 47.8697 41.0019 47.8697 41.0019C47.553 41.1014 47.4148 41.2441 47.2362 41.3835C45.6248 42.8899 44.4214 44.7346 43.8493 46.8729L43.8258 46.9715L43.8701 47.0626C43.8734 47.0695 43.8768 47.0764 43.8803 47.0833C44.316 47.8468 45.0555 48.1019 45.6981 48.3651C45.7033 48.3671 45.7086 48.3691 45.7139 48.3711C46.5684 48.7024 47.4772 48.8342 48.3534 48.9395C48.559 48.9637 48.7647 48.9859 48.9706 49.0067C49.0468 49.0144 49.123 48.9915 49.1824 48.9431C49.2418 48.8946 49.2795 48.8245 49.2872 48.7482C49.295 48.672 49.2721 48.5957 49.2236 48.5363C49.1751 48.477 49.105 48.4393 49.0288 48.4315C49.0288 48.4315 49.0288 48.4315 49.0288 48.4315C48.8254 48.411 48.6228 48.3891 48.421 48.3654C47.5549 48.2613 46.7058 48.1361 45.9169 47.8298C45.9119 47.8279 45.9069 47.826 45.9019 47.8241C45.2913 47.5911 44.6347 47.2972 44.3875 46.8269C44.3855 46.8228 44.3834 46.8187 44.3814 46.8145L44.4022 47.0043C44.9144 45.0455 46.1239 43.1909 47.6016 41.8188C47.7405 41.7 47.9254 41.5727 48.0036 41.5542Z" fill="black"/>
  <path d="M33.0545 92.5255C32.9727 92.5255 32.8942 92.558 32.8363 92.6159C32.7784 92.6737 32.7459 92.7522 32.7459 92.8341C32.7459 92.9159 32.7784 92.9944 32.8363 93.0523C32.8942 93.1102 32.9727 93.1427 33.0545 93.1427C32.9803 93.1503 32.8521 93.0815 32.8167 93.0101C32.7881 92.9626 32.7839 92.9316 32.7809 92.913C32.7774 92.8755 32.7803 92.8868 32.7791 92.8886C32.777 92.9044 32.7727 92.9242 32.764 92.9567C32.7494 93.0103 32.7254 93.0813 32.7029 93.1429C32.6538 93.2771 32.6009 93.4059 32.5419 93.5447C32.4273 93.8131 32.306 94.0784 32.1797 94.349C30.5482 97.7614 28.7708 101.134 27.045 104.517C27.0305 104.545 27.0163 104.573 27.0025 104.6C26.7834 105.049 26.5551 105.497 26.454 106.06C26.4336 106.203 26.4183 106.362 26.4669 106.552C26.5064 106.743 26.6964 106.962 26.8869 107.025C27.2618 107.151 27.5211 107.078 27.7684 107.055L27.7489 107.057C27.8039 107.054 27.8588 107.051 27.9135 107.049C29.8823 106.961 31.689 108.18 33.3833 109.287L33.3741 109.28C33.404 109.302 33.4342 109.324 33.4646 109.347C36.478 111.574 39.4771 113.847 42.564 115.994C43.0537 116.336 43.5453 116.675 44.039 117.012C44.1079 117.059 44.1927 117.076 44.2746 117.061C44.3565 117.045 44.429 116.998 44.4759 116.929C44.5229 116.86 44.5406 116.775 44.5251 116.693C44.5096 116.611 44.4621 116.539 44.3932 116.492C44.3932 116.492 44.3932 116.492 44.3932 116.492C43.9015 116.157 43.4118 115.819 42.9239 115.478C39.8466 113.337 36.8613 111.076 33.836 108.839C33.8053 108.817 33.7749 108.794 33.7448 108.772L33.7355 108.766C32.0145 107.654 30.1566 106.341 27.8903 106.421C27.8297 106.423 27.7691 106.426 27.7088 106.43L27.6892 106.432C27.4556 106.464 27.2094 106.482 27.1171 106.442C27.0767 106.421 27.0885 106.435 27.0697 106.388C27.0558 106.342 27.0547 106.249 27.0696 106.153C27.1356 105.751 27.345 105.297 27.5536 104.878C27.5668 104.852 27.5803 104.825 27.5941 104.798C29.321 101.413 31.0931 98.0522 32.7388 94.6103C32.867 94.3358 32.9904 94.0662 33.1097 93.7866C33.1714 93.6413 33.2271 93.5063 33.2828 93.3541C33.3085 93.2834 33.3371 93.2005 33.3593 93.1193C33.3731 93.0661 33.3807 93.042 33.3915 92.9654C33.3948 92.9248 33.401 92.9199 33.3925 92.8305C33.3867 92.7917 33.3776 92.745 33.3413 92.6849C33.2949 92.5956 33.1503 92.5179 33.0545 92.5255Z" fill="black"/>
  <path d="M36.9856 95.8125C36.9298 95.7567 36.854 95.7253 36.775 95.7253C36.696 95.7253 36.6203 95.7567 36.5644 95.8125C36.5085 95.8684 36.4772 95.9441 36.4772 96.0231C36.4772 96.1021 36.5085 96.1779 36.5644 96.2337C36.5644 96.2337 36.5644 96.2337 36.5644 96.2337C36.9473 96.6164 37.3371 96.9991 37.7266 97.3801C40.6853 100.288 43.7454 103.123 46.5708 106.116C46.6188 106.17 46.683 106.246 46.7224 106.296C49.4924 110.015 46.2054 114.467 45.1653 118.732L45.2749 118.547C45.2697 118.552 45.2646 118.555 45.259 118.558C45.1929 118.614 44.9121 118.547 44.7013 118.396C44.4804 118.247 44.2793 118.045 44.1086 117.82C44.0992 117.808 44.0899 117.795 44.0806 117.783C43.8416 117.457 43.6618 117.081 43.5482 116.689C43.4087 116.206 43.3708 115.695 43.4483 115.204C43.4606 115.125 43.4413 115.045 43.3946 114.981C43.3479 114.917 43.2777 114.874 43.1994 114.862C43.1211 114.85 43.0411 114.869 42.9771 114.916C42.913 114.963 42.8702 115.033 42.8579 115.111C42.7661 115.694 42.8116 116.293 42.9741 116.855C43.1067 117.312 43.3141 117.748 43.5991 118.137C43.6102 118.152 43.6214 118.167 43.6326 118.182C43.8372 118.449 44.0752 118.694 44.3695 118.893C44.6588 119.067 45.0358 119.316 45.5491 119.081C45.5827 119.062 45.6146 119.041 45.6448 119.017L45.7351 118.946L45.7544 118.832C46.6585 114.849 50.2629 110.174 47.1896 105.926C47.1405 105.864 47.0702 105.782 47.0188 105.723C44.1363 102.669 41.105 99.8661 38.1431 96.9541C37.7544 96.574 37.3655 96.1922 36.9856 95.8125Z" fill="black"/>
  <path d="M66.2972 103.626C66.34 103.69 66.4065 103.734 66.4822 103.75C66.5579 103.765 66.6365 103.749 66.7007 103.706C66.765 103.663 66.8095 103.597 66.8247 103.521C66.8398 103.446 66.8243 103.367 66.7814 103.303C66.7814 103.303 66.7814 103.303 66.7814 103.303C66.7195 103.21 66.6571 103.116 66.5907 103.021C66.557 102.972 66.523 102.924 66.4833 102.873C66.464 102.848 66.4417 102.82 66.4135 102.79C66.3964 102.772 66.3824 102.756 66.3472 102.728C66.3289 102.716 66.31 102.694 66.2319 102.669C66.1827 102.657 66.1149 102.639 66.0079 102.69C65.906 102.744 65.8734 102.827 65.862 102.857C65.8172 103.066 65.8564 103.042 65.856 103.089C65.8643 103.127 65.8715 103.152 65.8795 103.18C65.8954 103.234 65.9128 103.286 65.9288 103.332C65.9622 103.428 65.9991 103.525 66.0338 103.614C66.1061 103.799 66.1808 103.98 66.2557 104.159C66.259 104.167 66.2623 104.175 66.2657 104.183C67.3579 106.696 68.4634 109.192 69.9759 111.531C69.9837 111.543 69.9915 111.554 69.9993 111.565C70.2594 111.937 70.5379 112.301 70.9049 112.616C71.2501 112.929 71.8381 113.193 72.3698 113.037C72.6308 112.972 72.8482 112.859 73.0475 112.76C73.1166 112.726 73.1691 112.665 73.1935 112.592C73.2179 112.519 73.2122 112.439 73.1777 112.37C73.1432 112.301 73.0826 112.248 73.0094 112.224C72.9362 112.199 72.8563 112.205 72.7872 112.239C72.7872 112.239 72.7872 112.239 72.7872 112.239C72.5883 112.339 72.4042 112.429 72.2311 112.472C71.5765 112.666 70.9491 111.905 70.4779 111.234C70.4706 111.223 70.4632 111.213 70.4559 111.202C69.0027 108.958 67.8786 106.439 66.8023 103.957C66.799 103.95 66.7957 103.942 66.7924 103.934C66.7187 103.758 66.6454 103.58 66.5761 103.402C66.5429 103.317 66.5079 103.225 66.4783 103.14C66.4643 103.1 66.4494 103.055 66.4382 103.017C66.4327 102.998 66.4281 102.981 66.4251 102.967C66.4169 102.972 66.4418 102.892 66.4091 103.056C66.3996 103.081 66.371 103.156 66.2753 103.207C66.175 103.255 66.1127 103.238 66.0713 103.228C66.0058 103.207 66.0005 103.194 65.992 103.189C65.9788 103.179 65.9833 103.181 65.9869 103.186C65.9947 103.194 66.01 103.213 66.0235 103.23C66.0522 103.267 66.0828 103.31 66.1133 103.354C66.174 103.441 66.2353 103.533 66.2972 103.626Z" fill="black"/>
  <path d="M69.0057 102.713C68.9475 102.764 68.9118 102.836 68.9065 102.913C68.9012 102.99 68.9267 103.066 68.9774 103.124C69.0281 103.182 69.0999 103.218 69.1769 103.223C69.2539 103.228 69.3298 103.203 69.388 103.152C69.388 103.152 69.388 103.152 69.388 103.152C69.893 102.712 70.4129 102.26 70.9256 101.816C77.462 96.3145 83.8181 90.2758 91.0589 85.9755C91.0935 85.9623 91.1264 85.9506 91.1575 85.9402C91.9863 85.659 92.7517 84.9424 92.9313 85.5999C92.9363 85.6105 92.9413 85.6215 92.9463 85.6328C93.4529 87.25 93.3359 89.21 93.4431 91.0425C93.4435 91.0516 93.4439 91.0607 93.4443 91.0697C93.4913 91.9956 93.5348 92.957 93.8674 93.8905C94.1089 94.5752 94.533 95.1922 95.0331 95.6956C95.0872 95.7507 95.161 95.7819 95.2381 95.7826C95.3153 95.7832 95.3896 95.7532 95.4446 95.6991C95.4997 95.645 95.531 95.5712 95.5316 95.4941C95.5323 95.4169 95.5022 95.3426 95.4481 95.2876C95.4481 95.2876 95.4481 95.2876 95.4481 95.2876C94.9905 94.8253 94.6279 94.2939 94.4149 93.6931C94.1212 92.8759 94.0703 91.9594 94.0257 91.0435C94.0253 91.0345 94.0249 91.0256 94.0245 91.0166C93.9048 89.1673 94.0789 87.3366 93.4792 85.3986C93.4721 85.3825 93.4648 85.3665 93.4574 85.3508C93.3564 85.1384 93.1804 84.8681 92.8509 84.7754C92.5274 84.693 92.2723 84.7957 92.0651 84.8774C91.6516 85.0561 91.3167 85.2752 90.9739 85.3879C90.9341 85.4011 90.8935 85.4157 90.8519 85.4315C83.3128 89.8953 77.1267 95.8493 70.5444 101.376C70.0313 101.821 69.511 102.273 69.0057 102.713Z" fill="black"/>
  <path d="M73.6519 118.143C73.5981 118.089 73.525 118.059 73.4489 118.059C73.3728 118.059 73.2997 118.089 73.2459 118.143C73.192 118.197 73.1618 118.27 73.1618 118.346C73.1618 118.422 73.192 118.496 73.2459 118.549C73.2459 118.549 73.2459 118.549 73.2459 118.549C73.3374 118.652 73.5122 118.655 73.5554 118.64C73.6096 118.629 73.6497 118.612 73.6863 118.593C73.7471 118.56 73.7784 118.536 73.8231 118.502C73.8894 118.45 73.9629 118.381 74.0118 118.333C74.1283 118.217 74.2286 118.106 74.3311 117.99C74.5374 117.753 74.7183 117.53 74.9096 117.289C78.8334 112.128 82.3915 106.736 86.0361 101.398C86.0501 101.378 86.0674 101.354 86.0846 101.33C87.8838 98.8104 89.7057 96.2955 91.8801 94.1212C91.8868 94.1144 91.8936 94.1077 91.9003 94.101C92.6826 93.316 93.5215 92.5636 94.288 91.7273C94.6978 91.2835 95.0874 90.8256 95.4644 90.3564C95.5121 90.297 95.5343 90.2212 95.526 90.1455C95.5178 90.0698 95.4798 90.0004 95.4205 89.9527C95.3611 89.905 95.2852 89.8829 95.2095 89.8911C95.1338 89.8994 95.0645 89.9373 95.0168 89.9967C95.0168 89.9967 95.0168 89.9967 95.0168 89.9967C94.6464 90.4577 94.2656 90.9051 93.866 91.3379C93.121 92.1512 92.2916 92.8954 91.4941 93.695C91.4873 93.7019 91.4805 93.7087 91.4736 93.7156C89.2543 95.9361 87.4223 98.4696 85.616 100.998C85.5987 101.022 85.5814 101.047 85.564 101.071C81.9211 106.408 78.3478 111.818 74.4596 116.933C74.272 117.169 74.0948 117.387 73.8991 117.611C73.8024 117.722 73.7079 117.826 73.6088 117.924C73.5675 117.965 73.5072 118.02 73.4686 118.05C73.4438 118.07 73.4264 118.081 73.4199 118.084C73.4172 118.086 73.4227 118.081 73.4467 118.076C73.4587 118.069 73.5836 118.068 73.6519 118.143Z" fill="black"/>
  <path d="M50.1026 111.679C50.0258 111.668 49.9479 111.688 49.886 111.735C49.8242 111.782 49.7835 111.851 49.7729 111.928C49.7623 112.005 49.7827 112.083 49.8295 112.145C49.8764 112.207 49.9458 112.247 50.0227 112.258C50.0227 112.258 50.0227 112.258 50.0227 112.258C50.3727 112.316 50.7965 112.566 51.1738 112.809C53.0836 114.114 54.7861 115.792 56.3625 117.521C56.3734 117.533 56.3844 117.546 56.3953 117.558C56.6396 120.49 54.5156 124.134 53.7736 127.538C53.7695 127.554 53.7655 127.569 53.7616 127.585C53.632 128.106 53.5386 128.663 53.6639 129.25C53.7698 129.845 54.2849 130.369 54.8089 130.568C54.8256 130.576 54.8424 130.583 54.8592 130.59C55.5702 130.875 56.2739 130.871 56.8916 131.031C56.9031 131.034 56.9146 131.037 56.9261 131.039C57.6179 131.208 58.2475 131.633 58.8667 132.075C59.2424 132.347 59.6111 132.633 59.9786 132.926C60.0393 132.974 60.1168 132.997 60.194 132.988C60.2713 132.979 60.3418 132.94 60.3903 132.88C60.4388 132.819 60.4611 132.741 60.4524 132.664C60.4437 132.587 60.4047 132.516 60.3439 132.468C60.3439 132.468 60.3439 132.468 60.3439 132.468C59.9718 132.171 59.5973 131.88 59.2098 131.6C58.5749 131.149 57.8931 130.676 57.0709 130.472C57.0578 130.468 57.0447 130.465 57.0317 130.462C56.331 130.289 55.6407 130.28 55.0828 130.048C55.0694 130.043 55.0562 130.037 55.043 130.031C54.1311 129.718 54.068 128.67 54.3292 127.73C54.3328 127.716 54.3364 127.702 54.3402 127.688C54.7918 125.973 55.356 124.286 55.9299 122.597C56.2157 121.75 56.5056 120.907 56.7557 120.036C56.8792 119.6 56.9943 119.158 57.0651 118.697C57.1106 118.237 57.2444 117.715 56.8317 117.168C56.8206 117.156 56.8094 117.143 56.7983 117.131C55.1881 115.368 53.4961 113.69 51.4932 112.319C51.0772 112.06 50.6807 111.786 50.1026 111.679Z" fill="black"/>
  <path d="M69.4354 110.905C69.4354 110.983 69.4663 111.057 69.5212 111.112C69.5762 111.167 69.6507 111.198 69.7284 111.198C69.8061 111.198 69.8806 111.167 69.9355 111.112C69.9905 111.057 70.0213 110.983 70.0213 110.905C70.0123 110.737 70.0549 110.547 69.9024 110.263C69.8216 110.12 69.6422 110.017 69.508 109.996C69.3709 109.97 69.2598 109.981 69.1569 109.997C69.1511 109.998 69.1454 109.998 69.1397 109.999C68.9062 110.039 68.6928 110.119 68.4965 110.218C65.8892 111.97 64.8109 114.8 63.6193 117.406C63.6191 117.407 63.6188 117.407 63.6186 117.408C63.1703 118.36 62.9062 119.816 63.6927 120.766C63.7017 120.779 63.7108 120.793 63.72 120.806C64.4819 121.862 65.4556 122.645 66.1599 123.591C66.1722 123.608 66.1843 123.625 66.1961 123.642L66.1416 123.478C66.1689 127.778 64.7131 131.965 63.6328 136.188C63.6206 136.236 63.6085 136.284 63.5965 136.332L63.5933 136.346C63.5898 136.364 63.5863 136.381 63.5827 136.399C63.5303 136.662 63.4768 136.926 63.4313 137.199C63.4098 137.341 63.3844 137.462 63.3828 137.653C63.3838 137.681 63.3838 137.709 63.3944 137.76C63.402 137.787 63.4029 137.817 63.4497 137.89C63.4692 137.966 63.7241 138.064 63.798 138.013C63.9618 137.947 63.9458 137.917 63.9808 137.887C64.0003 137.864 64.0179 137.839 64.0295 137.821C64.0801 137.744 64.1122 137.682 64.1465 137.615C64.1821 137.545 64.1884 137.463 64.164 137.388C64.1396 137.314 64.0864 137.251 64.0162 137.216C63.946 137.18 63.8645 137.174 63.7896 137.198C63.7148 137.223 63.6527 137.276 63.6171 137.346C63.6171 137.346 63.6171 137.346 63.6171 137.346C63.5888 137.402 63.5589 137.457 63.5357 137.492C63.5309 137.499 63.5252 137.506 63.5259 137.505C63.5367 137.503 63.4999 137.498 63.6313 137.443C63.6911 137.398 63.9258 137.489 63.9371 137.551C63.9741 137.609 63.9705 137.623 63.9745 137.634C63.9781 137.652 63.9762 137.647 63.9764 137.64C63.9758 137.564 63.9967 137.419 64.0171 137.296C64.0598 137.04 64.1127 136.778 64.165 136.515C64.1685 136.498 64.172 136.48 64.1756 136.462L64.1724 136.477C64.1842 136.429 64.1962 136.382 64.2083 136.334C65.2774 132.136 66.7584 127.936 66.7351 123.462L66.7328 123.372L66.6806 123.298C66.6672 123.28 66.6535 123.261 66.6397 123.242C65.8642 122.209 64.8885 121.42 64.2083 120.468C64.2002 120.456 64.1921 120.445 64.1842 120.433C63.5391 119.613 63.7431 118.61 64.1662 117.637C64.1665 117.637 64.1667 117.636 64.1669 117.636C65.3035 115.088 66.5193 112.223 68.7612 110.741C68.9173 110.662 69.077 110.604 69.2358 110.577C69.2397 110.577 69.2436 110.576 69.2475 110.576C69.3874 110.552 69.4262 110.586 69.4041 110.571C69.4209 110.582 69.4395 110.744 69.4354 110.905Z" fill="black"/>
  <path d="M64.0244 36.0806C64.1218 36.0806 64.2152 36.0419 64.2841 35.9731C64.3529 35.9042 64.3916 35.8108 64.3916 35.7134C64.3916 35.6161 64.3529 35.5227 64.2841 35.4538C64.2152 35.3849 64.1218 35.3463 64.0244 35.3463C63.9559 35.3461 63.8562 35.3464 63.7535 35.3649C63.7523 35.3651 63.7511 35.3653 63.7499 35.3655C63.6592 35.3816 63.5729 35.4149 63.4995 35.457C62.9987 35.8052 62.9498 36.2097 62.8392 36.5696C62.7547 36.9472 62.6954 37.2668 62.7214 37.7195C62.7239 37.7418 62.7272 37.7639 62.731 37.7852C62.831 38.2484 63.0648 38.5336 63.3142 38.8126C63.3273 38.8265 63.3409 38.8401 63.3544 38.8528C63.8228 39.2324 64.2255 39.2532 64.5995 39.3713C64.6101 39.3742 64.6207 39.377 64.6314 39.3797C65.0104 39.4745 65.3672 39.4553 65.6982 39.4236L65.7387 39.4172C65.7461 39.4156 65.7535 39.4139 65.7609 39.4121C66.2174 39.2808 66.5155 39.08 66.8369 38.8286C66.8774 38.7954 66.9173 38.7609 66.9567 38.725L66.9987 38.6795C66.9992 38.6788 66.9997 38.6781 67.0003 38.6774C67.0458 38.6189 67.0902 38.5599 67.1325 38.5034C67.191 38.4255 67.2161 38.3275 67.2023 38.2311C67.1885 38.1347 67.137 38.0478 67.0591 37.9893C66.9812 37.9309 66.8832 37.9058 66.7868 37.9196C66.6904 37.9334 66.6035 37.9849 66.545 38.0628C66.545 38.0628 66.545 38.0628 66.545 38.0628C66.5026 38.1194 66.4619 38.1735 66.4206 38.2266C66.4201 38.2272 66.4196 38.2279 66.4191 38.2285L66.4611 38.183C66.4323 38.2093 66.4023 38.2352 66.3713 38.2606C66.1392 38.4508 65.8209 38.6362 65.5915 38.6976C65.5888 38.6982 65.5862 38.6988 65.5838 38.6993L65.6243 38.6929C65.3303 38.7226 65.047 38.7285 64.8129 38.6681C64.8062 38.6664 64.7995 38.6646 64.7929 38.6628C64.4175 38.5631 64.0018 38.4541 63.8581 38.3184C63.8548 38.3153 63.8517 38.3122 63.8492 38.3095C63.6592 38.1087 63.4862 37.8422 63.4541 37.6573C63.4528 37.6494 63.4516 37.6419 63.4508 37.6348C63.4245 37.141 63.6227 36.2409 63.8633 36.0949C63.8723 36.0899 63.8761 36.089 63.8796 36.0883C63.88 36.0883 63.8804 36.0882 63.8808 36.0881C63.9147 36.082 63.9545 36.0803 64.0244 36.0806Z" fill="black"/>
  <path d="M66.5333 38.0794C66.4792 38.1604 66.4596 38.2596 66.4787 38.3551C66.4978 38.4506 66.5541 38.5346 66.6351 38.5886C66.7161 38.6426 66.8153 38.6622 66.9108 38.6431C67.0063 38.624 67.0903 38.5678 67.1443 38.4868C67.1443 38.4868 67.1443 38.4868 67.1443 38.4868C67.1611 38.4616 67.1773 38.4361 67.1928 38.4106C67.3695 38.1176 67.4799 37.8119 67.5505 37.4934C67.5506 37.4933 67.5506 37.4932 67.5506 37.4931C67.5669 37.4149 67.5931 37.324 67.6053 37.1968C67.6053 37.1966 67.6053 37.1965 67.6053 37.1963C67.6133 37.0934 67.6153 37.0612 67.6269 37.0082C67.6305 36.9923 67.6346 36.9762 67.6395 36.9597C67.6672 36.8663 67.6566 36.7658 67.6101 36.6802C67.5636 36.5946 67.485 36.531 67.3916 36.5034C67.2982 36.4758 67.1977 36.4864 67.1121 36.5329C67.0266 36.5794 66.963 36.6579 66.9353 36.7513C66.9353 36.7513 66.9353 36.7513 66.9353 36.7513C66.9259 36.7832 66.9174 36.8158 66.91 36.849C66.8862 36.9496 66.8782 37.0748 66.8741 37.1286C66.8741 37.1286 66.8741 37.1287 66.8741 37.1288C66.8711 37.1726 66.8527 37.2479 66.8333 37.3355C66.833 37.3372 66.833 37.3373 66.8329 37.3374C66.7794 37.5824 66.6884 37.8266 66.5659 38.0282C66.5553 38.0456 66.5443 38.0628 66.5333 38.0794Z" fill="black"/>
  <path d="M66.9203 36.8555C66.9203 36.9529 66.9589 37.0463 67.0278 37.1151C67.0967 37.184 67.1901 37.2227 67.2874 37.2227C67.3848 37.2227 67.4782 37.184 67.5471 37.1151C67.616 37.0463 67.6546 36.9529 67.6546 36.8555C67.6546 36.8127 67.6535 36.7708 67.6517 36.7298C67.6304 36.4538 67.6296 36.2017 67.4476 35.8536C67.4474 35.8531 67.4471 35.8526 67.4468 35.8522C67.306 35.6183 67.0997 35.3363 66.7326 35.2092L66.6305 35.1903C66.6302 35.1903 66.6298 35.1903 66.6294 35.1903C66.4942 35.1846 66.3564 35.1744 66.2443 35.1549L66.2215 35.1516C66.2213 35.1515 66.2211 35.1515 66.221 35.1515C66.1777 35.1467 66.139 35.1447 66.1032 35.1436C66.0587 35.1422 66.0189 35.1423 65.9822 35.1423C65.8849 35.1423 65.7915 35.181 65.7226 35.2499C65.6537 35.3187 65.6151 35.4121 65.6151 35.5095C65.6151 35.6069 65.6537 35.7003 65.7226 35.7691C65.7915 35.838 65.8849 35.8767 65.9822 35.8767C66.0188 35.8767 66.0521 35.8767 66.0808 35.8776C66.1038 35.8783 66.1238 35.8796 66.1389 35.8813C66.1389 35.8813 66.139 35.8813 66.139 35.8813L66.1163 35.878C66.2908 35.9078 66.444 35.9171 66.5992 35.924C66.5996 35.9241 66.6 35.9241 66.6004 35.9241L66.4983 35.9052C66.5947 35.9339 66.7137 36.0519 66.8151 36.2266C66.8152 36.2269 66.8154 36.2272 66.8156 36.2275C66.8665 36.3092 66.911 36.5569 66.9181 36.7619C66.9195 36.7935 66.9203 36.8259 66.9203 36.8555Z" fill="black"/>
  <path d="M35.1474 36.3864C35.2177 36.3212 35.2593 36.2308 35.2629 36.1351C35.2666 36.0393 35.232 35.946 35.1669 35.8757C35.1018 35.8054 35.0114 35.7639 34.9156 35.7602C34.8199 35.7566 34.7266 35.7911 34.6563 35.8563C34.6563 35.8563 34.6563 35.8563 34.6563 35.8563C34.5639 35.9439 34.5075 36.017 34.4481 36.0941C34.2517 36.3789 34.0779 36.5777 33.9668 37.0451C33.9665 37.0474 33.9662 37.0496 33.9659 37.0518C33.9315 37.5345 34.0572 37.8485 34.2003 38.1966C34.2017 38.1998 34.2032 38.2029 34.2046 38.206C34.4398 38.6778 34.866 38.7764 35.1742 38.8524C35.4995 38.9207 35.8087 38.9354 36.1078 38.9437L36.2185 38.9292C36.221 38.9285 36.2234 38.9278 36.2258 38.9271C36.5114 38.842 36.7862 38.7685 37.0928 38.6655C37.098 38.6637 37.0986 38.6634 37.0993 38.6632C37.1084 38.6599 37.118 38.6564 37.1279 38.6526C37.2259 38.6173 37.3359 38.5601 37.4177 38.5083C37.499 38.4577 37.557 38.3768 37.5787 38.2834C37.6004 38.1901 37.5842 38.092 37.5336 38.0106C37.4829 37.9292 37.4021 37.8713 37.3087 37.8496C37.2154 37.8278 37.1173 37.8441 37.0359 37.8947C37.0359 37.8947 37.0359 37.8947 37.0359 37.8947C36.9746 37.9325 36.9344 37.9536 36.8738 37.9762C36.867 37.9787 36.8599 37.9813 36.8523 37.9841C36.8518 37.9843 36.8513 37.9844 36.8508 37.9846C36.6014 38.0687 36.304 38.15 36.0227 38.2335C36.0203 38.2343 36.0178 38.235 36.0154 38.2357L36.1261 38.2212C35.5955 38.223 34.9153 38.1016 34.8633 37.909C34.8623 37.9066 34.8612 37.9041 34.8601 37.9017C34.7466 37.6528 34.6628 37.3205 34.6823 37.147C34.6823 37.147 34.6823 37.1469 34.6823 37.1469C34.7025 37.0317 34.8753 36.7239 35.0243 36.5303C35.0673 36.4731 35.1176 36.4138 35.1474 36.3864Z" fill="black"/>
  <path d="M37.0188 37.906C36.9404 37.9612 36.8872 38.0453 36.8708 38.1397C36.8544 38.2341 36.8762 38.3312 36.9313 38.4095C36.9865 38.4879 37.0705 38.5411 37.165 38.5575C37.2594 38.5739 37.3564 38.5521 37.4348 38.4969C37.4348 38.4969 37.4348 38.4969 37.4348 38.4969C37.4904 38.4578 37.5443 38.416 37.5963 38.3713C37.9461 38.0765 38.1831 37.6445 38.2671 37.2087C38.2672 37.208 38.2674 37.2073 38.2675 37.2067C38.3816 36.832 38.1771 36.2794 38.0178 36.0678L37.94 35.9723C37.9385 35.9709 37.937 35.9696 37.9354 35.9683C37.6803 35.7385 37.3271 35.6552 37.0804 35.6148L37.0415 35.61C37.0408 35.6099 37.04 35.6099 37.0392 35.6098C36.9465 35.6041 36.8672 35.6036 36.7873 35.6029C36.7289 35.6026 36.6716 35.6026 36.615 35.6027C36.5208 35.6028 36.4305 35.6404 36.3639 35.707C36.2973 35.7737 36.2599 35.864 36.2599 35.9582C36.2599 36.0523 36.2973 36.1426 36.3639 36.2093C36.4305 36.276 36.5208 36.3135 36.615 36.3136C36.6716 36.3137 36.7275 36.3137 36.7823 36.3142C36.8563 36.3148 36.9309 36.316 36.9917 36.3201C36.9922 36.3202 36.9927 36.3202 36.9931 36.3202L36.9542 36.3154C37.1942 36.3582 37.3437 36.4081 37.464 36.5147C37.4648 36.5154 37.4656 36.5161 37.4663 36.5167L37.3886 36.4212C37.5753 36.7289 37.6012 36.8151 37.559 37.0643C37.5589 37.0648 37.5588 37.0652 37.5587 37.0657C37.4986 37.3676 37.3514 37.6306 37.1255 37.8231C37.0916 37.8522 37.056 37.8798 37.0188 37.906Z" fill="black"/>
  <path d="M36.6701 36.3074C36.7627 36.2927 36.8457 36.2419 36.9009 36.1661C36.956 36.0903 36.9788 35.9956 36.9642 35.903C36.9495 35.8104 36.8987 35.7274 36.8229 35.6723C36.7471 35.6171 36.6524 35.5943 36.5598 35.609C36.5598 35.609 36.5598 35.609 36.5598 35.609C36.5402 35.6121 36.5206 35.6152 36.5011 35.6182C36.2856 35.652 36.0699 35.6865 35.8677 35.7081C35.8677 35.7081 35.8677 35.7081 35.8677 35.7081C35.741 35.7215 35.6228 35.7269 35.4906 35.7269C35.4714 35.727 35.452 35.727 35.4321 35.727C35.3384 35.727 35.2484 35.7643 35.1821 35.8306C35.1158 35.8968 35.0786 35.9868 35.0786 36.0805C35.0786 36.1743 35.1158 36.2642 35.1821 36.3305C35.2484 36.3968 35.3384 36.434 35.4321 36.434C35.452 36.434 35.4722 36.434 35.4927 36.434C35.6361 36.4342 35.7936 36.4272 35.9412 36.4113C35.9412 36.4113 35.9412 36.4113 35.9412 36.4113C36.1753 36.3861 36.3932 36.3507 36.6112 36.3166C36.6309 36.3135 36.6505 36.3104 36.6701 36.3074Z" fill="black"/>
  <path d="M81.8949 22.0703C81.9802 22.1272 82.0847 22.1478 82.1852 22.1277C82.2858 22.1076 82.3743 22.0484 82.4312 21.963C82.4881 21.8777 82.5087 21.7733 82.4886 21.6727C82.4685 21.5721 82.4092 21.4836 82.3239 21.4268C82.3239 21.4268 82.3239 21.4268 82.3239 21.4268C82.3056 21.4146 82.2891 21.4034 82.2807 21.3973C82.277 21.3948 82.2741 21.392 82.2835 21.4001C82.289 21.4055 82.296 21.4093 82.322 21.4417C82.335 21.4623 82.3586 21.478 82.3876 21.5782C82.4005 21.6273 82.4107 21.7257 82.365 21.8258C82.3184 21.9273 82.2475 21.9771 82.2031 22.0021C82.2029 22.0022 82.2027 22.0023 82.2025 22.0025C82.1917 22.0082 82.1928 22.003 82.2222 22.0041C82.4926 22.0161 82.9516 22.3483 83.5566 22.4723C83.5721 22.475 83.5876 22.4776 83.6029 22.4801C84.3661 22.6272 85.3185 22.5921 86.0027 22.4184C86.0155 22.4167 86.0285 22.4149 86.0413 22.413C86.4362 22.3531 86.7908 22.2432 87.1377 22.1291C87.1452 22.1266 87.1527 22.1241 87.1602 22.1215C87.5041 22.0042 87.8108 21.8672 88.105 21.7721L88.1407 21.7585C88.1442 21.757 88.1476 21.7555 88.151 21.754C88.3115 21.6834 88.4568 21.6109 88.5933 21.5512L88.5744 21.5589C88.5753 21.5586 88.5763 21.5582 88.5772 21.5578C88.5918 21.5524 88.6152 21.5443 88.6413 21.5346C88.7861 21.4808 88.9048 21.4183 89.018 21.3582C89.1093 21.3092 89.1774 21.2259 89.2073 21.1267C89.2372 21.0275 89.2264 20.9205 89.1775 20.8293C89.1285 20.738 89.0452 20.6699 88.946 20.64C88.8468 20.6101 88.7398 20.6208 88.6485 20.6698C88.6485 20.6698 88.6485 20.6698 88.6485 20.6698C88.5484 20.7234 88.4521 20.7721 88.3703 20.8019C88.3532 20.8082 88.3332 20.8151 88.3046 20.8257C88.3027 20.8264 88.3008 20.8271 88.2989 20.8278L88.2799 20.8356C88.1191 20.9061 87.9738 20.9787 87.8371 21.0386C87.8342 21.0399 87.8313 21.0411 87.8284 21.0424L87.8642 21.0288C87.5163 21.1425 87.2054 21.2816 86.9101 21.3814C86.9038 21.3835 86.8974 21.3857 86.8912 21.3877C86.5641 21.496 86.2361 21.594 85.9279 21.64C85.918 21.6415 85.9081 21.6429 85.8983 21.6442C85.0882 21.8301 84.479 21.8357 83.7305 21.7093C83.7164 21.707 83.7022 21.7046 83.688 21.7022C83.3224 21.651 82.9666 21.3235 82.25 21.2308C82.1313 21.2263 81.9799 21.2439 81.8375 21.3205C81.8342 21.3223 81.8308 21.3241 81.8275 21.326C81.7806 21.3524 81.7075 21.404 81.6598 21.5081C81.613 21.6108 81.6232 21.7121 81.6368 21.7639C81.6672 21.8695 81.694 21.8899 81.7104 21.915C81.7431 21.9561 81.7584 21.9676 81.7722 21.9804C81.7984 22.0032 81.8133 22.0137 81.8277 22.0243C81.8555 22.0442 81.8761 22.0577 81.8949 22.0703Z" fill="black"/>
  <path d="M92.8308 46.3234C92.8308 46.4224 92.8701 46.5173 92.9401 46.5872C93.01 46.6572 93.1049 46.6965 93.2038 46.6965C93.3028 46.6965 93.3977 46.6572 93.4676 46.5872C93.5376 46.5173 93.5769 46.4224 93.5769 46.3234C93.5761 46.2647 93.5798 46.2023 93.5653 46.0965C93.5524 46.0413 93.5577 45.9742 93.4582 45.8381C93.4088 45.7713 93.2953 45.6965 93.1948 45.6832C93.0942 45.6673 93.0258 45.6853 92.9785 45.6993C92.9746 45.7006 92.9707 45.7018 92.9668 45.703C92.3143 45.9038 91.8707 46.4608 91.6291 46.9955C90.492 50.1312 91.3317 53.3009 91.2551 56.2127C91.2429 56.3374 91.2316 56.4643 91.2209 56.5919C91.0231 59.157 90.9779 61.7087 90.7566 64.2328L90.7583 64.2174C90.7463 64.3084 90.7354 64.4008 90.7256 64.492C90.4962 67.8338 90.7337 71.0517 90.7159 74.3275C90.7153 74.3643 90.7147 74.4092 90.714 74.4545C90.6747 77.0777 90.621 79.7012 90.5659 82.3251C90.5521 82.9781 90.5381 83.6314 90.5239 84.2843C90.5217 84.3847 90.5595 84.482 90.629 84.5545C90.6985 84.6271 90.794 84.6691 90.8945 84.6713C90.9949 84.6735 91.0922 84.6357 91.1647 84.5662C91.2373 84.4967 91.2793 84.4012 91.2815 84.3007C91.2815 84.3007 91.2815 84.3007 91.2815 84.3007C91.2957 83.6477 91.3097 82.9943 91.3235 82.3411C91.3786 79.7164 91.4324 77.0925 91.4717 74.4656C91.4724 74.4203 91.4731 74.3752 91.4737 74.3305C91.49 71.0602 91.2588 67.7475 91.479 64.573C91.4882 64.4873 91.4985 64.4009 91.5096 64.3159L91.5113 64.3005C91.7355 61.7401 91.7811 59.1781 91.9761 56.6548C91.9865 56.5302 91.9975 56.4067 92.0092 56.2862C92.0675 53.1383 91.312 50.0113 92.3065 47.3098C92.5066 46.8731 92.8025 46.5343 93.1942 46.4136C93.1966 46.4129 93.199 46.4121 93.2014 46.4113C93.1811 46.4169 93.1421 46.43 93.0697 46.4188C92.9973 46.4099 92.9096 46.3515 92.8779 46.3071C92.8139 46.2164 92.8315 46.2076 92.8276 46.2083C92.8294 46.2157 92.8312 46.2681 92.8308 46.3234Z" fill="black"/>
  <path d="M24.767 111.818C24.8262 111.73 24.8477 111.621 24.8268 111.516C24.8059 111.412 24.7442 111.32 24.6554 111.26C24.5666 111.201 24.458 111.18 24.3533 111.201C24.2487 111.222 24.1567 111.283 24.0975 111.372C24.0975 111.372 24.0975 111.372 24.0975 111.372C23.5053 112.26 22.9097 113.146 22.3094 114.028C20.6405 116.482 18.9314 118.906 17.1907 121.312C17.1899 121.314 17.189 121.315 17.1881 121.316C13.2793 126.702 9.51634 132.342 6.91811 138.489L6.87894 138.66C6.87892 138.664 6.87889 138.668 6.87887 138.672C6.95222 141.923 7.84833 144.921 8.54492 147.979L8.55162 148.003C8.55236 148.006 8.55311 148.008 8.55385 148.011C10.5003 154.201 12.7514 160.272 15.0806 166.315C15.4671 167.313 15.8575 168.309 16.2518 169.303C16.2933 169.408 16.3745 169.491 16.4777 169.536C16.5808 169.581 16.6975 169.582 16.802 169.541C16.9065 169.499 16.9902 169.418 17.0348 169.315C17.0794 169.212 17.0812 169.095 17.0398 168.991C17.0398 168.991 17.0398 168.991 17.0398 168.991C16.6465 167.998 16.2571 167.004 15.8715 166.009C13.5486 159.98 11.299 153.909 9.36573 147.76C9.36499 147.758 9.36425 147.755 9.36352 147.753L9.37021 147.777C8.67472 144.747 7.75303 141.692 7.69135 138.677C7.69137 138.673 7.69139 138.67 7.69142 138.666L7.65225 138.837C10.2513 132.688 13.9297 127.182 17.8402 121.787C17.8411 121.786 17.8419 121.785 17.8428 121.784C19.5869 119.373 21.3012 116.941 22.9746 114.481C23.5765 113.596 24.1736 112.708 24.767 111.818Z" fill="black"/>
  <path d="M104.683 104.214C104.701 104.12 104.68 104.022 104.626 103.943C104.572 103.864 104.489 103.81 104.394 103.792C104.3 103.774 104.203 103.795 104.124 103.849C104.045 103.903 103.99 103.987 103.973 104.081C103.973 104.081 103.973 104.081 103.973 104.081C103.957 105.801 104.71 106.964 105.28 108.274C106.723 111.218 108.458 113.977 110.274 116.682C110.28 116.691 110.286 116.7 110.292 116.708C112.828 120.464 114.95 124.492 117.385 128.367C117.39 128.374 117.394 128.381 117.399 128.389C118.959 130.903 118.925 134.116 118.973 137.132C118.973 137.138 118.973 137.145 118.973 137.151C118.841 140.306 117.675 143.457 116.749 146.574C116.747 146.579 116.746 146.584 116.744 146.589C114.987 152.125 112.948 157.585 111.008 163.079C111.008 163.081 111.007 163.082 111.007 163.084C109.596 167.021 108.417 171.071 107.31 175.07L107.326 175.026C107.326 175.026 107.326 175.026 107.326 175.027C106.869 176.035 106.43 177.053 106.037 178.096C105.798 178.732 105.576 179.377 105.39 180.039C105.39 180.039 105.39 180.04 105.39 180.041C105.23 180.762 104.92 181.247 104.407 181.754C104.339 181.823 104.301 181.916 104.301 182.013C104.302 182.11 104.34 182.203 104.409 182.271C104.478 182.339 104.571 182.377 104.668 182.377C104.765 182.376 104.858 182.338 104.926 182.269C104.926 182.269 104.926 182.269 104.926 182.269C105.468 181.763 105.955 180.958 106.094 180.236C106.093 180.237 106.093 180.236 106.094 180.236C106.271 179.603 106.487 178.975 106.721 178.353C107.105 177.333 107.539 176.327 107.991 175.328C107.991 175.328 107.992 175.328 107.992 175.327L108.009 175.282C109.131 171.234 110.287 167.261 111.696 163.326C111.696 163.325 111.697 163.323 111.697 163.322C113.634 157.836 115.674 152.374 117.441 146.808C117.443 146.803 117.445 146.797 117.446 146.792C118.373 143.647 119.551 140.567 119.704 137.152C119.704 137.145 119.704 137.138 119.704 137.131C119.643 134.087 119.73 130.803 118.013 128C118.008 127.992 118.003 127.985 117.998 127.977C115.587 124.145 113.453 120.099 110.891 116.304C110.885 116.296 110.879 116.287 110.873 116.278C109.069 113.592 107.345 110.846 105.931 107.959C105.366 106.743 104.662 105.324 104.683 104.214Z" fill="black"/>
  <path d="M87.9642 175.942C87.8807 175.882 87.777 175.858 87.6758 175.875C87.5747 175.892 87.4843 175.948 87.4247 176.032C87.3651 176.115 87.341 176.219 87.3579 176.32C87.3747 176.421 87.431 176.511 87.5145 176.571C87.5145 176.571 87.5145 176.571 87.5145 176.571C88.1142 176.999 88.7431 177.41 89.3616 177.804C93.1537 180.143 96.9579 182.398 101.137 184.119C101.139 184.12 101.142 184.121 101.144 184.121C102.595 184.649 104.129 185.048 105.532 185.528C105.534 185.529 105.537 185.53 105.54 185.531L105.503 185.515C105.952 185.666 106.085 186.535 106.203 187.24C106.312 187.981 106.372 188.736 106.42 189.5C106.42 189.506 106.421 189.511 106.421 189.516C106.693 195.17 106.69 200.88 106.906 206.57C106.931 207.304 106.959 208.036 106.988 208.772C106.992 208.874 107.037 208.971 107.112 209.041C107.188 209.11 107.288 209.147 107.39 209.143C107.493 209.139 107.589 209.094 107.659 209.019C107.728 208.943 107.765 208.843 107.761 208.741C107.731 208.007 107.704 207.276 107.679 206.543C107.463 200.858 107.467 195.179 107.193 189.469C107.193 189.464 107.192 189.458 107.192 189.453C107.143 188.676 107.083 187.907 106.968 187.125C106.908 186.736 106.839 186.344 106.711 185.94C106.646 185.74 106.568 185.532 106.43 185.322C106.303 185.112 106.043 184.908 105.847 184.822L105.811 184.806C105.808 184.805 105.805 184.804 105.802 184.803C104.293 184.288 102.845 183.917 101.401 183.392C101.399 183.391 101.397 183.391 101.395 183.39C97.3882 181.741 93.5116 179.46 89.7762 177.151C89.1653 176.762 88.5446 176.356 87.9642 175.942Z" fill="black"/>
  <path d="M61.3337 235.275C61.2737 235.364 61.2518 235.474 61.2727 235.58C61.2937 235.686 61.3558 235.779 61.4454 235.839C61.5351 235.899 61.6449 235.921 61.7507 235.9C61.8565 235.879 61.9497 235.817 62.0097 235.727C62.4469 235.067 62.8408 234.392 63.2368 233.728C64.7887 231.183 66.227 228.411 68.3176 226.483C68.3277 226.475 68.3378 226.467 68.3478 226.459C70.6413 224.856 73.9715 225.461 76.9579 225.147C76.9649 225.147 76.9719 225.146 76.9789 225.146C80.6122 224.77 84.1481 225.396 87.5221 226.817C87.5567 226.83 87.5915 226.844 87.6264 226.857C91.2503 228.103 93.7244 230.789 95.8806 234.08L95.8603 234.055C95.8657 234.062 95.8712 234.069 95.8767 234.077C96.11 234.388 96.3403 234.695 96.554 235.006C96.6391 235.13 96.7215 235.254 96.8001 235.38C96.8025 235.384 96.805 235.388 96.8074 235.392C97.1209 235.881 97.3263 236.397 97.4902 236.972C97.5212 237.079 97.5936 237.17 97.6915 237.224C97.7894 237.278 97.9049 237.291 98.0124 237.261C98.1199 237.23 98.2107 237.157 98.2648 237.059C98.3189 236.961 98.3319 236.846 98.3009 236.738C98.1296 236.13 97.8759 235.492 97.5231 234.945C97.5204 234.94 97.5177 234.936 97.515 234.932C97.4289 234.794 97.34 234.66 97.2495 234.528C97.0222 234.198 96.7853 233.882 96.5517 233.57C96.5462 233.563 96.5407 233.556 96.5353 233.548L96.5149 233.523C94.5672 230.474 91.6459 227.285 87.9302 226.07C87.895 226.056 87.86 226.043 87.8251 226.03C84.4544 224.594 80.5908 223.908 76.9145 224.305C76.9077 224.305 76.9009 224.306 76.8941 224.306C73.9628 224.656 70.7146 223.904 67.8432 225.821C67.8311 225.831 67.819 225.841 67.8069 225.85C65.4584 228.03 64.1145 230.749 62.5372 233.313C62.1433 233.974 61.7468 234.652 61.3337 235.275Z" fill="black"/>
  <path d="M65.0138 234.74C65.0812 234.661 65.1148 234.56 65.1072 234.456C65.0995 234.353 65.0512 234.258 64.9729 234.19C64.8946 234.123 64.7927 234.089 64.6897 234.097C64.5866 234.104 64.4908 234.153 64.4234 234.231C64.4234 234.231 64.4234 234.231 64.4234 234.231C63.8052 235.035 63.5813 235.873 63.3656 236.736C63.1999 237.496 63.0845 238.272 63.203 239.107C63.2039 239.112 63.2048 239.117 63.2057 239.123C63.3408 239.929 63.9855 240.461 64.5916 240.739C64.5989 240.742 64.6062 240.745 64.6136 240.749C66.9847 241.25 68.8954 241.005 71.0342 241.092C71.0391 241.092 71.044 241.092 71.049 241.092C77.8112 241.161 84.5836 241.253 91.3556 241.205C91.3592 241.205 91.3628 241.205 91.3664 241.205C93.5006 241.068 95.446 241.524 97.8133 240.504C97.8164 240.501 97.8194 240.499 97.8224 240.497C99.8377 238.963 101.127 236.856 102.632 235.058C102.629 235.062 102.629 235.062 102.629 235.062C102.992 234.637 103.326 234.19 103.626 233.713C103.626 233.713 103.627 233.712 103.627 233.712C103.655 233.668 103.681 233.624 103.708 233.582C104.107 232.893 104.686 232.336 105.304 231.766C105.391 231.687 105.442 231.576 105.448 231.459C105.453 231.341 105.412 231.226 105.332 231.14C105.253 231.053 105.143 231.001 105.025 230.996C104.908 230.99 104.793 231.032 104.706 231.111C104.706 231.111 104.706 231.111 104.706 231.111C104.075 231.693 103.412 232.328 102.953 233.117C102.926 233.159 102.901 233.201 102.876 233.241C102.875 233.241 102.875 233.242 102.875 233.242C102.603 233.676 102.291 234.092 101.955 234.483C101.955 234.483 101.955 234.483 101.954 234.484C100.396 236.348 99.105 238.39 97.2781 239.768C97.2755 239.769 97.273 239.771 97.2705 239.773C95.8051 240.426 93.3646 240.21 91.357 240.291C91.3535 240.291 91.3499 240.291 91.3463 240.291C84.5957 240.339 77.8192 240.247 71.0588 240.178C71.0539 240.178 71.049 240.178 71.044 240.178C68.9989 240.115 66.678 240.292 64.9579 239.965C64.9533 239.963 64.9485 239.961 64.9437 239.959C64.4638 239.75 64.0394 239.419 63.9742 238.993C63.9737 238.99 63.9732 238.987 63.9727 238.984C63.8769 238.335 63.9707 237.603 64.1255 236.908C64.3086 236.13 64.5849 235.283 65.0138 234.74Z" fill="black"/>
  <path d="M16.5959 235.79C16.6725 235.713 16.7155 235.609 16.7155 235.501C16.7155 235.393 16.6725 235.289 16.5959 235.212C16.5194 235.136 16.4156 235.093 16.3073 235.093C16.199 235.093 16.0952 235.136 16.0187 235.212C16.0187 235.212 16.0187 235.212 16.0187 235.212C15.9062 235.325 15.7935 235.438 15.6995 235.515C15.6771 235.534 15.6553 235.549 15.6466 235.554C15.648 235.565 15.6115 235.534 15.7939 235.535C15.8943 235.536 16.0372 235.651 16.0589 235.712C16.0908 235.775 16.0881 235.795 16.0904 235.805C16.0915 235.821 16.0902 235.799 16.0933 235.776C16.0953 235.759 16.0973 235.741 16.0994 235.724C16.1497 235.31 16.2312 234.898 16.34 234.493C17.6574 230.007 21.5092 226.564 25.5841 224.336C25.5887 224.334 25.5932 224.331 25.5977 224.329C28.3104 222.995 31.6025 223.107 34.6994 223.358C34.7179 223.36 34.7365 223.362 34.7551 223.363C38.9233 223.558 41.6634 227.003 43.7403 230.546L43.7178 230.508C43.7255 230.523 43.7333 230.538 43.741 230.552C44.5579 232.1 45.414 233.63 46.265 235.148L46.2408 235.098C46.2416 235.1 46.2424 235.102 46.2432 235.104C46.2661 235.161 46.2883 235.22 46.3105 235.282C46.5344 236.006 46.9272 236.835 47.4371 237.466C47.5097 237.56 47.6163 237.621 47.7338 237.637C47.8514 237.652 47.9701 237.62 48.0639 237.548C48.1578 237.475 48.2191 237.369 48.2345 237.251C48.2498 237.134 48.2179 237.015 48.146 236.921C48.146 236.921 48.146 236.921 48.146 236.921C47.687 236.33 47.402 235.737 47.16 234.978C47.1355 234.91 47.1094 234.839 47.0804 234.767C47.0794 234.765 47.0784 234.762 47.0774 234.76L47.0533 234.709C46.1986 233.185 45.3508 231.669 44.5386 230.13C44.5309 230.116 44.5233 230.101 44.5156 230.087L44.4931 230.049C42.5058 226.608 39.375 222.641 34.8382 222.465C34.8192 222.463 34.8002 222.461 34.7813 222.46C31.6123 222.215 28.2476 222.043 25.1848 223.536C25.1797 223.538 25.1745 223.541 25.1694 223.544C20.9159 225.896 16.9884 229.422 15.55 234.282C15.4327 234.722 15.3441 235.171 15.289 235.626C15.2867 235.645 15.2844 235.664 15.2822 235.683C15.2763 235.741 15.2695 235.8 15.2791 235.896C15.2858 235.944 15.2914 236.006 15.3423 236.103C15.3822 236.2 15.5606 236.342 15.7013 236.346C15.965 236.353 16.0037 236.28 16.0727 236.251C16.1324 236.214 16.1748 236.181 16.2148 236.148C16.3686 236.021 16.4807 235.904 16.5959 235.79Z" fill="black"/>
  <path d="M16.1265 237.217C16.2224 237.265 16.3334 237.273 16.4352 237.239C16.5369 237.205 16.621 237.132 16.6689 237.036C16.7169 236.94 16.7248 236.829 16.6909 236.727C16.6569 236.626 16.584 236.541 16.4881 236.494C16.4881 236.494 16.4881 236.494 16.4881 236.494C16.3898 236.451 16.3349 236.395 16.0943 236.345C16.0296 236.341 15.906 236.308 15.7228 236.434C15.542 236.579 15.5408 236.745 15.5364 236.813C15.5381 236.963 15.5646 237.021 15.5842 237.09C15.5865 237.097 15.5887 237.104 15.5911 237.111C15.7385 237.505 15.9113 237.791 16.1034 238.098C16.3136 238.426 16.5491 238.738 16.8277 239.022C16.8314 239.026 16.8351 239.029 16.8389 239.033C19.8077 241.072 23.041 240.373 26.0705 240.327C26.0915 240.326 26.1033 240.325 26.1151 240.324C31.5493 239.891 37.0996 239.698 42.4791 239.983C42.4791 239.983 42.4791 239.983 42.4791 239.983L42.4998 239.985C43.2427 240.053 44.0886 239.963 44.8126 239.696C45.3585 239.503 45.8633 239.246 46.3439 238.961C46.4535 238.896 46.5328 238.79 46.5644 238.667C46.5959 238.543 46.5771 238.412 46.5121 238.303C46.4472 238.193 46.3413 238.114 46.2178 238.082C46.0944 238.051 45.9634 238.07 45.8538 238.135C45.8538 238.135 45.8538 238.135 45.8538 238.135C45.4116 238.397 44.9576 238.626 44.4934 238.789C43.8656 239.014 43.252 239.084 42.5649 239.027L42.5856 239.028C42.5855 239.028 42.5855 239.028 42.5855 239.028C37.0099 238.73 31.5405 238.931 26.0335 239.366C26.0215 239.367 26.0096 239.368 25.9976 239.369C23.0891 239.479 19.6261 239.919 17.4699 238.399C17.4675 238.397 17.4651 238.394 17.4627 238.392C17.2276 238.157 17.004 237.898 16.8033 237.622C16.6232 237.374 16.4419 237.084 16.3564 236.85C16.3552 236.846 16.3542 236.843 16.3533 236.84C16.3433 236.815 16.3427 236.779 16.3448 236.831C16.3414 236.851 16.3509 236.964 16.2104 237.079C16.0671 237.175 15.9968 237.143 15.9796 237.145C15.9324 237.131 16.0496 237.175 16.1265 237.217Z" fill="black"/>
  <path d="M57.397 193.522C57.397 193.399 57.348 193.28 57.2609 193.193C57.1737 193.106 57.0554 193.057 56.9322 193.057C56.8089 193.057 56.6906 193.106 56.6035 193.193C56.5163 193.28 56.4673 193.399 56.4673 193.522C56.4673 194.185 56.4673 194.851 56.4675 195.517C56.4685 201.851 56.4833 208.178 56.5232 214.51C56.5232 214.51 56.5232 214.511 56.5232 214.511C56.5655 218.289 56.7114 222.064 57.4354 225.828C57.4354 225.829 57.4355 225.829 57.4355 225.829L57.4295 225.794C57.6855 227.801 58.7693 229.649 60.2508 230.966C60.3959 231.097 60.5442 231.223 60.6963 231.345C60.6965 231.345 60.6966 231.345 60.6968 231.346L60.7787 231.398C61.2606 231.643 61.773 231.775 62.2361 231.889C62.3557 231.919 62.4822 231.901 62.588 231.837C62.6937 231.774 62.7699 231.671 62.7998 231.551C62.8297 231.432 62.8108 231.305 62.7474 231.199C62.684 231.094 62.5811 231.017 62.4615 230.988C62.4615 230.988 62.4615 230.988 62.4615 230.988C61.9953 230.873 61.5722 230.759 61.197 230.568L61.2789 230.621C61.2788 230.621 61.2786 230.62 61.2784 230.62C61.1398 230.509 61.0048 230.394 60.873 230.276C59.5272 229.075 58.5787 227.443 58.3509 225.671L58.3449 225.636C58.3449 225.636 58.3448 225.635 58.3448 225.635C57.6472 222.016 57.4926 218.239 57.4529 214.505C57.4528 214.505 57.4528 214.504 57.4528 214.504C57.413 208.174 57.3982 201.849 57.3972 195.517C57.397 194.851 57.397 194.185 57.397 193.522Z" fill="black"/>
  <path d="M101.461 228.752C101.556 228.704 101.629 228.62 101.663 228.519C101.696 228.418 101.689 228.307 101.641 228.212C101.593 228.116 101.509 228.044 101.408 228.01C101.307 227.976 101.196 227.984 101.101 228.032C101.101 228.032 101.101 228.032 101.101 228.032C101.017 228.074 100.937 228.113 100.892 228.128C100.873 228.136 100.855 228.13 100.917 228.132C100.981 228.116 101.158 228.263 101.154 228.314C101.153 228.311 101.151 228.307 101.15 228.304C101.1 228.161 101.076 228.008 101.073 227.848C101.117 226.33 102.515 224.916 102.815 222.975C102.822 222.918 102.829 222.861 102.836 222.804C103.21 219.961 104.005 217.162 104.408 214.238L104.406 214.253C104.411 214.225 104.415 214.198 104.42 214.17C104.666 212.747 105.02 211.318 105.307 209.869L105.313 209.833C105.314 209.821 105.316 209.809 105.317 209.796C105.408 208.92 105.433 208.084 105.549 207.265C105.6 206.887 105.668 206.514 105.757 206.149C105.784 206.04 105.766 205.924 105.708 205.827C105.649 205.731 105.554 205.661 105.445 205.634C105.335 205.608 105.219 205.625 105.123 205.684C105.026 205.742 104.957 205.837 104.93 205.947C104.93 205.947 104.93 205.947 104.93 205.947C104.832 206.346 104.76 206.748 104.705 207.149C104.584 208.016 104.556 208.886 104.471 209.703C104.469 209.715 104.468 209.726 104.467 209.738L104.472 209.702C104.189 211.133 103.836 212.556 103.583 214.028C103.579 214.056 103.574 214.085 103.569 214.113L103.567 214.129C103.183 216.96 102.401 219.779 102.024 222.7C102.016 222.759 102.009 222.818 102.002 222.876C101.812 224.455 100.399 225.793 100.269 227.859C100.272 228.094 100.309 228.337 100.39 228.568C100.392 228.574 100.394 228.579 100.396 228.585C100.42 228.728 100.683 228.944 100.843 228.933C101.001 228.943 101.077 228.911 101.149 228.89C101.284 228.843 101.374 228.794 101.461 228.752Z" fill="black"/>
  <path d="M17.4182 185.515C17.4496 185.4 17.4341 185.278 17.3749 185.174C17.3158 185.07 17.218 184.995 17.1029 184.963C16.9878 184.932 16.865 184.947 16.7614 185.006C16.6579 185.066 16.582 185.163 16.5506 185.278C16.5506 185.278 16.5506 185.278 16.5506 185.278C16.3709 185.937 16.2142 186.605 16.0688 187.272C15.0234 192.247 14.3544 197.27 13.8847 202.318C13.8845 202.321 13.8842 202.324 13.884 202.327C13.418 207.849 14.0776 213.365 14.5819 218.766L14.5867 218.807C14.5867 218.807 14.5868 218.808 14.5869 218.808C14.8351 220.354 15.1131 221.89 15.4845 223.426C15.4846 223.427 15.4847 223.427 15.4848 223.427C15.506 223.513 15.5288 223.606 15.5559 223.701C15.7723 224.46 16.1817 225.061 16.5693 225.634C16.6455 225.744 16.7624 225.82 16.8945 225.843C17.0265 225.867 17.1629 225.837 17.2735 225.76C17.384 225.683 17.4595 225.565 17.4831 225.433C17.5068 225.301 17.4766 225.165 17.3995 225.056C17.3995 225.056 17.3995 225.056 17.3995 225.056C17.025 224.516 16.6681 223.974 16.5131 223.426C16.4912 223.351 16.471 223.272 16.4493 223.186C16.4492 223.186 16.4491 223.185 16.449 223.185C16.0809 221.703 15.7946 220.178 15.5433 218.654C15.5432 218.654 15.5431 218.653 15.543 218.653L15.5478 218.693C15.0121 213.233 14.3244 207.805 14.7798 202.406C14.7801 202.403 14.7804 202.4 14.7806 202.397C15.2459 197.391 15.9157 192.372 16.9476 187.463C17.0906 186.807 17.2446 186.152 17.4182 185.515Z" fill="black"/>
  <path d="M49.8228 232.557C49.9399 232.557 50.0521 232.51 50.1349 232.428C50.2177 232.345 50.2642 232.233 50.2642 232.116C50.2642 231.999 50.2177 231.886 50.1349 231.803C50.0521 231.721 49.9399 231.674 49.8228 231.674C49.8657 231.671 49.9767 231.699 50.0397 231.767C50.1007 231.831 50.1067 231.874 50.1103 231.884C50.1136 231.906 50.1081 231.86 50.113 231.818C50.1212 231.724 50.147 231.601 50.1784 231.48C50.2417 231.236 50.3282 230.979 50.4201 230.725C50.7574 229.804 51.1621 228.886 51.5711 227.972L51.5926 227.913C51.6039 227.874 51.6152 227.835 51.6265 227.795C52.6711 224.011 53.1908 220.16 53.7112 216.317L53.714 216.289C53.7156 216.265 53.7172 216.242 53.7188 216.218C54.0247 211.115 54.0267 206.037 54.2663 200.966C54.2913 200.411 54.3182 199.857 54.3475 199.301C54.354 199.179 54.3115 199.059 54.2294 198.967C54.1473 198.876 54.0322 198.821 53.9096 198.815C53.7869 198.808 53.6667 198.851 53.5755 198.933C53.4843 199.015 53.4294 199.13 53.423 199.253C53.423 199.253 53.423 199.253 53.423 199.253C53.394 199.811 53.3674 200.368 53.3428 200.925C53.1065 206.012 53.106 211.111 52.8086 216.158C52.8071 216.181 52.8056 216.204 52.804 216.228L52.8068 216.2C52.2946 220.024 51.7949 223.873 50.7773 227.553C50.7663 227.592 50.7553 227.63 50.7444 227.668L50.7659 227.61C50.3526 228.534 49.9448 229.456 49.59 230.424C49.4927 230.694 49.3997 230.967 49.3236 231.259C49.286 231.408 49.2507 231.556 49.2334 231.742C49.2273 231.834 49.2174 231.935 49.2524 232.092C49.272 232.168 49.3059 232.279 49.4156 232.392C49.5283 232.51 49.7078 232.561 49.8228 232.557Z" fill="black"/>
  <path d="M28.818 164.414C28.9096 164.329 28.9635 164.21 28.9676 164.085C28.9718 163.959 28.926 163.837 28.8403 163.746C28.7545 163.654 28.6359 163.6 28.5105 163.596C28.3851 163.592 28.2631 163.638 28.1715 163.723C28.1715 163.723 28.1715 163.723 28.1715 163.723C27.8216 164.052 27.4747 164.392 27.1331 164.727C24.1902 167.608 21.2962 170.586 18.027 172.98C18.0253 172.981 18.0235 172.982 18.0218 172.984C17.0155 173.693 16.0138 174.525 15.3235 175.631C15.3212 175.634 15.3189 175.638 15.3166 175.642L15.2448 175.836C14.8238 178.96 14.9349 182.045 15.1787 185.135C15.1792 185.142 15.1798 185.148 15.1804 185.154C15.2041 185.367 15.2374 185.624 15.3574 185.886C15.6798 186.582 16.3778 186.805 16.8786 186.917C17.0122 186.946 17.1517 186.92 17.2662 186.845C17.3807 186.77 17.4609 186.653 17.489 186.518C17.5172 186.384 17.491 186.244 17.4162 186.13C17.3414 186.015 17.2242 185.935 17.0901 185.908C17.0901 185.908 17.0901 185.908 17.0901 185.908C16.6759 185.828 16.3634 185.669 16.281 185.46C16.2368 185.367 16.2098 185.233 16.1909 185.052C16.1912 185.055 16.1907 185.049 16.1901 185.043C15.95 182.03 15.8477 178.942 16.2492 175.986L16.1774 176.181C16.1794 176.177 16.1814 176.174 16.1834 176.171C16.7714 175.226 17.6117 174.43 18.5673 173.757C18.5691 173.756 18.571 173.754 18.5728 173.753C21.9683 171.264 24.8493 168.284 27.7963 165.402C28.1358 165.069 28.4815 164.73 28.818 164.414Z" fill="black"/>
  <path d="M58.9574 145.558C58.8965 145.649 58.8744 145.761 58.8959 145.869C58.9174 145.977 58.9809 146.071 59.0723 146.132C59.1636 146.193 59.2755 146.215 59.3831 146.194C59.4908 146.172 59.5855 146.109 59.6465 146.017C59.6465 146.017 59.6465 146.017 59.6465 146.017C59.7902 145.802 59.9339 145.586 60.0777 145.37C60.1495 145.261 60.2214 145.152 60.2931 145.043C60.3289 144.988 60.3648 144.933 60.401 144.877C60.4188 144.849 60.4373 144.82 60.456 144.79C60.4652 144.776 60.4747 144.76 60.4858 144.742C60.4908 144.733 60.4973 144.722 60.5043 144.71C60.5081 144.703 60.5139 144.692 60.5207 144.678C60.5264 144.665 60.534 144.653 60.5478 144.608C60.5328 144.599 60.6218 144.576 60.5155 144.296C60.4545 144.131 60.1587 144.05 60.0987 144.08C60.0434 144.087 60.0092 144.1 59.9835 144.111C59.8894 144.157 59.8832 144.175 59.8644 144.19C59.8564 144.197 59.8483 144.205 59.8402 144.212C59.7873 144.262 59.7348 144.312 59.6827 144.363C56.6308 147.623 54.8219 151.67 54.2042 156.165C54.2034 156.207 54.2034 156.249 54.2041 156.29C54.4657 158.047 55.674 158.662 56.1484 159.651C56.1607 159.673 56.1727 159.694 56.1845 159.716C57.2636 161.583 54.8901 163.472 53.7957 165.862L53.7491 166.091C53.749 166.145 53.7493 166.199 53.75 166.254C53.8341 168.949 54.4399 171.47 54.9426 173.998L54.9353 173.954C54.9365 173.964 54.9377 173.974 54.9389 173.983C54.9475 174.054 54.9535 174.121 54.9566 174.185C54.9815 174.642 54.8362 175.197 54.6741 175.75C54.6295 175.9 54.6463 176.061 54.7207 176.199C54.7952 176.336 54.9213 176.439 55.0712 176.483C55.2211 176.528 55.3827 176.511 55.5202 176.437C55.6578 176.362 55.7602 176.236 55.8048 176.086C55.8048 176.086 55.8048 176.086 55.8048 176.086C55.9734 175.491 56.164 174.874 56.1349 174.128C56.1302 174.03 56.1211 173.933 56.1101 173.842C56.1086 173.83 56.1071 173.818 56.1056 173.806L56.0983 173.762C55.5934 171.241 55.0025 168.707 54.9296 166.238C54.929 166.189 54.9287 166.141 54.9288 166.093L54.8822 166.322C55.3177 165.31 56.1368 164.357 56.8046 163.241C57.4795 162.195 58.0312 160.491 57.2194 159.149C57.2039 159.121 57.1882 159.093 57.1723 159.065C56.5085 157.891 55.3058 157.041 55.2558 156.261C55.2546 156.235 55.254 156.206 55.254 156.175C55.71 152.213 57.4275 147.928 60.2618 144.955C60.3098 144.908 60.358 144.862 60.4065 144.817C60.4139 144.81 60.4213 144.803 60.4287 144.796C60.4124 144.808 60.408 144.825 60.3152 144.87C60.2898 144.881 60.2558 144.894 60.2008 144.902C60.1411 144.931 59.8458 144.85 59.785 144.686C59.6791 144.406 59.7674 144.386 59.7523 144.378C59.7653 144.335 59.7712 144.327 59.7747 144.319C59.7789 144.31 59.78 144.308 59.7799 144.308C59.78 144.308 59.7771 144.313 59.7744 144.318C59.7684 144.328 59.7609 144.34 59.7534 144.352C59.738 144.377 59.7209 144.404 59.7043 144.429C59.6703 144.482 59.6353 144.536 59.6003 144.589C59.5302 144.696 59.4588 144.804 59.3875 144.912C59.2447 145.127 59.1012 145.342 58.9574 145.558Z" fill="black"/>
  <path d="M33.6762 166.721C33.5714 166.694 33.4601 166.709 33.3667 166.764C33.2732 166.818 33.2053 166.908 33.1779 167.013C33.1505 167.117 33.1659 167.229 33.2206 167.322C33.2753 167.415 33.3648 167.483 33.4696 167.511C33.4696 167.511 33.4696 167.511 33.4696 167.511C33.7903 167.596 34.1308 167.725 34.464 167.862C37.856 169.369 41.1429 171.333 44.1452 173.526L44.1885 173.555C44.19 173.555 44.1915 173.556 44.193 173.557C46.2397 174.754 48.3521 175.929 50.2482 177.255C50.2486 177.255 50.249 177.256 50.2494 177.256C50.6598 177.56 51.0446 177.868 51.4307 178.199C51.7089 178.437 51.9859 178.681 52.2609 178.927C52.3407 178.998 52.4456 179.035 52.5525 179.029C52.6595 179.024 52.7598 178.976 52.8314 178.896C52.9029 178.816 52.94 178.712 52.9343 178.605C52.9287 178.498 52.8808 178.397 52.8014 178.325C52.8014 178.325 52.8014 178.325 52.8014 178.325C52.5247 178.075 52.2448 177.826 51.9603 177.581C51.5685 177.243 51.1533 176.91 50.7392 176.603C50.7388 176.602 50.7384 176.602 50.738 176.602C48.7315 175.2 46.6641 174.058 44.6012 172.85C44.5997 172.849 44.5982 172.848 44.5967 172.848L44.64 172.876C41.5414 170.618 38.2971 168.675 34.7756 167.107C34.4226 166.963 34.0644 166.824 33.6762 166.721Z" fill="black"/>
  <path d="M62.5666 178.977C62.4801 179.009 62.4099 179.074 62.3714 179.158C62.3329 179.242 62.3293 179.338 62.3613 179.424C62.3933 179.51 62.4584 179.581 62.5422 179.619C62.626 179.658 62.7216 179.661 62.8081 179.629C62.8081 179.629 62.8081 179.629 62.8081 179.629C63.2141 179.479 63.6219 179.329 64.0299 179.181C69.713 177.122 75.474 175.262 81.3018 173.669C81.2971 173.67 81.2972 173.67 81.2972 173.67C82.5667 173.352 83.8294 173.01 85.0983 172.935C85.0983 172.935 85.0983 172.935 85.0984 172.935C85.5426 172.905 85.9906 172.891 86.4408 172.884C86.8717 172.878 87.3047 172.878 87.7393 172.878C87.831 172.878 87.919 172.842 87.9838 172.777C88.0486 172.712 88.085 172.624 88.085 172.532C88.085 172.441 88.0486 172.353 87.9838 172.288C87.919 172.223 87.831 172.187 87.7393 172.187C87.3047 172.187 86.8686 172.187 86.4305 172.193C85.9729 172.2 85.5132 172.214 85.0517 172.245C85.0516 172.245 85.0516 172.245 85.0515 172.245C83.6928 172.328 82.4003 172.678 81.1241 172.996C81.1241 172.996 81.1241 172.996 81.124 172.996C75.2677 174.597 69.4938 176.462 63.7924 178.528C63.3831 178.676 62.974 178.826 62.5666 178.977Z" fill="black"/>
  <path d="M93.1566 133.939C93.1566 134.028 93.1922 134.114 93.2556 134.178C93.319 134.241 93.4049 134.277 93.4945 134.277C93.5841 134.277 93.6701 134.241 93.7335 134.178C93.7968 134.114 93.8324 134.028 93.8324 133.939C93.8324 133.831 93.8326 133.722 93.8302 133.608C93.8289 133.551 93.8272 133.493 93.8225 133.429C93.8199 133.396 93.8172 133.362 93.8096 133.317C93.8048 133.292 93.8021 133.269 93.7833 133.216C93.7689 133.188 93.7723 133.154 93.6791 133.063C93.6314 133.014 93.4942 132.956 93.3865 132.982C93.2795 133.005 93.2435 133.043 93.2114 133.069C93.2029 133.077 93.1945 133.085 93.1861 133.093C92.8291 133.432 92.6493 133.871 92.5421 134.287C91.9205 138.256 93.6363 141.96 93.1657 145.538C93.1434 145.642 93.1209 145.746 93.0981 145.852C91.9656 151.139 90.7158 156.398 89.7753 161.746L89.7794 161.726C89.772 161.758 89.7646 161.791 89.7572 161.823C89.3529 163.623 88.9004 165.399 88.5185 167.227C88.5043 167.3 88.4905 167.373 88.4779 167.444L88.4748 167.465C88.474 167.473 88.4731 167.481 88.4723 167.488C88.4116 168.055 88.416 168.606 88.4151 169.147C88.4151 169.237 88.4509 169.324 88.5147 169.387C88.5784 169.451 88.6648 169.487 88.755 169.487C88.8451 169.487 88.9315 169.451 88.9953 169.387C89.059 169.324 89.0948 169.237 89.0948 169.147C89.0953 168.606 89.0928 168.073 89.1479 167.562C89.1487 167.555 89.1494 167.548 89.1502 167.542L89.1472 167.563C89.1588 167.497 89.1719 167.427 89.1855 167.358C89.5581 165.573 90.0152 163.775 90.4199 161.974C90.4274 161.941 90.4348 161.909 90.4422 161.876L90.4463 161.855C91.3772 156.56 92.6297 151.282 93.7624 145.995C93.7853 145.89 93.8078 145.785 93.8301 145.682C94.3187 141.725 92.6114 138.02 93.197 134.454C93.2848 134.108 93.4299 133.791 93.6503 133.584C93.6555 133.579 93.6607 133.574 93.666 133.569C93.6395 133.591 93.6086 133.625 93.5084 133.647C93.4073 133.671 93.2768 133.616 93.2344 133.572C93.1509 133.489 93.1602 133.468 93.1504 133.453C93.1408 133.425 93.1435 133.429 93.1435 133.431C93.1447 133.438 93.1471 133.458 93.1486 133.479C93.1518 133.522 93.1535 133.572 93.1546 133.623C93.1567 133.725 93.1566 133.831 93.1566 133.939Z" fill="black"/>
  <path d="M24.4322 136.022C24.3561 136.022 24.2831 136.052 24.2292 136.106C24.1754 136.159 24.1451 136.232 24.1451 136.309C24.1451 136.385 24.1754 136.458 24.2292 136.512C24.2831 136.565 24.3561 136.596 24.4322 136.596C24.2883 136.598 24.2069 136.472 24.2028 136.45C24.1913 136.422 24.1928 136.417 24.1925 136.418C24.1931 136.421 24.194 136.442 24.1931 136.464C24.1915 136.509 24.185 136.568 24.1778 136.621C24.1625 136.733 24.1397 136.855 24.1166 136.971C24.068 137.211 24.0129 137.447 23.9545 137.688C23.5405 139.357 23.0587 141.02 22.5854 142.686L22.5773 142.724C22.5737 142.748 22.5702 142.772 22.5667 142.797C21.639 149.737 20.9829 156.735 21.7798 163.783L21.7822 163.793C21.7829 163.796 21.7835 163.798 21.7841 163.801C21.8362 164.011 21.8928 164.228 21.9578 164.441C22.1074 164.931 22.2872 165.401 22.4729 165.868C22.5011 165.939 22.5562 165.995 22.6262 166.025C22.6961 166.055 22.7752 166.057 22.8459 166.028C22.9166 166 22.9733 165.945 23.0033 165.875C23.0334 165.805 23.0344 165.726 23.0062 165.655C22.8235 165.196 22.6482 164.736 22.5072 164.274C22.4457 164.073 22.3933 163.871 22.3412 163.662C22.3406 163.659 22.3399 163.657 22.3393 163.654L22.3418 163.665C21.5711 156.833 22.2085 149.758 23.1351 142.878C23.1386 142.854 23.1421 142.83 23.1456 142.806L23.1375 142.844C23.6116 141.175 24.0926 139.515 24.5125 137.824C24.5719 137.579 24.6283 137.338 24.6795 137.084C24.704 136.962 24.7285 136.831 24.7468 136.698C24.7553 136.635 24.7639 136.563 24.7669 136.485C24.768 136.443 24.7695 136.407 24.7619 136.344C24.7584 136.318 24.7522 136.275 24.7298 136.222C24.7128 136.171 24.6103 136.019 24.4322 136.022Z" fill="black"/>
</svg>