<svg width="406" height="852" viewBox="0 0 406 852" fill="none" xmlns="http://www.w3.org/2000/svg">
<path d="M377.168 14.8901C377.226 14.9342 377.299 14.9534 377.371 14.9434C377.444 14.9335 377.509 14.8952 377.553 14.8369C377.597 14.7787 377.617 14.7054 377.607 14.633C377.597 14.5607 377.558 14.4952 377.5 14.4511C377.5 14.4511 377.5 14.4511 377.5 14.4511C367.288 6.04672 354.273 1.51918 341.151 0.617557C337.8 0.307859 334.422 0.124207 331.047 0.0150838C330.886 0.00990666 330.725 0.0048843 330.563 1.49459e-05C308.735 0.283651 287.317 4.599 265.565 5.12182C265.271 5.13484 264.975 5.14767 264.679 5.16031C263.414 5.23647 262.119 5.27747 260.891 5.88838C260.261 6.17025 259.782 7.01208 259.934 7.711C260.034 8.404 260.325 8.98655 260.597 9.55715C260.724 9.81806 260.855 10.0752 260.984 10.3316C262.27 12.9294 263.365 15.6433 264.218 18.4139C264.308 18.7121 264.394 19.0107 264.474 19.31C265.102 21.2929 265.115 23.6034 263.266 24.7545C263.003 24.9502 262.723 25.1283 262.433 25.2945C243.884 36.2322 221.841 29.9687 201.675 27.0355C201.455 27.0077 201.236 26.9807 201.018 26.9544C189.406 25.2247 177.491 27.1473 166.49 30.7267C166.324 30.7602 166.159 30.7917 165.995 30.8214C164.719 31.0653 163.373 31.0024 162.021 31.3895C161.846 31.4418 161.672 31.5031 161.501 31.5748C160.334 32.0705 159.316 32.9594 158.77 34.1353C158.687 34.3144 158.617 34.4997 158.561 34.6898C158.187 35.9654 158.494 37.3008 159.028 38.4293C159.114 38.6114 159.207 38.7899 159.306 38.9647C161.813 43.6688 166.952 45.9163 170.545 49.2351C170.62 49.3227 170.695 49.4183 170.76 49.5094C171.67 50.7802 171.74 52.5317 171.249 54.0314C171.208 54.1572 171.163 54.2817 171.115 54.4053C164.06 65.8778 148.338 66.1594 136.107 69.7113C136.046 69.7257 135.986 69.7402 135.925 69.7546C124.594 72.7171 112.617 76.2127 104.249 84.9922C104.159 85.1064 104.072 85.2204 103.988 85.3343C103.753 85.6332 103.646 86.0937 103.782 86.4705C103.915 86.8561 104.14 87.1045 104.395 87.3483C104.895 87.8046 105.446 88.1221 106.007 88.4185C107.151 89.0083 108.313 89.4504 109.499 89.8679C111.871 90.6912 114.283 91.3556 116.704 91.9766C121.552 93.2084 126.433 94.237 131.334 95.21C131.504 95.2436 131.674 95.2771 131.844 95.3103C154.272 99.706 177.149 101.01 199.895 102.246C199.898 102.246 199.901 102.246 199.904 102.246C216.983 103.208 233.958 106.174 249.983 112.217C250.119 112.266 250.256 112.314 250.393 112.363C262.902 117.992 267.799 132.278 276.767 142.229C276.802 142.27 276.836 142.31 276.871 142.35C281.142 147.479 288.345 149.401 294.76 148.227C294.795 148.22 294.829 148.214 294.863 148.208C301.396 147.073 305.996 141.651 312.213 140.451C312.267 140.441 312.321 140.431 312.375 140.422C321.722 139.013 331.361 141.689 339.709 145.941C339.714 145.944 339.719 145.947 339.724 145.95C348.066 150.877 352.59 160.198 360.329 166.21C360.363 166.237 360.397 166.264 360.431 166.29C364.7 169.374 370.171 168.17 374.783 167.033C374.804 167.027 374.825 167.022 374.847 167.016C382.974 163.898 384.681 154.525 386.866 147.213C388.823 139.495 390.134 131.646 391.633 123.852C391.667 123.671 391.701 123.49 391.734 123.309C393.517 113.394 392.948 103.285 392.202 93.3301C392.194 93.2265 392.186 93.1232 392.178 93.0203C391.717 87.1806 391.205 81.3819 390.484 75.5626C389.644 68.6486 388.365 61.7733 386.483 55.0621C386.482 55.0568 386.48 55.0515 386.479 55.0463L386.467 55.0112C384.703 50.68 383.448 46.127 381.903 41.6745C381.889 41.6338 381.875 41.5931 381.861 41.5524L381.814 41.4668C381.587 41.1509 381.077 40.8388 380.606 40.9771C380.159 41.0934 379.862 41.3633 379.59 41.6187C379.058 42.1439 378.64 42.7257 378.213 43.2902C378.168 43.3507 378.148 43.4268 378.159 43.5017C378.17 43.5765 378.21 43.6441 378.27 43.6895C378.331 43.7348 378.407 43.7543 378.482 43.7436C378.556 43.7329 378.624 43.6929 378.669 43.6324C378.669 43.6324 378.669 43.6324 378.669 43.6324C379.094 43.0694 379.511 42.4964 379.987 42.0279C380.223 41.7988 380.492 41.5899 380.736 41.5322C380.973 41.4724 381.175 41.5827 381.369 41.8238L381.322 41.7382C381.336 41.7787 381.35 41.8192 381.364 41.8597C382.904 46.2987 384.153 50.8403 385.941 55.2319L385.929 55.1969C385.93 55.2021 385.932 55.2074 385.933 55.2127C387.809 61.9041 389.079 68.7338 389.918 75.6331C390.637 81.4377 391.149 87.2299 391.609 93.0648C391.617 93.1677 391.625 93.2709 391.633 93.3745C392.38 103.315 392.94 113.386 391.173 123.206C391.14 123.386 391.107 123.566 391.073 123.745C389.573 131.545 388.262 139.389 386.313 147.071C384.185 154.354 382.285 163.63 374.696 166.466C374.676 166.471 374.656 166.477 374.636 166.482C370.074 167.627 364.702 168.711 360.781 165.84C360.749 165.815 360.718 165.791 360.687 165.766C353.039 159.848 348.583 150.552 339.998 145.449C339.992 145.446 339.987 145.443 339.982 145.44C331.509 141.133 321.844 138.429 312.277 139.86C312.221 139.87 312.166 139.88 312.111 139.89C305.606 141.188 301.065 146.583 294.757 147.647C294.724 147.653 294.691 147.659 294.658 147.666C288.406 148.805 281.433 146.94 277.303 141.977C277.268 141.938 277.234 141.898 277.2 141.858C268.264 131.993 263.511 117.697 250.584 111.825C250.447 111.776 250.309 111.728 250.173 111.68C234.123 105.624 217.037 102.637 199.94 101.677C199.937 101.677 199.934 101.677 199.931 101.677C177.171 100.441 154.335 99.1369 131.953 94.7506C131.784 94.7174 131.614 94.6841 131.445 94.6505C126.549 93.6788 121.675 92.6527 116.844 91.4267C114.432 90.8089 112.031 90.1475 109.685 89.3342C108.514 88.9226 107.367 88.4849 106.268 87.918C105.731 87.6358 105.206 87.3272 104.78 86.9357C104.342 86.5347 104.116 86.0716 104.442 85.6683C104.522 85.5598 104.605 85.4509 104.691 85.3417C112.799 76.8099 124.796 73.2225 136.055 70.298C136.116 70.2835 136.176 70.2691 136.237 70.2547C148.478 66.637 164.132 66.652 171.635 54.6087C171.688 54.4748 171.736 54.3399 171.78 54.2033C172.31 52.5778 172.257 50.6502 171.215 49.1842C171.139 49.0789 171.054 48.9705 170.97 48.8726C167.121 45.3372 162.224 43.2478 159.792 38.6896C159.699 38.5261 159.613 38.3596 159.532 38.1903C159.033 37.1389 158.776 35.9328 159.097 34.8477C159.145 34.6844 159.206 34.5242 159.277 34.3684C159.75 33.3448 160.666 32.5276 161.715 32.0827C161.866 32.0192 162.021 31.9644 162.179 31.9172C163.394 31.5626 164.753 31.6145 166.092 31.3634C166.261 31.3331 166.43 31.3008 166.599 31.2666C177.745 27.6572 189.355 25.7932 200.952 27.5012C201.169 27.5274 201.387 27.5543 201.606 27.582C221.675 30.4884 243.912 36.8434 262.706 25.7726C263.012 25.5976 263.31 25.4084 263.595 25.1964C264.48 24.5605 265.257 23.5711 265.393 22.4199C265.544 21.2826 265.276 20.1997 265.006 19.1668C264.924 18.8614 264.836 18.5576 264.745 18.2547C263.879 15.4427 262.78 12.7187 261.476 10.0845C261.346 9.82639 261.216 9.57061 261.091 9.31543C260.558 8.25452 260.011 6.87519 261.156 6.37084C262.176 5.85418 263.474 5.77683 264.702 5.71059C264.999 5.69794 265.295 5.6851 265.589 5.67206C287.347 5.14856 308.875 0.828253 330.546 0.550548C330.708 0.555405 330.869 0.560415 331.029 0.56558C334.396 0.674423 337.763 0.857599 341.101 1.16599C354.187 2.0769 366.983 6.52341 377.168 14.8901Z" fill="black"/>
<path d="M308.44 156.251C308.398 156.314 308.383 156.392 308.398 156.466C308.413 156.541 308.457 156.607 308.52 156.649C308.584 156.691 308.661 156.706 308.736 156.691C308.811 156.676 308.876 156.632 308.918 156.568C308.918 156.568 308.918 156.568 308.918 156.568C309.752 155.496 311.257 154.853 312.615 154.285C317.195 152.524 322.173 151.717 327.08 151.89C327.084 151.89 327.088 151.89 327.093 151.891C333.431 152.497 336.702 159.208 339.217 164.598C339.223 164.611 339.229 164.624 339.235 164.638C343.63 174.653 344.404 186.696 339.823 196.658L339.899 196.571C339.87 196.592 339.842 196.614 339.813 196.635C336.877 198.833 333.254 200.457 329.591 200.052L329.619 200.057C329.607 200.054 329.594 200.052 329.582 200.049C328.341 199.8 327.237 199.196 326.283 198.363C325.159 197.389 324.204 196.214 323.306 194.996C323.261 194.935 323.193 194.894 323.118 194.882C323.043 194.871 322.966 194.89 322.905 194.935C322.843 194.98 322.802 195.047 322.791 195.123C322.779 195.198 322.798 195.275 322.843 195.336C322.843 195.336 322.843 195.336 322.843 195.336C323.756 196.573 324.728 197.774 325.909 198.798C326.901 199.672 328.145 200.351 329.457 200.609C329.47 200.612 329.483 200.615 329.496 200.618L329.525 200.623C333.415 201.046 337.148 199.343 340.158 197.095C340.187 197.073 340.216 197.051 340.245 197.028L340.322 196.942C345.036 186.679 344.203 174.578 339.76 164.406C339.754 164.393 339.748 164.379 339.742 164.366C337.176 158.949 333.993 152.039 327.118 151.317C327.113 151.317 327.109 151.316 327.105 151.316C322.101 151.142 317.084 151.954 312.402 153.752C310.996 154.359 309.505 154.912 308.44 156.251Z" fill="black"/>
<path d="M137.042 119.549C136.958 119.549 136.877 119.583 136.817 119.642C136.757 119.702 136.724 119.783 136.724 119.867C136.724 119.952 136.757 120.033 136.817 120.093C136.877 120.152 136.958 120.186 137.042 120.186C137.446 122.445 138.234 125.925 138.723 128.783C141.769 145.946 144.394 163.199 147.046 180.426C147.1 180.779 147.154 181.133 147.208 181.489C147.918 186.643 149.074 191.828 149.23 196.901C149.2 197.341 149.112 197.755 148.936 198.151C145.031 206.84 137.349 213.106 132.536 221.48C132.258 221.997 131.996 222.53 131.766 223.068C130.48 225.596 131.421 228.915 133.552 230.649C135.592 232.495 138.071 233.661 140.523 234.718C145.394 236.883 150.863 237.979 155.089 240.974C155.218 241.085 155.342 241.2 155.463 241.319C160.19 246.749 159.11 254.774 159.618 261.785L159.716 261.537C159.624 261.625 159.531 261.713 159.439 261.8C157.261 263.84 154.869 265.665 152.277 267.133C151.208 267.734 150.101 268.274 148.956 268.681L148.992 268.671C148.957 268.679 148.922 268.686 148.887 268.694C147.207 269.052 145.446 269.036 143.686 269.039C143.602 269.039 143.521 269.073 143.461 269.133C143.401 269.192 143.368 269.273 143.368 269.358C143.368 269.442 143.401 269.523 143.461 269.583C143.521 269.642 143.602 269.676 143.686 269.676C145.447 269.672 147.242 269.693 149.021 269.316C149.058 269.308 149.095 269.3 149.132 269.292L149.169 269.281C150.362 268.857 151.497 268.302 152.59 267.688C155.237 266.188 157.662 264.336 159.875 262.264C159.969 262.176 160.063 262.087 160.157 261.997L160.263 261.895L160.254 261.749C159.711 254.775 160.956 246.741 155.91 240.866C155.779 240.737 155.644 240.612 155.504 240.492C150.974 237.298 145.619 236.3 140.772 234.132C136.281 232.28 129.758 228.711 132.352 223.318C132.573 222.801 132.826 222.285 133.097 221.782C137.796 213.575 145.516 207.281 149.52 198.405C149.725 197.947 149.834 197.432 149.865 196.946C149.703 191.61 148.547 186.581 147.838 181.393C147.784 181.037 147.729 180.683 147.675 180.33C145.022 163.1 142.398 145.851 139.35 128.669C138.655 125.65 138.754 122.844 137.042 119.549Z" fill="black"/>
<path d="M164.547 315.024C164.617 315.072 164.704 315.089 164.787 315.073C164.87 315.057 164.944 315.008 164.991 314.937C165.039 314.867 165.056 314.78 165.04 314.697C165.024 314.614 164.975 314.54 164.905 314.493C164.905 314.493 164.905 314.493 164.905 314.493C162.005 312.623 159.059 310.79 156.138 308.963C150.436 305.407 144.721 301.878 138.966 298.408C138.882 298.357 138.797 298.307 138.713 298.256C133.227 294.931 126.912 292.568 123.115 287.378C123.048 287.285 122.981 287.192 122.916 287.097C122.123 286.109 122.806 284.902 123.807 284.148C124.793 283.363 125.97 282.775 127.156 282.244C129.543 281.196 132.05 280.39 134.563 279.637C139.6 278.143 144.72 276.915 149.814 275.581C150.172 275.487 150.534 275.395 150.899 275.305C166.667 271.612 183.019 271.253 199.191 270.968C199.418 270.965 199.647 270.962 199.876 270.96C210.68 270.895 221.419 272.384 232.224 273.182L232.204 273.18C232.331 273.196 232.458 273.213 232.587 273.23C242.976 274.604 253.355 276.117 263.583 278.344C264.852 278.626 266.116 278.923 267.375 279.243C267.383 279.245 267.399 279.25 267.415 279.254C269.367 279.881 271.792 280.334 272.967 281.686C273.006 281.759 273.072 281.814 273.152 281.839C273.232 281.863 273.318 281.855 273.392 281.816C273.465 281.777 273.52 281.711 273.545 281.631C273.57 281.551 273.561 281.465 273.522 281.391C273.522 281.391 273.522 281.391 273.522 281.391C271.831 279.499 269.608 279.349 267.589 278.646C267.572 278.641 267.556 278.636 267.54 278.632C266.265 278.307 264.994 278.009 263.72 277.726C253.455 275.487 243.071 273.971 232.669 272.594C232.541 272.578 232.413 272.561 232.287 272.545L232.266 272.543C221.502 271.749 210.736 270.254 199.871 270.32C199.64 270.321 199.41 270.324 199.181 270.327C182.995 270.615 166.626 270.965 150.746 274.683C150.378 274.773 150.013 274.866 149.651 274.961C144.565 276.294 139.441 277.522 134.381 279.023C131.854 279.781 129.331 280.589 126.897 281.658C125.683 282.203 124.477 282.798 123.405 283.649C122.881 284.077 122.353 284.592 122.072 285.295C121.767 286.001 121.959 286.885 122.389 287.462C122.458 287.561 122.527 287.658 122.597 287.754C126.563 293.15 132.968 295.509 138.383 298.805C138.467 298.855 138.551 298.906 138.635 298.957C144.386 302.424 150.099 305.952 155.799 309.507C158.714 311.33 161.678 313.174 164.547 315.024Z" fill="black"/>
<path d="M169.155 136.161C169.071 136.161 168.99 136.194 168.931 136.254C168.872 136.313 168.838 136.394 168.838 136.477C168.838 136.561 168.872 136.642 168.931 136.701C168.99 136.761 169.071 136.794 169.155 136.794C169.122 136.743 169.339 136.973 169.418 137.217C169.516 137.464 169.593 137.741 169.66 138.016C169.794 138.572 169.894 139.147 169.986 139.722C170.182 140.972 170.339 142.233 170.496 143.498C170.501 143.535 170.506 143.572 170.511 143.609C170.716 145.545 172.536 146.835 174.206 147.289L174.294 147.302C174.324 147.303 174.354 147.303 174.384 147.304C189.736 147.587 205.702 150.406 218.386 159.396L218.355 159.371C218.367 159.383 218.379 159.394 218.391 159.405C220.297 161.096 221.707 163.202 222.788 165.513C223.295 166.563 223.766 167.634 224.231 168.715C224.264 168.792 224.326 168.853 224.404 168.884C224.482 168.915 224.569 168.914 224.647 168.881C224.724 168.848 224.784 168.785 224.815 168.707C224.847 168.629 224.845 168.542 224.812 168.465C224.812 168.465 224.812 168.465 224.812 168.465C224.345 167.38 223.872 166.303 223.358 165.237C222.272 162.906 220.769 160.661 218.821 158.94C218.809 158.929 218.797 158.918 218.784 158.907L218.754 158.882C205.903 149.777 189.819 146.958 174.394 146.671C174.364 146.671 174.333 146.67 174.303 146.67L174.391 146.684C172.8 146.234 171.319 145.156 171.137 143.516C171.133 143.484 171.128 143.453 171.124 143.42C170.966 142.153 170.81 140.89 170.611 139.623C170.517 139.039 170.416 138.454 170.275 137.867C170.204 137.575 170.123 137.279 170.005 136.981C169.944 136.831 169.876 136.681 169.767 136.525C169.662 136.382 169.477 136.166 169.155 136.161Z" fill="black"/>
<path d="M168.976 172.751C168.905 172.799 168.856 172.873 168.839 172.956C168.822 173.04 168.839 173.127 168.887 173.198C168.934 173.269 169.008 173.319 169.092 173.336C169.176 173.352 169.263 173.335 169.334 173.288C169.334 173.288 169.334 173.288 169.334 173.288C170.289 172.65 171.262 172.037 172.249 171.449C177.044 168.633 182.166 166.195 187.59 165.045C187.606 165.042 187.621 165.039 187.636 165.036C189.433 164.647 191.442 165.134 192.455 166.67C192.467 166.688 192.479 166.705 192.491 166.723C193.658 168.581 193.88 171.017 193.754 173.256C193.752 173.279 193.751 173.303 193.749 173.326C193.532 176.83 190.683 179.463 187.707 181.188C187.69 181.198 187.673 181.208 187.655 181.219C183.675 183.647 178.462 184.34 174.307 182.159L174.38 182.213C174.378 182.21 174.375 182.208 174.372 182.205C173.388 181.217 173.146 179.65 172.986 178.18C172.986 178.178 172.985 178.176 172.985 178.174C172.885 177.198 172.854 176.221 172.958 175.259C173.076 174.145 173.38 173.056 173.874 172.054C173.911 171.977 173.917 171.889 173.889 171.808C173.861 171.727 173.803 171.66 173.726 171.623C173.649 171.585 173.561 171.58 173.48 171.607C173.399 171.635 173.332 171.694 173.295 171.77C173.295 171.77 173.295 171.77 173.295 171.77C172.768 172.841 172.442 174.009 172.318 175.19C172.207 176.21 172.241 177.235 172.344 178.239C172.344 178.241 172.344 178.243 172.345 178.246C172.52 179.749 172.721 181.433 173.919 182.663C173.922 182.667 173.925 182.67 173.929 182.673L174.002 182.727C178.415 185.043 183.87 184.282 187.983 181.774C188 181.763 188.018 181.753 188.036 181.742C191.065 179.988 194.149 177.197 194.391 173.377C194.393 173.353 194.395 173.328 194.397 173.303C194.517 170.945 194.338 168.483 193.024 166.36C193.01 166.34 192.997 166.32 192.983 166.3C191.823 164.524 189.438 163.969 187.514 164.404C187.498 164.407 187.483 164.41 187.467 164.413C181.908 165.593 176.765 168.052 171.919 170.896C170.923 171.489 169.941 172.108 168.976 172.751Z" fill="black"/>
<path d="M174.692 174.9C174.603 174.9 174.518 174.935 174.455 174.998C174.393 175.061 174.358 175.146 174.358 175.234C174.358 175.323 174.393 175.408 174.455 175.47C174.518 175.533 174.603 175.568 174.692 175.568C174.969 175.568 175.245 175.571 175.518 175.583C176.945 175.643 178.364 175.895 179.746 176.285C179.747 176.286 179.748 176.286 179.75 176.286L179.658 176.245C180.854 177.044 181.43 178.587 181.737 180.064C181.738 180.067 181.739 180.07 181.739 180.073C182.187 181.98 181.796 183.987 180.53 185.47C180.361 185.679 180.181 185.879 179.99 186.074C179.928 186.137 179.893 186.222 179.894 186.311C179.895 186.399 179.931 186.484 179.994 186.546C180.058 186.608 180.143 186.642 180.232 186.642C180.32 186.641 180.405 186.605 180.467 186.541C180.467 186.541 180.467 186.541 180.467 186.541C180.671 186.333 180.865 186.117 181.049 185.891C182.434 184.297 182.884 181.948 182.394 179.94C182.393 179.937 182.392 179.933 182.392 179.93C182.058 178.378 181.49 176.687 180.023 175.685L179.932 175.644C179.93 175.643 179.929 175.643 179.928 175.643C178.503 175.24 177.034 174.978 175.546 174.915C175.262 174.903 174.971 174.9 174.692 174.9Z" fill="black"/>
<path d="M153.35 125.555C153.39 125.635 153.46 125.696 153.545 125.725C153.63 125.753 153.723 125.746 153.803 125.706C153.883 125.666 153.944 125.596 153.973 125.511C154.001 125.426 153.994 125.333 153.954 125.253C153.954 125.253 153.954 125.253 153.954 125.253C153.767 124.93 153.684 124.53 153.151 124.215C152.822 124.048 152.442 124.193 152.251 124.333C152.038 124.48 151.888 124.642 151.744 124.809C151.734 124.822 151.723 124.835 151.712 124.848C149.989 127.205 149.135 129.918 148.537 132.667C148.535 132.677 148.533 132.687 148.531 132.696C147.851 136.147 147.793 139.649 147.778 143.116C147.778 143.488 147.778 143.859 147.778 144.229C147.778 144.318 147.813 144.404 147.876 144.468C147.94 144.531 148.026 144.567 148.115 144.567C148.205 144.567 148.291 144.531 148.354 144.468C148.418 144.404 148.453 144.318 148.453 144.229C148.453 143.859 148.453 143.488 148.454 143.118C148.467 139.663 148.53 136.191 149.194 132.83C149.196 132.821 149.198 132.812 149.2 132.802C149.768 130.143 150.661 127.42 152.233 125.278C152.242 125.267 152.251 125.257 152.26 125.246C152.485 124.957 152.824 124.749 152.862 124.826C152.995 124.878 153.195 125.236 153.35 125.555Z" fill="black"/>
<path d="M234.488 333.919C234.577 333.919 234.662 333.884 234.725 333.821C234.788 333.758 234.824 333.672 234.824 333.583C234.824 333.494 234.788 333.409 234.725 333.346C234.662 333.283 234.577 333.247 234.488 333.247C234.311 333.247 233.957 333.239 233.707 333.494C233.478 333.735 233.432 333.987 233.389 334.202C233.319 334.644 233.335 335.037 233.357 335.44C233.512 337.456 233.928 339.382 234.331 341.327C234.339 341.364 234.347 341.401 234.355 341.439C236.583 351.447 239.193 361.339 241.963 371.211C241.996 371.325 242.028 371.437 242.06 371.547C242.509 373.083 242.941 374.606 243.501 376.124C243.569 376.3 243.648 376.498 243.736 376.684C243.783 376.78 243.825 376.868 243.904 376.985C243.948 377.037 243.968 377.106 244.14 377.199C244.245 377.268 244.504 377.225 244.582 377.122C244.659 377.043 244.679 376.983 244.697 376.94C244.837 376.383 244.776 376.068 244.79 375.662C244.79 375.573 244.754 375.487 244.691 375.424C244.628 375.361 244.543 375.326 244.454 375.326C244.365 375.326 244.279 375.361 244.216 375.424C244.153 375.487 244.118 375.573 244.118 375.662C244.117 376.028 244.122 376.501 244.069 376.701C244.07 376.701 244.067 376.69 244.111 376.642C244.153 376.576 244.364 376.542 244.419 376.588C244.51 376.641 244.463 376.62 244.455 376.6C244.42 376.549 244.38 376.473 244.342 376.394C244.268 376.239 244.193 376.051 244.129 375.884C243.589 374.421 243.151 372.887 242.706 371.361C242.674 371.251 242.642 371.139 242.609 371.025C239.844 361.176 237.232 351.27 235.012 341.298C235.004 341.261 234.996 341.224 234.988 341.187C234.587 339.258 234.174 337.32 234.028 335.399C234.002 334.685 233.939 333.732 234.488 333.919Z" fill="black"/>
<path d="M241.011 332.162C240.928 332.194 240.861 332.258 240.825 332.339C240.789 332.42 240.786 332.513 240.818 332.596C240.85 332.679 240.913 332.746 240.995 332.783C241.076 332.819 241.169 332.821 241.252 332.789C241.252 332.789 241.252 332.789 241.252 332.789C244.057 331.696 246.712 330.323 249.354 328.897C263.848 320.836 277.492 311.332 290.421 300.973C290.448 300.951 290.476 300.929 290.503 300.906C308.266 286.896 324.878 270.768 342.806 257.697C342.813 257.696 342.819 257.695 342.825 257.695L342.51 257.526C347.398 270.885 346.598 285.913 346.16 300.173C346.113 300.957 346.059 301.757 345.999 302.528C345.999 302.528 345.999 302.529 345.999 302.53L346.008 302.474C345.607 304.618 344.303 306.342 342.768 307.878C342.705 307.941 342.67 308.027 342.67 308.116C342.671 308.205 342.707 308.29 342.77 308.353C342.833 308.416 342.919 308.451 343.008 308.45C343.097 308.45 343.182 308.414 343.245 308.351C343.245 308.351 343.245 308.351 343.245 308.351C344.803 306.809 346.253 304.865 346.66 302.637L346.669 302.582C346.669 302.581 346.669 302.58 346.669 302.58C346.729 301.804 346.784 301.001 346.83 300.213C347.247 285.841 348.151 271.021 343.093 257.193L342.988 257.01L342.778 257.025C342.76 257.026 342.743 257.028 342.725 257.03C324.045 270.432 307.949 286.333 290.08 300.384C290.053 300.407 290.026 300.429 289.998 300.451C277.106 310.781 263.468 320.28 249.033 328.307C246.406 329.725 243.76 331.092 241.011 332.162Z" fill="black"/>
<path d="M258.611 393.142C258.548 393.205 258.513 393.29 258.513 393.379C258.513 393.468 258.548 393.554 258.611 393.617C258.674 393.68 258.76 393.715 258.849 393.715C258.938 393.715 259.023 393.68 259.086 393.617C259.086 393.617 259.086 393.617 259.086 393.617C260.357 392.232 261.59 390.801 262.807 389.412C273.248 377.424 283.561 365.315 293.832 353.178C293.834 353.177 293.836 353.175 293.837 353.173C300.558 344.943 306.828 336.357 312.57 327.431C312.572 327.428 312.574 327.425 312.576 327.421C316.449 321.448 320.319 315.442 323.44 308.999C324.249 307.306 324.997 305.579 325.607 303.793C325.636 303.709 325.63 303.617 325.591 303.537C325.551 303.457 325.482 303.396 325.398 303.367C325.313 303.338 325.221 303.344 325.141 303.384C325.061 303.423 325 303.492 324.971 303.577C324.971 303.577 324.971 303.577 324.971 303.577C324.373 305.327 323.635 307.033 322.834 308.709C319.742 315.094 315.882 321.089 312.013 327.055C312.011 327.058 312.009 327.061 312.007 327.064C306.271 335.98 300.028 344.53 293.32 352.744C293.323 352.741 293.321 352.743 293.319 352.745C283.05 364.879 272.737 376.987 262.301 388.971C261.093 390.35 259.826 391.817 258.611 393.142Z" fill="black"/>
<path d="M182.767 339.12C182.767 339.034 182.733 338.951 182.672 338.891C182.611 338.83 182.529 338.796 182.443 338.796C182.357 338.796 182.275 338.83 182.214 338.891C182.153 338.951 182.119 339.034 182.119 339.12C182.119 340.992 182.119 342.857 182.118 344.717C182.031 356.236 182.381 367.816 181.395 379.244C181.393 379.254 181.392 379.264 181.391 379.274C181.333 379.734 181.149 380.145 180.814 380.306C180.48 380.478 179.997 380.425 179.55 380.281C178.641 379.982 177.789 379.402 176.996 378.782C176.984 378.772 176.971 378.762 176.958 378.752C170.977 374.064 166.022 368.289 160.763 362.753C160.754 362.744 160.745 362.735 160.736 362.726C156.702 358.528 156.653 351.953 157.839 346.429L157.699 346.632C157.704 346.628 157.709 346.625 157.714 346.622C163.081 343.019 169.545 341.585 175.92 340.655C176.13 340.624 176.342 340.594 176.555 340.563L176.573 340.56C176.574 340.56 176.576 340.56 176.577 340.559C178.204 340.237 179.817 339.846 181.417 339.444C181.503 339.422 181.576 339.368 181.622 339.292C181.668 339.216 181.681 339.125 181.66 339.039C181.638 338.953 181.583 338.879 181.507 338.833C181.431 338.788 181.34 338.774 181.255 338.796C181.255 338.796 181.255 338.796 181.255 338.796C179.654 339.198 178.059 339.585 176.447 339.904C176.445 339.905 176.444 339.905 176.442 339.905L176.461 339.902C176.247 339.932 176.034 339.963 175.823 339.994C169.423 340.929 162.841 342.382 157.35 346.071C157.345 346.074 157.34 346.078 157.335 346.081L157.224 346.154L157.195 346.284C156 351.936 155.98 358.674 160.278 363.185C160.286 363.193 160.295 363.202 160.304 363.211C165.513 368.694 170.526 374.536 176.555 379.26C176.568 379.27 176.582 379.281 176.595 379.291C177.424 379.936 178.3 380.549 179.353 380.899C179.874 381.058 180.499 381.179 181.106 380.885C181.724 380.578 181.966 379.904 182.034 379.358C182.035 379.348 182.036 379.338 182.037 379.328C183.035 367.77 182.678 356.253 182.767 344.718C182.767 342.857 182.767 340.992 182.767 339.12Z" fill="black"/>
<path d="M236.926 353.739C236.985 353.68 237.019 353.599 237.019 353.515C237.019 353.432 236.986 353.351 236.926 353.292C236.867 353.232 236.787 353.199 236.703 353.199C236.619 353.199 236.538 353.232 236.479 353.291C236.479 353.291 236.479 353.291 236.479 353.291C235.159 354.608 233.869 355.983 232.611 357.382C220.049 371.959 208.537 387.596 200.138 405.023C200.11 405.094 200.083 405.164 200.058 405.233C199.407 406.947 199.062 409.011 199.935 410.794C199.975 410.877 200.016 410.957 200.059 411.037C202.485 415.28 206.634 418.167 208.119 422.681C208.131 422.716 208.142 422.75 208.154 422.785L208.139 422.714C208.544 430.298 205.412 437.73 201.508 444.195C201.446 444.294 201.384 444.393 201.322 444.491C201.287 444.546 201.252 444.601 201.217 444.655L201.257 444.605C199.902 446.325 199.636 443.463 199.365 442.05C199.351 441.967 199.305 441.893 199.237 441.844C199.169 441.796 199.084 441.776 199.001 441.79C198.918 441.804 198.844 441.85 198.795 441.918C198.747 441.986 198.727 442.071 198.741 442.154C198.741 442.154 198.741 442.154 198.741 442.154C198.886 442.987 198.997 443.831 199.303 444.684C199.385 444.898 199.481 445.115 199.639 445.325C199.787 445.529 200.068 445.756 200.403 445.762C201.06 445.739 201.382 445.352 201.71 445.047L201.75 444.996C201.786 444.941 201.821 444.885 201.856 444.829C201.919 444.73 201.982 444.63 202.044 444.53C205.995 437.966 209.178 430.523 208.769 422.655L208.754 422.584C208.742 422.548 208.73 422.511 208.717 422.475C207.139 417.74 202.899 414.781 200.615 410.735C200.577 410.664 200.541 410.594 200.506 410.521C199.741 408.966 200.025 407.103 200.65 405.455C200.675 405.388 200.701 405.32 200.728 405.251C209.029 388.025 220.581 372.299 233.082 357.805C234.334 356.413 235.617 355.045 236.926 353.739Z" fill="black"/>
<path d="M186.555 378.984C186.555 379.068 186.588 379.149 186.648 379.208C186.707 379.268 186.788 379.301 186.872 379.301C186.956 379.301 187.037 379.268 187.097 379.208C187.156 379.149 187.19 379.068 187.19 378.984C187.19 378.984 187.19 378.984 187.19 378.984C187.19 378.955 187.19 378.933 187.191 378.922C187.181 378.934 187.228 378.865 187.146 379.029C187.124 379.062 187.078 379.117 186.988 379.148C186.893 379.179 186.802 379.157 186.75 379.13C186.649 379.074 186.638 379.028 186.632 379.025C186.621 379.006 186.619 379 186.618 378.998C186.622 379.007 186.64 379.071 186.653 379.123C186.68 379.231 186.704 379.343 186.728 379.461C186.776 379.689 186.821 379.923 186.866 380.157C186.955 380.624 187.041 381.09 187.128 381.561C187.367 382.861 187.604 384.161 187.845 385.464L187.847 385.477C187.877 385.605 187.906 385.732 187.937 385.859C188.997 389.964 190.031 394.028 190.956 398.159C190.977 398.251 190.998 398.344 191.019 398.438C193.499 409.558 195.988 420.697 199.059 431.687C199.315 432.606 199.575 433.524 199.839 434.443C199.864 434.528 199.921 434.6 199.999 434.643C200.076 434.686 200.168 434.696 200.253 434.672C200.338 434.647 200.41 434.59 200.453 434.512C200.495 434.435 200.506 434.343 200.481 434.258C200.481 434.258 200.481 434.258 200.481 434.258C200.217 433.342 199.958 432.425 199.702 431.508C196.635 420.537 194.15 409.418 191.667 398.291C191.645 398.197 191.624 398.104 191.603 398.012C190.677 393.883 189.606 389.782 188.554 385.711C188.524 385.586 188.495 385.461 188.466 385.335L188.469 385.349C188.228 384.046 187.991 382.748 187.752 381.446C187.665 380.975 187.579 380.508 187.489 380.038C187.444 379.802 187.398 379.566 187.35 379.331C187.324 379.209 187.3 379.095 187.269 378.971C187.251 378.902 187.244 378.858 187.203 378.753C187.195 378.734 187.187 378.715 187.169 378.686C187.162 378.68 187.141 378.621 187.035 378.563C186.98 378.535 186.887 378.512 186.789 378.545C186.696 378.576 186.648 378.634 186.623 378.67C186.545 378.815 186.579 378.776 186.566 378.815C186.561 378.842 186.561 378.851 186.559 378.864C186.555 378.917 186.555 378.943 186.555 378.984Z" fill="black"/>
<path d="M362.606 192.952C362.606 193.04 362.641 193.124 362.704 193.186C362.766 193.249 362.85 193.284 362.938 193.284C363.027 193.284 363.111 193.249 363.173 193.186C363.236 193.124 363.271 193.04 363.271 192.952C363.266 192.66 363.285 192.368 363.2 192.005C363.158 191.84 363.044 191.536 362.712 191.443C362.407 191.375 362.224 191.476 362.063 191.545C362.04 191.556 362.018 191.568 361.994 191.581C361.475 191.875 361.169 192.297 360.872 192.703C358.697 196.138 357.435 199.902 356.027 203.618C356.018 203.642 356.009 203.667 356 203.692C350.776 218.281 346.56 233.234 343.331 248.393C343.109 249.452 342.892 250.513 342.681 251.576C342.664 251.662 342.681 251.752 342.73 251.825C342.779 251.898 342.855 251.949 342.942 251.966C343.028 251.983 343.118 251.965 343.191 251.916C343.264 251.867 343.315 251.791 343.332 251.705C343.542 250.645 343.759 249.587 343.981 248.529C347.202 233.407 351.414 218.468 356.624 203.919C356.633 203.895 356.642 203.87 356.651 203.845C358.043 200.158 359.347 196.345 361.414 193.086C361.681 192.712 361.982 192.344 362.309 192.165C362.324 192.157 362.338 192.15 362.352 192.143C362.452 192.09 362.557 192.08 362.537 192.084C362.498 192.066 362.531 192.065 362.558 192.173C362.608 192.374 362.606 192.667 362.606 192.952Z" fill="black"/>
<path d="M359.789 335.521C359.715 335.475 359.626 335.46 359.542 335.48C359.458 335.5 359.385 335.552 359.339 335.626C359.294 335.699 359.279 335.788 359.299 335.872C359.318 335.956 359.371 336.029 359.444 336.075C362.946 338.82 365.774 342.633 368.591 346.236C374.277 353.74 379.348 361.714 383.976 369.936C383.976 369.936 383.976 369.936 383.976 369.936C391.785 384.349 397.102 400.029 401.846 415.714C401.85 415.728 401.854 415.742 401.859 415.756C407.234 432.952 403.276 451.277 397.361 467.915C397.353 467.938 397.345 467.962 397.337 467.986C392.768 482.279 388.042 496.475 382.632 510.474C382.629 510.483 382.626 510.492 382.622 510.501C376.805 526.193 368.516 540.715 360.826 555.591L360.835 555.571C360.828 555.585 360.821 555.598 360.813 555.612C357.265 562.226 353.725 568.835 350.36 575.555C349.965 576.348 349.574 577.145 349.19 577.941L349.197 577.928C349.195 577.933 349.192 577.937 349.19 577.941C347.469 581.206 345.12 584.09 342.756 586.954C342.7 587.021 342.674 587.107 342.682 587.193C342.69 587.279 342.731 587.358 342.798 587.414C342.864 587.469 342.95 587.496 343.036 587.488C343.122 587.48 343.202 587.438 343.257 587.371C343.257 587.371 343.257 587.371 343.257 587.371C345.627 584.5 348.008 581.581 349.765 578.25C349.767 578.246 349.769 578.241 349.772 578.237L349.778 578.224C350.16 577.431 350.55 576.637 350.944 575.845C354.301 569.14 357.841 562.532 361.388 555.921C361.395 555.907 361.402 555.894 361.41 555.88L361.42 555.86C369.057 541.09 377.408 526.451 383.231 510.734C383.235 510.725 383.238 510.716 383.242 510.707C388.655 496.702 393.394 482.464 397.955 468.194C397.963 468.17 397.971 468.147 397.979 468.123C403.9 451.478 407.919 432.945 402.484 415.572C402.48 415.558 402.476 415.544 402.472 415.53C397.715 399.809 392.404 384.126 384.545 369.617C384.545 369.616 384.544 369.616 384.544 369.616C379.904 361.371 374.82 353.377 369.11 345.841C366.251 342.201 363.535 338.458 359.789 335.521Z" fill="black"/>
<path d="M312.297 446.691C312.339 446.613 312.349 446.521 312.323 446.436C312.298 446.35 312.24 446.278 312.161 446.236C312.083 446.194 311.991 446.184 311.906 446.209C311.82 446.235 311.748 446.293 311.706 446.371C311.706 446.371 311.706 446.371 311.706 446.371C310.125 449.838 310.506 453.553 310.619 457.106C311.044 464.624 312.32 472.064 312.407 479.525C312.407 479.593 312.407 479.661 312.407 479.729C312.313 491.341 305.535 501.46 299.199 510.9C299.168 510.946 299.137 510.991 299.106 511.037C292.545 520.491 285.601 529.864 277.11 537.611C277.1 537.62 277.09 537.629 277.079 537.637C273.519 540.761 270.271 544.294 267.808 548.383C267.806 548.387 267.803 548.392 267.8 548.396C265.826 551.82 266.29 555.84 266.631 559.476C266.631 559.479 266.631 559.482 266.632 559.485C268.38 568.533 277.604 572.273 284.493 576.552C284.557 576.589 284.621 576.626 284.686 576.663C298.931 584.717 314.106 591.01 329.743 595.773L329.755 595.776C329.766 595.779 329.777 595.782 329.788 595.785C330.113 595.87 330.44 595.956 330.764 596.041C332.593 596.521 334.425 596.993 336.259 597.449C336.261 597.45 336.263 597.45 336.265 597.451C337.9 597.817 339.416 598.41 340.556 599.583C340.62 599.645 340.705 599.68 340.794 599.679C340.883 599.679 340.969 599.643 341.031 599.579C341.094 599.516 341.128 599.43 341.128 599.341C341.127 599.252 341.091 599.167 341.028 599.104C341.028 599.104 341.028 599.104 341.028 599.104C339.807 597.834 338.057 597.156 336.428 596.799C336.426 596.798 336.424 596.798 336.422 596.797C334.589 596.342 332.762 595.871 330.934 595.391C330.611 595.306 330.284 595.221 329.959 595.135C329.948 595.132 329.937 595.129 329.926 595.126L329.937 595.13C314.35 590.383 299.205 584.1 285.02 576.08C284.956 576.043 284.892 576.007 284.829 575.97C277.921 571.739 268.849 567.819 267.3 559.419C267.3 559.416 267.3 559.412 267.299 559.409C266.948 555.776 266.549 551.883 268.379 548.737C268.382 548.733 268.384 548.729 268.387 548.724C270.791 544.73 274.005 541.227 277.521 538.144C277.531 538.135 277.541 538.127 277.551 538.118C286.144 530.274 293.071 520.906 299.662 511.414C299.693 511.369 299.724 511.323 299.755 511.277C306.089 501.827 312.972 491.624 313.078 479.733C313.079 479.663 313.079 479.594 313.079 479.524C312.989 471.971 311.71 464.54 311.29 457.068C311.162 453.565 310.857 449.801 312.297 446.691Z" fill="black"/>
<path d="M152.885 393.309C152.867 393.218 152.813 393.139 152.736 393.089C152.659 393.038 152.565 393.02 152.474 393.039C152.384 393.058 152.305 393.111 152.254 393.188C152.204 393.265 152.186 393.36 152.204 393.45C152.204 393.45 152.204 393.45 152.204 393.45C152.292 395.906 151.809 398.684 151.503 401.302C150.55 408.532 149.477 415.743 148.518 422.977C148.518 422.982 148.517 422.988 148.516 422.994C145.895 444.649 145.661 466.486 145.736 488.256C145.736 488.26 145.736 488.265 145.736 488.269C145.604 500.559 149.646 512.386 154.231 523.575L154.241 523.597C154.243 523.6 154.244 523.602 154.245 523.604C156.552 528.443 159.436 532.988 162.57 537.314C162.57 537.315 162.57 537.315 162.571 537.316L162.563 537.305C163.409 538.573 164.233 539.87 165.094 541.142C166.592 543.366 168.205 545.526 170.002 547.532C170.063 547.601 170.15 547.643 170.243 547.648C170.335 547.653 170.426 547.621 170.495 547.559C170.564 547.498 170.606 547.411 170.611 547.318C170.616 547.226 170.585 547.135 170.523 547.066C170.523 547.066 170.523 547.066 170.523 547.066C168.752 545.089 167.161 542.958 165.674 540.751C164.819 539.487 163.997 538.196 163.145 536.917L163.138 536.907C163.138 536.906 163.137 536.906 163.137 536.906C160.016 532.595 157.159 528.099 154.871 523.303C154.87 523.301 154.869 523.298 154.868 523.296L154.878 523.319C150.289 512.115 146.304 500.446 146.431 488.264C146.431 488.259 146.431 488.255 146.431 488.25C146.356 466.504 146.593 444.663 149.205 423.086C149.206 423.08 149.207 423.074 149.208 423.068C150.166 415.84 151.238 408.633 152.192 401.391C152.494 398.716 153 396.16 152.885 393.309Z" fill="black"/>
<path d="M199.924 479.987C199.987 480.05 200.072 480.085 200.16 480.085C200.249 480.085 200.334 480.05 200.397 479.987C200.459 479.925 200.494 479.84 200.494 479.751C200.494 479.663 200.459 479.578 200.397 479.515C200.361 479.481 200.321 479.434 200.232 479.374C200.167 479.309 199.871 479.251 199.732 479.369C199.505 479.552 199.508 479.664 199.455 479.774C199.375 479.994 199.334 480.181 199.291 480.38C199.211 480.771 199.153 481.156 199.098 481.544C198.992 482.316 198.908 483.09 198.83 483.86C198.567 486.505 198.37 489.123 198.177 491.781C198.169 491.901 198.16 492.023 198.151 492.146C196.899 510.247 195.934 528.362 194.496 546.43C194.493 546.465 194.49 546.5 194.487 546.536C193.941 553.382 193.196 560.178 192.4 567.007C192.238 568.541 192.085 570.093 192.075 571.658C192.075 571.747 192.109 571.832 192.172 571.895C192.234 571.958 192.319 571.994 192.407 571.994C192.496 571.995 192.581 571.96 192.644 571.898C192.707 571.835 192.743 571.75 192.743 571.662C192.743 571.662 192.743 571.662 192.743 571.662C192.752 570.14 192.902 568.605 193.064 567.078C193.858 560.265 194.606 553.44 195.153 546.59C195.156 546.555 195.159 546.52 195.161 546.484C196.601 528.402 197.565 510.285 198.817 492.194C198.826 492.071 198.835 491.949 198.844 491.829C199.036 489.175 199.233 486.558 199.494 483.927C199.572 483.162 199.656 482.392 199.76 481.635C199.813 481.256 199.87 480.879 199.945 480.516C199.984 480.335 200.025 480.159 200.08 480.008C200.096 479.943 200.174 479.857 200.1 479.927C200.042 479.986 199.859 479.948 199.872 479.937C199.862 479.93 199.892 479.954 199.924 479.987Z" fill="black"/>
<path d="M213.696 564.769C213.63 564.703 213.541 564.667 213.448 564.667C213.356 564.667 213.267 564.703 213.201 564.769C213.136 564.835 213.099 564.923 213.099 565.016C213.099 565.109 213.136 565.198 213.201 565.263C213.201 565.263 213.201 565.263 213.201 565.263C213.965 565.964 214.905 565.804 215.654 565.71C217.924 565.293 219.974 564.389 222.026 563.515L222.05 563.503C222.056 563.5 222.062 563.497 222.067 563.494C231.032 558.811 239.953 553.917 249.323 550.228C249.327 550.227 249.33 550.226 249.333 550.225C250.462 549.84 251.64 549.518 252.763 548.938C253.462 548.577 254.109 548.099 254.665 547.548C254.731 547.483 254.769 547.394 254.769 547.301C254.77 547.209 254.734 547.119 254.669 547.053C254.604 546.987 254.515 546.95 254.422 546.949C254.33 546.948 254.24 546.985 254.174 547.05C254.174 547.05 254.174 547.05 254.174 547.05C253.66 547.559 253.081 547.987 252.44 548.318C251.414 548.85 250.253 549.174 249.104 549.564C249.094 549.567 249.091 549.569 249.088 549.57C239.602 553.305 230.722 558.186 221.74 562.877C221.734 562.88 221.728 562.883 221.722 562.886L221.746 562.874C219.721 563.74 217.654 564.635 215.545 565.019C214.851 565.129 214.067 565.155 213.696 564.769Z" fill="black"/>
<path d="M251.098 575.752C251.008 575.752 250.922 575.787 250.859 575.851C250.795 575.914 250.76 576 250.76 576.089C250.76 576.179 250.795 576.265 250.859 576.328C250.922 576.392 251.008 576.427 251.098 576.427C251.098 576.427 251.098 576.427 251.098 576.427C251.552 576.424 251.966 576.351 252.382 576.267C255.247 575.61 257.916 574.516 260.602 573.463L260.593 573.467C260.594 573.466 260.595 573.466 260.596 573.466C262.283 572.84 264.022 572.376 265.76 571.804C265.761 571.803 265.762 571.803 265.763 571.803C268.311 570.928 270.791 569.966 273.308 569.071C273.697 568.932 274.075 568.796 274.465 568.656C274.55 568.626 274.619 568.564 274.657 568.483C274.695 568.402 274.7 568.309 274.67 568.224C274.64 568.14 274.577 568.071 274.496 568.033C274.415 567.994 274.322 567.99 274.238 568.02C274.238 568.02 274.238 568.02 274.238 568.02C273.847 568.16 273.468 568.295 273.08 568.435C270.564 569.33 268.059 570.3 265.55 571.161C265.549 571.162 265.548 571.162 265.547 571.162C263.843 571.724 262.078 572.195 260.365 572.831C260.363 572.831 260.362 572.832 260.361 572.832L260.351 572.836C257.684 573.883 254.993 574.977 252.245 575.605C251.854 575.685 251.463 575.75 251.098 575.752Z" fill="black"/>
<path d="M305.589 615.078C305.651 615.017 305.685 614.933 305.685 614.846C305.685 614.759 305.651 614.676 305.589 614.614C305.528 614.553 305.444 614.518 305.357 614.518C305.27 614.518 305.187 614.553 305.125 614.614C305.125 614.614 305.125 614.614 305.125 614.614C305.047 614.692 304.967 614.771 304.884 614.862C304.842 614.909 304.8 614.954 304.749 615.028C304.73 615.088 304.668 615.049 304.668 615.339C304.673 615.417 304.755 615.543 304.826 615.58C304.9 615.625 304.947 615.63 304.983 615.635C305.051 615.642 305.084 615.635 305.112 615.632C305.454 615.55 305.602 615.449 305.818 615.351C305.82 615.35 305.822 615.348 305.825 615.347C305.837 615.341 305.85 615.335 305.863 615.328C308.446 613.998 310.736 612.24 312.893 610.346C312.899 610.341 312.905 610.336 312.911 610.33C316.702 606.927 320.096 603.153 323.529 599.433C323.828 599.108 324.126 598.783 324.424 598.458C324.483 598.394 324.513 598.309 324.51 598.222C324.506 598.135 324.468 598.053 324.404 597.994C324.339 597.935 324.255 597.905 324.168 597.908C324.081 597.912 323.999 597.95 323.94 598.014C323.94 598.014 323.94 598.014 323.94 598.014C323.642 598.34 323.344 598.665 323.046 598.99C319.616 602.706 316.221 606.478 312.476 609.839C312.47 609.844 312.464 609.85 312.458 609.855C310.334 611.721 308.06 613.46 305.571 614.741C305.559 614.747 305.546 614.753 305.534 614.759C305.532 614.76 305.53 614.761 305.528 614.762C305.35 614.85 305.099 614.965 305.013 614.983C305.015 614.983 305.019 614.979 305.06 614.983C305.082 614.987 305.116 614.988 305.178 615.026C305.239 615.057 305.311 615.169 305.315 615.234C305.312 615.466 305.285 615.38 305.294 615.394C305.304 615.378 305.337 615.339 305.369 615.304C305.435 615.233 305.512 615.156 305.589 615.078Z" fill="black"/>
<path d="M142.495 580.183C142.406 580.206 142.33 580.262 142.282 580.341C142.235 580.42 142.221 580.514 142.243 580.603C142.266 580.692 142.322 580.768 142.401 580.815C142.48 580.862 142.574 580.876 142.663 580.854C142.663 580.854 142.663 580.854 142.663 580.854C143.292 580.697 143.922 580.539 144.552 580.381C147.777 579.574 150.999 578.75 154.22 577.919C154.22 577.919 154.22 577.919 154.22 577.919C162.316 575.836 170.391 573.664 178.444 571.412C179.071 571.237 179.691 571.063 180.322 570.886C180.41 570.861 180.485 570.802 180.53 570.722C180.575 570.642 180.586 570.548 180.561 570.459C180.536 570.371 180.477 570.296 180.397 570.251C180.317 570.206 180.223 570.195 180.135 570.22C180.135 570.22 180.135 570.22 180.135 570.22C179.504 570.397 178.884 570.571 178.258 570.746C170.208 572.997 162.14 575.167 154.048 577.25C154.047 577.25 154.047 577.25 154.047 577.25C150.827 578.081 147.607 578.904 144.384 579.711C143.754 579.869 143.125 580.026 142.495 580.183Z" fill="black"/>
<path d="M147.121 525.489C147.21 525.459 147.284 525.395 147.326 525.311C147.368 525.227 147.375 525.129 147.345 525.04C147.316 524.95 147.251 524.876 147.167 524.834C147.083 524.792 146.985 524.785 146.896 524.815C146.896 524.815 146.896 524.815 146.896 524.815C146.503 524.936 146.004 525.144 145.671 525.514C145.331 525.875 145.129 526.292 144.969 526.707C144.307 528.612 144.213 530.524 144.079 532.445C144.077 532.475 144.075 532.504 144.074 532.534C143.698 541.682 144.054 550.801 144.616 559.914C144.617 559.926 144.618 559.939 144.619 559.952C144.945 563.918 145.096 567.976 146.632 571.791C146.963 572.58 147.366 573.339 147.813 574.062C147.863 574.142 147.942 574.199 148.034 574.221C148.125 574.242 148.222 574.227 148.302 574.177C148.382 574.128 148.44 574.048 148.461 573.957C148.483 573.865 148.467 573.768 148.418 573.688C148.418 573.688 148.418 573.688 148.418 573.688C147.986 572.989 147.602 572.267 147.287 571.515C145.823 567.897 145.648 563.85 145.328 559.903C145.327 559.89 145.326 559.878 145.325 559.865C144.764 550.786 144.41 541.649 144.784 532.574C144.785 532.545 144.787 532.516 144.789 532.487C144.916 530.598 145.033 528.673 145.633 526.961C145.917 526.201 146.322 525.691 147.121 525.489Z" fill="black"/>
<path d="M241.509 598.09C241.635 598.09 241.757 598.039 241.846 597.95C241.935 597.861 241.986 597.739 241.986 597.613C241.986 597.487 241.935 597.365 241.846 597.276C241.757 597.187 241.635 597.136 241.509 597.136C241.45 597.143 241.388 597.12 241.214 597.217C241.129 597.265 241.009 597.402 240.99 597.56C240.975 597.734 241.005 597.762 241.026 597.827C241.128 598.022 241.183 598.025 241.236 598.072C241.281 598.105 241.324 598.131 241.374 598.159C241.485 598.222 241.527 598.242 241.62 598.289C241.789 598.372 241.928 598.436 242.092 598.51C242.392 598.645 242.692 598.774 243.022 598.914C243.615 599.165 244.268 599.433 244.865 599.674C257.562 604.72 270.362 609.426 283.154 614.165L283.166 614.169C283.29 614.211 283.414 614.253 283.537 614.295C291.313 616.915 299.109 619.546 307.094 621.543C307.13 621.552 307.165 621.561 307.2 621.57C309.086 622.026 310.916 622.585 312.74 623.245C313.981 623.691 315.223 624.17 316.455 624.662C316.572 624.708 316.704 624.707 316.82 624.657C316.936 624.607 317.027 624.513 317.074 624.395C317.121 624.278 317.119 624.147 317.069 624.031C317.019 623.915 316.925 623.823 316.808 623.776C316.808 623.776 316.808 623.776 316.808 623.776C315.569 623.282 314.318 622.799 313.062 622.348C311.223 621.682 309.328 621.103 307.431 620.645C307.396 620.636 307.361 620.627 307.325 620.619C299.395 618.636 291.611 616.01 283.844 613.392C283.721 613.351 283.597 613.309 283.473 613.266L283.484 613.27C270.698 608.534 257.888 603.824 245.222 598.791C244.629 598.551 243.979 598.284 243.394 598.036C243.068 597.899 242.773 597.771 242.484 597.641C242.327 597.57 242.193 597.508 242.043 597.434C241.962 597.394 241.922 597.374 241.846 597.332C241.815 597.314 241.794 597.3 241.79 597.297C241.787 597.304 241.809 597.276 241.901 597.448C241.92 597.506 241.948 597.532 241.934 597.697C241.916 597.848 241.8 597.98 241.723 598.023C241.563 598.11 241.528 598.084 241.509 598.09Z" fill="black"/>
<path d="M197.483 668.449C197.592 668.503 197.717 668.512 197.832 668.474C197.947 668.436 198.042 668.353 198.096 668.245C198.151 668.136 198.16 668.011 198.121 667.896C198.083 667.781 198 667.686 197.892 667.631C197.892 667.631 197.892 667.631 197.892 667.631C197.406 667.405 196.92 667.085 196.174 667.066C195.8 667.058 195.369 667.26 195.133 667.54C194.887 667.817 194.759 668.112 194.658 668.4C194.652 668.416 194.647 668.432 194.641 668.448C193.928 670.534 193.625 672.722 193.609 674.918C196.418 701.592 215.7 722.087 232.521 741.355L232.653 741.452C232.925 741.586 233.2 741.72 233.477 741.856C252.447 750.966 271.807 759.1 291.048 767.535C291.163 767.583 291.274 767.631 291.387 767.679C301.307 771.856 311.346 775.701 321.439 779.421C324.472 780.536 327.514 781.635 330.564 782.72C330.678 782.76 330.804 782.754 330.913 782.702C331.023 782.65 331.107 782.556 331.148 782.442C331.188 782.328 331.182 782.202 331.13 782.093C331.078 781.983 330.984 781.899 330.87 781.858C330.87 781.858 330.87 781.858 330.87 781.858C327.823 780.775 324.785 779.677 321.755 778.563C311.672 774.848 301.639 771.004 291.744 766.837C291.631 766.789 291.52 766.742 291.409 766.695C272.173 758.262 252.805 750.124 233.878 741.034C233.601 740.899 233.327 740.765 233.056 740.632L233.188 740.729C216.425 721.595 197.21 700.876 194.523 674.925C194.539 672.808 194.83 670.719 195.506 668.744C195.511 668.728 195.516 668.713 195.522 668.698C195.598 668.477 195.697 668.278 195.811 668.153C195.927 668.029 196.023 667.985 196.187 667.98C196.528 667.974 197.014 668.213 197.483 668.449Z" fill="black"/>
<path d="M329.585 642.855C329.547 642.74 329.465 642.645 329.356 642.591C329.248 642.536 329.122 642.528 329.007 642.566C328.892 642.604 328.797 642.687 328.743 642.795C328.689 642.904 328.68 643.029 328.718 643.144C328.718 643.144 328.718 643.144 328.718 643.144C329.608 645.805 330.551 648.469 331.512 651.105C335.878 662.779 340.267 674.492 346.526 685.379C346.597 685.496 346.668 685.611 346.738 685.724C355.286 699.974 370.87 708.57 381.386 719.713C381.39 719.748 381.395 719.783 381.399 719.818C380.067 737.823 363.71 750.367 352.68 764.102C352.661 764.124 352.642 764.146 352.623 764.167L352.632 764.157C350.239 766.706 347.795 769.186 345.444 771.801C344.889 772.424 344.343 773.061 343.821 773.72C343.777 773.775 343.734 773.83 343.691 773.885C343.092 774.649 342.542 775.443 341.976 776.189C341.438 776.906 340.691 777.735 340.421 777.261C340.332 777.178 340.215 777.133 340.093 777.137C339.972 777.141 339.858 777.192 339.775 777.281C339.691 777.369 339.647 777.487 339.651 777.608C339.654 777.729 339.706 777.844 339.794 777.927C339.794 777.927 339.794 777.927 339.794 777.927C340.011 778.141 340.398 778.356 340.802 778.303C341.197 778.253 341.46 778.059 341.676 777.886C342.103 777.523 342.401 777.132 342.702 776.745C343.292 775.967 343.829 775.19 344.411 774.448C344.453 774.395 344.495 774.341 344.537 774.288C345.045 773.647 345.58 773.023 346.127 772.409C348.447 769.826 350.901 767.335 353.297 764.785L353.306 764.775C353.325 764.753 353.344 764.731 353.363 764.71C364.39 750.853 380.799 738.802 382.307 719.712C382.302 719.674 382.298 719.636 382.293 719.599C371.019 707.163 356.018 699.461 347.515 685.241C347.446 685.13 347.376 685.018 347.307 684.903C341.131 674.168 336.72 662.429 332.37 650.792C331.412 648.162 330.471 645.504 329.585 642.855Z" fill="black"/>
<path d="M332.078 781.88C331.969 781.934 331.887 782.029 331.848 782.144C331.81 782.259 331.819 782.385 331.873 782.493C331.927 782.602 332.023 782.684 332.138 782.723C332.252 782.761 332.378 782.752 332.486 782.698C332.486 782.698 332.486 782.698 332.486 782.698C333.356 782.256 334.248 781.839 334.474 782.492C334.48 782.503 334.486 782.514 334.491 782.524C337.087 787.649 333.501 793.375 330.158 797.676C327.93 800.501 325.418 803.111 322.865 805.677C322.809 805.733 322.754 805.789 322.698 805.844C313.446 815.433 299.648 817.324 286.849 819.393C286.812 819.401 286.775 819.408 286.738 819.415C274.634 821.561 262.109 821.107 249.98 819.196C249.885 819.178 249.796 819.161 249.715 819.144C244.948 818.055 241.677 822.623 240.04 826.198C238.236 829.985 237.208 834.064 235.876 837.911C235.797 838.128 235.729 838.344 235.672 838.569C234.999 840.901 236.165 843.378 237.772 844.923C237.905 845.058 238.04 845.19 238.177 845.321C251.368 856.081 268.941 850.553 284.179 850.334C284.342 850.324 284.505 850.313 284.668 850.303C310.295 848.553 335.971 847.617 361.546 844.678C361.717 844.653 361.888 844.628 362.058 844.603C372.893 842.187 374.791 829.977 381.389 823.345C381.43 823.301 381.473 823.257 381.515 823.214C384.72 819.909 389.003 817.897 392.812 815.045C392.83 815.032 392.847 815.019 392.864 815.005C401.191 806.076 398.85 793.344 403.923 783.316L403.956 783.191C403.98 783.013 404.003 782.835 404.026 782.657C405.499 769.565 405.895 756.198 402.725 743.234C402.225 741.59 401.674 739.901 400.512 738.448L400.465 738.4C400.426 738.365 400.386 738.329 400.346 738.293C396.449 735.069 392.432 732.285 388.971 728.728C388.878 728.636 388.753 728.585 388.622 728.585C388.492 728.586 388.367 728.638 388.275 728.73C388.183 728.823 388.131 728.948 388.132 729.079C388.132 729.209 388.184 729.334 388.277 729.426C391.763 733.013 395.941 735.923 399.69 739.027C399.729 739.061 399.766 739.095 399.804 739.13L399.758 739.082C400.734 740.287 401.307 741.928 401.78 743.51C404.883 756.167 404.517 769.571 403.049 782.533C403.027 782.71 403.004 782.886 402.98 783.062L403.014 782.937C397.96 793.078 399.9 806.253 392.26 814.228C392.244 814.24 392.229 814.252 392.213 814.264C388.548 817.021 384.175 819.069 380.811 822.526C380.767 822.572 380.722 822.617 380.678 822.663C373.905 829.658 371.76 841.593 361.915 843.629C361.746 843.654 361.576 843.679 361.406 843.704C335.967 846.628 310.216 847.583 284.608 849.34C284.445 849.35 284.282 849.361 284.119 849.371C268.862 849.663 251.24 854.943 238.808 844.659C238.678 844.535 238.55 844.409 238.423 844.28C236.932 842.823 235.997 840.775 236.558 838.795C236.607 838.602 236.666 838.413 236.735 838.224C238.096 834.285 239.107 830.279 240.865 826.591C242.495 823.046 245.473 819.071 249.533 820.04C249.619 820.057 249.711 820.075 249.809 820.094C262.096 822.027 274.626 822.484 286.907 820.313C286.945 820.306 286.982 820.299 287.02 820.291C299.695 818.238 313.859 816.325 323.341 806.493C323.399 806.437 323.456 806.379 323.513 806.322C326.074 803.747 328.609 801.117 330.876 798.241C334.23 793.879 338.17 787.925 335.304 782.107C335.298 782.095 335.292 782.083 335.286 782.071C335.146 781.798 334.908 781.498 334.551 781.347C334.197 781.195 333.838 781.221 333.55 781.282C332.97 781.415 332.522 781.663 332.078 781.88Z" fill="black"/>
<path d="M140.278 607.232C140.338 607.1 140.344 606.949 140.294 606.813C140.243 606.677 140.141 606.567 140.009 606.506C139.877 606.446 139.727 606.44 139.591 606.491C139.455 606.541 139.344 606.643 139.284 606.775C139.284 606.775 139.284 606.775 139.284 606.775C136.98 611.798 134.535 616.743 131.946 621.633C121.722 640.916 109.544 659.109 96.1879 676.397C96.171 676.418 96.1541 676.44 96.1372 676.462C86.6271 688.489 78.5338 701.759 72.575 715.884C72.5554 715.928 72.5357 715.972 72.516 716.015C67.8978 725.981 68.3252 737.472 70.8624 747.856C70.87 747.888 70.8775 747.921 70.8851 747.953C77.3137 767.547 95.9219 778.399 111.401 789.975C111.417 789.987 111.434 789.999 111.451 790.01L111.653 790.152L111.896 790.103C138.912 783.344 162.887 768.349 184.702 751.512L184.721 751.495C184.729 751.487 184.737 751.479 184.746 751.471C187.945 748.441 190.986 745.209 193.731 741.745C197.203 737.377 200.227 732.683 202.91 727.802C202.987 727.662 203.005 727.498 202.96 727.344C202.916 727.191 202.812 727.062 202.673 726.985C202.533 726.908 202.368 726.89 202.215 726.935C202.062 726.979 201.933 727.083 201.856 727.222C201.856 727.222 201.856 727.222 201.856 727.222C199.199 732.055 196.212 736.69 192.789 740.996C190.081 744.413 187.088 747.595 183.917 750.599C183.909 750.607 183.9 750.614 183.892 750.622L183.911 750.605C162.354 767.259 138.247 782.324 111.668 788.967L112.113 789.06C112.097 789.049 112.08 789.037 112.063 789.025C96.618 777.553 78.0601 766.481 71.9693 747.7C71.9618 747.668 71.9543 747.636 71.9468 747.604C69.4379 737.318 69.048 726.156 73.5311 716.472C73.5508 716.429 73.5705 716.385 73.5901 716.341C79.5504 702.227 87.5113 689.144 97.0023 677.131C97.0192 677.109 97.0362 677.088 97.0531 677.066C110.441 659.737 122.652 641.497 132.913 622.144C135.511 617.237 137.965 612.272 140.278 607.232Z" fill="black"/>
<path d="M77.3426 735.828C77.4728 735.785 77.5804 735.692 77.6418 735.569C77.7032 735.446 77.7133 735.304 77.6699 735.174C77.6265 735.044 77.5331 734.936 77.4103 734.875C77.2876 734.813 77.1454 734.803 77.0152 734.846C77.0152 734.846 77.0152 734.846 77.0152 734.846C72.9346 736.336 69.8541 739.219 66.5397 741.631C66.5158 741.649 66.4918 741.667 66.4677 741.685C66.2335 741.861 65.9928 742.018 65.7386 742.16C59.1958 744.989 52.0541 740.044 45.9565 736.718C45.9454 736.711 45.9343 736.705 45.9231 736.698C30.7467 728.113 22.509 711.474 7.05749 702.394C6.90331 702.322 6.74307 702.265 6.57759 702.222C4.93674 701.851 3.69091 702.892 2.83099 703.759C1.94682 704.686 1.27226 705.735 0.707349 706.835C0.636429 706.974 0.568524 707.116 0.503579 707.26C-2.77865 733.14 14.1294 754.814 24.93 776.577C25.0608 776.813 25.1925 777.049 25.325 777.286C32.8017 790.299 40.5005 803.401 51.3854 814.062L51.64 814.296L51.9772 814.221C52.12 814.189 52.2626 814.157 52.4049 814.124C65.0267 811.228 77.2826 806.751 88.6893 800.565C89.567 800.079 90.4454 799.575 91.3036 799.053L91.2771 799.068C91.3045 799.053 91.3318 799.038 91.3591 799.023C94.3177 797.371 97.5042 796.27 100.816 795.451C100.987 795.409 101.133 795.3 101.223 795.149C101.313 794.998 101.34 794.818 101.297 794.648C101.254 794.477 101.145 794.331 100.994 794.241C100.844 794.151 100.663 794.124 100.493 794.167C100.493 794.167 100.493 794.167 100.493 794.167C97.1366 794.994 93.7732 796.155 90.7255 797.86C90.6974 797.876 90.6693 797.891 90.6412 797.906L90.6147 797.922C89.7772 798.432 88.9133 798.928 88.0488 799.406C76.7867 805.515 64.6079 809.968 52.1123 812.833C51.9713 812.865 51.8301 812.897 51.6887 812.928L52.2804 813.086C41.6571 802.694 33.905 789.58 26.4807 776.639C26.3488 776.403 26.2177 776.168 26.0875 775.934C15.2499 754.41 -1.38439 731.889 1.71056 707.804C1.76717 707.679 1.82612 707.556 1.88742 707.436C2.86131 705.539 4.58282 703.176 6.25604 703.493C6.3407 703.514 6.42421 703.544 6.50832 703.582C21.2541 712.102 29.9065 728.954 45.3582 737.662C45.3696 737.669 45.381 737.675 45.3924 737.682C51.6065 740.939 58.5978 746.217 66.2433 743.064C66.5388 742.899 66.8189 742.716 67.0906 742.512C67.1147 742.494 67.1388 742.476 67.1629 742.457C70.475 740.033 73.6122 737.172 77.3426 735.828Z" fill="black"/>
</svg>
