<svg width="401" height="811" viewBox="0 0 401 811" fill="none" xmlns="http://www.w3.org/2000/svg">
<path d="M373.025 14.8901C373.083 14.9342 373.157 14.9534 373.229 14.9434C373.301 14.9335 373.367 14.8952 373.411 14.8369C373.455 14.7787 373.474 14.7054 373.464 14.633C373.454 14.5607 373.416 14.4952 373.358 14.4511C373.358 14.4511 373.358 14.4511 373.358 14.4511C363.146 6.04672 350.13 1.51918 337.009 0.617557C333.658 0.307859 330.28 0.124207 326.904 0.0150838C326.744 0.00990666 326.582 0.0048843 326.42 1.49459e-05C304.593 0.283651 283.175 4.599 261.422 5.12182C261.128 5.13484 260.833 5.14767 260.536 5.16031C259.272 5.23647 257.977 5.27747 256.748 5.88838C256.118 6.17025 255.639 7.01208 255.791 7.711C255.891 8.404 256.182 8.98655 256.454 9.55715C256.582 9.81806 256.712 10.0752 256.841 10.3316C258.127 12.9294 259.223 15.6433 260.075 18.4139C260.165 18.7121 260.251 19.0107 260.332 19.31C260.959 21.2929 260.972 23.6034 259.124 24.7545C258.861 24.9502 258.581 25.1283 258.291 25.2945C239.742 36.2322 217.699 29.9687 197.532 27.0355C197.313 27.0077 197.094 26.9807 196.876 26.9544C185.264 25.2247 173.349 27.1473 162.347 30.7267C162.182 30.7602 162.017 30.7917 161.852 30.8214C160.577 31.0653 159.231 31.0024 157.879 31.3895C157.703 31.4418 157.529 31.5031 157.359 31.5748C156.191 32.0705 155.174 32.9594 154.627 34.1353C154.545 34.3144 154.475 34.4997 154.419 34.6898C154.045 35.9654 154.352 37.3008 154.885 38.4293C154.971 38.6114 155.064 38.7899 155.163 38.9647C157.671 43.6688 162.81 45.9163 166.403 49.2351C166.477 49.3227 166.553 49.4183 166.618 49.5094C167.527 50.7802 167.597 52.5317 167.106 54.0314C167.065 54.1572 167.021 54.2817 166.973 54.4053C159.918 65.8778 144.195 66.1594 131.965 69.7113C131.904 69.7257 131.843 69.7402 131.783 69.7546C120.452 72.7171 108.474 76.2127 100.107 84.9922C100.017 85.1064 99.9296 85.2204 99.8458 85.3343C99.6106 85.6332 99.5039 86.0937 99.6397 86.4705C99.7723 86.8561 99.998 87.1045 100.253 87.3483C100.752 87.8046 101.304 88.1221 101.865 88.4185C103.008 89.0083 104.17 89.4504 105.357 89.8679C107.729 90.6912 110.14 91.3556 112.562 91.9766C117.409 93.2084 122.29 94.237 127.191 95.21C127.361 95.2436 127.531 95.2771 127.701 95.3103C150.13 99.706 173.007 101.01 195.752 102.246C195.755 102.246 195.758 102.246 195.761 102.246C212.841 103.208 229.815 106.174 245.84 112.217C245.977 112.266 246.114 112.314 246.251 112.363C258.76 117.992 263.657 132.278 272.625 142.229C272.659 142.27 272.694 142.31 272.729 142.35C276.999 147.479 284.202 149.401 290.618 148.227C290.652 148.22 290.686 148.214 290.72 148.208C297.253 147.073 301.853 141.651 308.07 140.451C308.125 140.441 308.179 140.431 308.233 140.422C317.579 139.013 327.219 141.689 335.566 145.941C335.571 145.944 335.577 145.947 335.582 145.95C343.924 150.877 348.448 160.198 356.187 166.21C356.221 166.237 356.254 166.264 356.288 166.29C360.558 169.374 366.028 168.17 370.64 167.033C370.662 167.027 370.683 167.022 370.704 167.016C378.831 163.898 380.539 154.525 382.723 147.213C384.68 139.495 385.992 131.646 387.49 123.852C387.525 123.671 387.559 123.49 387.592 123.309C389.375 113.394 388.806 103.285 388.059 93.3301C388.051 93.2265 388.043 93.1232 388.035 93.0203C387.574 87.1806 387.063 81.3819 386.342 75.5626C385.501 68.6486 384.223 61.7733 382.341 55.0621C382.339 55.0568 382.338 55.0515 382.336 55.0463L382.324 55.0112C380.56 50.68 379.305 46.127 377.761 41.6745C377.747 41.6338 377.733 41.5931 377.719 41.5524L377.671 41.4668C377.445 41.1509 376.934 40.8388 376.463 40.9771C376.016 41.0934 375.719 41.3633 375.448 41.6187C374.916 42.1439 374.498 42.7257 374.071 43.2902C374.025 43.3507 374.006 43.4268 374.017 43.5017C374.027 43.5765 374.067 43.6441 374.128 43.6895C374.188 43.7348 374.264 43.7543 374.339 43.7436C374.414 43.7329 374.482 43.6929 374.527 43.6324C374.527 43.6324 374.527 43.6324 374.527 43.6324C374.952 43.0694 375.369 42.4964 375.845 42.0279C376.081 41.7988 376.349 41.5899 376.594 41.5322C376.83 41.4724 377.033 41.5827 377.227 41.8238L377.18 41.7382C377.193 41.7787 377.207 41.8192 377.221 41.8597C378.762 46.2987 380.011 50.8403 381.798 55.2319L381.786 55.1969C381.788 55.2021 381.789 55.2074 381.79 55.2127C383.667 61.9041 384.937 68.7338 385.776 75.6331C386.495 81.4377 387.006 87.2299 387.467 93.0648C387.475 93.1677 387.483 93.2709 387.491 93.3745C388.237 103.315 388.798 113.386 387.031 123.206C386.998 123.386 386.965 123.566 386.93 123.745C385.431 131.545 384.119 139.389 382.171 147.071C380.042 154.354 378.142 163.63 370.554 166.466C370.534 166.471 370.514 166.477 370.494 166.482C365.931 167.627 360.56 168.711 356.638 165.84C356.607 165.815 356.575 165.791 356.544 165.766C348.897 159.848 344.441 150.552 335.855 145.449C335.85 145.446 335.845 145.443 335.839 145.44C327.367 141.133 317.702 138.429 308.134 139.86C308.079 139.87 308.023 139.88 307.968 139.89C301.464 141.188 296.922 146.583 290.614 147.647C290.582 147.653 290.549 147.659 290.515 147.666C284.263 148.805 277.291 146.94 273.16 141.977C273.126 141.938 273.092 141.898 273.057 141.858C264.122 131.993 259.368 117.697 246.441 111.825C246.304 111.776 246.167 111.728 246.03 111.68C229.981 105.624 212.895 102.637 195.798 101.677C195.795 101.677 195.792 101.677 195.789 101.677C173.029 100.441 150.193 99.1369 127.811 94.7506C127.641 94.7174 127.472 94.6841 127.302 94.6505C122.407 93.6788 117.533 92.6527 112.702 91.4267C110.29 90.8089 107.888 90.1475 105.543 89.3342C104.371 88.9226 103.224 88.4849 102.126 87.918C101.588 87.6358 101.064 87.3272 100.637 86.9357C100.199 86.5347 99.9738 86.0716 100.3 85.6683C100.38 85.5598 100.463 85.4509 100.549 85.3417C108.657 76.8099 120.653 73.2225 131.913 70.298C131.973 70.2835 132.034 70.2691 132.094 70.2547C144.335 66.637 159.99 66.652 167.493 54.6087C167.545 54.4748 167.593 54.3399 167.638 54.2033C168.167 52.5778 168.115 50.6502 167.072 49.1842C166.997 49.0789 166.911 48.9705 166.828 48.8726C162.978 45.3372 158.081 43.2478 155.649 38.6896C155.557 38.5261 155.47 38.3596 155.39 38.1903C154.891 37.1389 154.633 35.9328 154.954 34.8477C155.003 34.6844 155.063 34.5242 155.135 34.3684C155.608 33.3448 156.523 32.5276 157.573 32.0827C157.723 32.0192 157.878 31.9644 158.036 31.9172C159.251 31.5626 160.611 31.6145 161.95 31.3634C162.118 31.3331 162.287 31.3008 162.456 31.2666C173.603 27.6572 185.213 25.7932 196.81 27.5012C197.027 27.5274 197.245 27.5543 197.463 27.582C217.533 30.4884 239.769 36.8434 258.564 25.7726C258.87 25.5976 259.167 25.4084 259.453 25.1964C260.337 24.5605 261.114 23.5711 261.25 22.4199C261.401 21.2826 261.133 20.1997 260.864 19.1668C260.781 18.8614 260.694 18.5576 260.603 18.2547C259.737 15.4427 258.637 12.7187 257.333 10.0845C257.204 9.82639 257.074 9.57061 256.949 9.31543C256.416 8.25452 255.869 6.87519 257.014 6.37084C258.033 5.85418 259.331 5.77683 260.559 5.71059C260.857 5.69794 261.152 5.6851 261.447 5.67206C283.205 5.14856 304.732 0.828253 326.404 0.550548C326.565 0.555405 326.726 0.560415 326.887 0.56558C330.254 0.674423 333.621 0.857599 336.958 1.16599C350.044 2.0769 362.841 6.52341 373.025 14.8901Z" fill="black"/>
<path d="M304.297 156.251C304.255 156.314 304.24 156.392 304.255 156.466C304.27 156.541 304.314 156.607 304.378 156.649C304.441 156.691 304.519 156.706 304.594 156.691C304.668 156.676 304.734 156.632 304.776 156.568C304.776 156.568 304.776 156.568 304.776 156.568C305.609 155.496 307.115 154.853 308.473 154.285C313.053 152.524 318.031 151.717 322.938 151.89C322.942 151.89 322.946 151.89 322.95 151.891C329.288 152.497 332.559 159.208 335.074 164.598C335.08 164.611 335.086 164.624 335.092 164.638C339.487 174.653 340.262 186.696 335.68 196.658L335.756 196.571C335.728 196.592 335.699 196.614 335.671 196.635C332.735 198.833 329.112 200.457 325.449 200.052L325.477 200.057C325.464 200.054 325.452 200.052 325.439 200.049C324.199 199.8 323.095 199.196 322.141 198.363C321.017 197.389 320.062 196.214 319.163 194.996C319.118 194.935 319.051 194.894 318.976 194.882C318.9 194.871 318.824 194.89 318.762 194.935C318.701 194.98 318.66 195.047 318.648 195.123C318.637 195.198 318.655 195.275 318.701 195.336C318.701 195.336 318.701 195.336 318.701 195.336C319.614 196.573 320.586 197.774 321.767 198.798C322.759 199.672 324.003 200.351 325.315 200.609C325.328 200.612 325.341 200.615 325.354 200.618L325.382 200.623C329.272 201.046 333.005 199.343 336.015 197.095C336.044 197.073 336.074 197.051 336.103 197.028L336.179 196.942C340.893 186.679 340.06 174.578 335.617 164.406C335.612 164.393 335.606 164.379 335.6 164.366C333.034 158.949 329.85 152.039 322.975 151.317C322.971 151.317 322.967 151.316 322.962 151.316C317.959 151.142 312.941 151.954 308.26 153.752C306.853 154.359 305.362 154.912 304.297 156.251Z" fill="black"/>
<path d="M132.9 119.549C132.815 119.549 132.734 119.583 132.675 119.642C132.615 119.702 132.581 119.783 132.581 119.867C132.581 119.952 132.615 120.033 132.675 120.093C132.734 120.152 132.815 120.186 132.9 120.186C133.303 122.445 134.092 125.925 134.581 128.783C137.626 145.946 140.251 163.199 142.904 180.426C142.958 180.779 143.012 181.133 143.066 181.489C143.775 186.643 144.932 191.828 145.088 196.901C145.058 197.341 144.969 197.755 144.794 198.151C140.889 206.84 133.206 213.106 128.394 221.48C128.115 221.997 127.854 222.53 127.624 223.068C126.338 225.596 127.279 228.915 129.409 230.649C131.449 232.495 133.928 233.661 136.381 234.718C141.252 236.883 146.721 237.979 150.947 240.974C151.075 241.085 151.2 241.2 151.321 241.319C156.047 246.749 154.968 254.774 155.476 261.785L155.574 261.537C155.482 261.625 155.389 261.713 155.296 261.8C153.118 263.84 150.727 265.665 148.135 267.133C147.066 267.734 145.959 268.274 144.814 268.681L144.85 268.671C144.815 268.679 144.78 268.686 144.744 268.694C143.064 269.052 141.304 269.036 139.544 269.039C139.459 269.039 139.378 269.073 139.319 269.133C139.259 269.192 139.225 269.273 139.225 269.358C139.225 269.442 139.259 269.523 139.319 269.583C139.378 269.642 139.459 269.676 139.544 269.676C141.304 269.672 143.1 269.693 144.878 269.316C144.916 269.308 144.953 269.3 144.99 269.292L145.026 269.281C146.22 268.857 147.354 268.302 148.447 267.688C151.095 266.188 153.519 264.336 155.732 262.264C155.827 262.176 155.92 262.087 156.014 261.997L156.12 261.895L156.112 261.749C155.568 254.775 156.813 246.741 151.768 240.866C151.637 240.737 151.501 240.612 151.362 240.492C146.832 237.298 141.477 236.3 136.629 234.132C132.139 232.28 125.615 228.711 128.209 223.318C128.431 222.801 128.683 222.285 128.954 221.782C133.654 213.575 141.374 207.281 145.378 198.405C145.582 197.947 145.692 197.432 145.723 196.946C145.56 191.61 144.405 186.581 143.695 181.393C143.641 181.037 143.587 180.683 143.533 180.33C140.88 163.1 138.256 145.851 135.207 128.669C134.512 125.65 134.612 122.844 132.9 119.549Z" fill="black"/>
<path d="M160.404 315.024C160.475 315.072 160.561 315.089 160.644 315.073C160.728 315.057 160.801 315.008 160.849 314.937C160.896 314.867 160.914 314.78 160.897 314.697C160.881 314.614 160.832 314.54 160.762 314.493C160.762 314.493 160.762 314.493 160.762 314.493C157.863 312.623 154.916 310.79 151.996 308.963C146.293 305.407 140.578 301.878 134.823 298.408C134.739 298.357 134.655 298.307 134.571 298.256C129.085 294.931 122.77 292.568 118.972 287.378C118.905 287.285 118.839 287.192 118.773 287.097C117.98 286.109 118.663 284.902 119.665 284.148C120.65 283.363 121.827 282.775 123.014 282.244C125.4 281.196 127.907 280.39 130.421 279.637C135.458 278.143 140.577 276.915 145.671 275.581C146.03 275.487 146.391 275.395 146.757 275.305C162.525 271.612 178.876 271.253 195.048 270.968C195.276 270.965 195.504 270.962 195.733 270.96C206.537 270.895 217.276 272.384 228.082 273.182L228.062 273.18C228.188 273.196 228.316 273.213 228.444 273.23C238.833 274.604 249.212 276.117 259.44 278.344C260.709 278.626 261.974 278.923 263.233 279.243C263.24 279.245 263.256 279.25 263.272 279.254C265.225 279.881 267.649 280.334 268.824 281.686C268.863 281.759 268.93 281.814 269.009 281.839C269.089 281.863 269.175 281.855 269.249 281.816C269.323 281.777 269.378 281.711 269.402 281.631C269.427 281.551 269.419 281.465 269.38 281.391C269.38 281.391 269.38 281.391 269.38 281.391C267.689 279.499 265.466 279.349 263.446 278.646C263.43 278.641 263.413 278.636 263.397 278.632C262.122 278.307 260.851 278.009 259.577 277.726C249.313 275.487 238.928 273.971 228.527 272.594C228.398 272.578 228.271 272.561 228.144 272.545L228.124 272.543C217.359 271.749 206.593 270.254 195.728 270.32C195.498 270.321 195.268 270.324 195.039 270.327C178.853 270.615 162.484 270.965 146.603 274.683C146.235 274.773 145.87 274.866 145.509 274.961C140.423 276.294 135.299 277.522 130.238 279.023C127.711 279.781 125.189 280.589 122.754 281.658C121.541 282.203 120.335 282.798 119.262 283.649C118.739 284.077 118.21 284.592 117.929 285.295C117.625 286.001 117.816 286.885 118.247 287.462C118.315 287.561 118.384 287.658 118.454 287.754C122.42 293.15 128.826 295.509 134.241 298.805C134.324 298.855 134.409 298.906 134.493 298.957C140.243 302.424 145.957 305.952 151.657 309.507C154.572 311.33 157.536 313.174 160.404 315.024Z" fill="black"/>
<path d="M165.012 136.161C164.929 136.161 164.848 136.194 164.789 136.254C164.729 136.313 164.696 136.394 164.696 136.477C164.696 136.561 164.729 136.642 164.789 136.701C164.848 136.761 164.929 136.794 165.012 136.794C164.98 136.743 165.196 136.973 165.276 137.217C165.374 137.464 165.451 137.741 165.518 138.016C165.651 138.572 165.751 139.147 165.843 139.722C166.04 140.972 166.196 142.233 166.354 143.498C166.358 143.535 166.363 143.572 166.369 143.609C166.574 145.545 168.394 146.835 170.063 147.289L170.151 147.302C170.181 147.303 170.211 147.303 170.241 147.304C185.593 147.587 201.56 150.406 214.243 159.396L214.213 159.371C214.224 159.383 214.236 159.394 214.248 159.405C216.155 161.096 217.565 163.202 218.646 165.513C219.153 166.563 219.623 167.634 220.089 168.715C220.122 168.792 220.184 168.853 220.262 168.884C220.34 168.915 220.427 168.914 220.504 168.881C220.581 168.848 220.642 168.785 220.673 168.707C220.704 168.629 220.703 168.542 220.67 168.465C220.67 168.465 220.67 168.465 220.67 168.465C220.203 167.38 219.73 166.303 219.215 165.237C218.13 162.906 216.627 160.661 214.678 158.94C214.666 158.929 214.654 158.918 214.642 158.907L214.611 158.882C201.76 149.777 185.677 146.958 170.251 146.671C170.221 146.671 170.191 146.67 170.161 146.67L170.249 146.684C168.658 146.234 167.177 145.156 166.995 143.516C166.99 143.484 166.986 143.453 166.982 143.42C166.824 142.153 166.668 140.89 166.468 139.623C166.375 139.039 166.274 138.454 166.133 137.867C166.061 137.575 165.981 137.279 165.863 136.981C165.801 136.831 165.733 136.681 165.624 136.525C165.52 136.382 165.334 136.166 165.012 136.161Z" fill="black"/>
<path d="M164.834 172.751C164.762 172.799 164.713 172.873 164.696 172.956C164.68 173.04 164.697 173.127 164.744 173.198C164.792 173.269 164.866 173.319 164.949 173.336C165.033 173.352 165.12 173.335 165.191 173.288C165.191 173.288 165.191 173.288 165.191 173.288C166.147 172.65 167.119 172.037 168.106 171.449C172.901 168.633 178.024 166.195 183.448 165.045C183.463 165.042 183.479 165.039 183.494 165.036C185.291 164.647 187.299 165.134 188.313 166.67C188.325 166.688 188.337 166.705 188.349 166.723C189.515 168.581 189.738 171.017 189.612 173.256C189.61 173.279 189.608 173.303 189.606 173.326C189.39 176.83 186.541 179.463 183.565 181.188C183.548 181.198 183.53 181.208 183.513 181.219C179.533 183.647 174.32 184.34 170.164 182.159L170.238 182.213C170.235 182.21 170.233 182.208 170.23 182.205C169.246 181.217 169.004 179.65 168.843 178.18C168.843 178.178 168.843 178.176 168.843 178.174C168.743 177.198 168.712 176.221 168.816 175.259C168.934 174.145 169.238 173.056 169.731 172.054C169.769 171.977 169.774 171.889 169.747 171.808C169.719 171.727 169.66 171.66 169.584 171.623C169.507 171.585 169.418 171.58 169.337 171.607C169.257 171.635 169.19 171.694 169.152 171.77C169.152 171.77 169.152 171.77 169.152 171.77C168.625 172.841 168.3 174.009 168.175 175.19C168.065 176.21 168.099 177.235 168.201 178.239C168.202 178.241 168.202 178.243 168.202 178.246C168.378 179.749 168.579 181.433 169.777 182.663C169.78 182.667 169.783 182.67 169.786 182.673L169.86 182.727C174.273 185.043 179.728 184.282 183.84 181.774C183.858 181.763 183.876 181.753 183.894 181.742C186.923 179.988 190.007 177.197 190.249 173.377C190.251 173.353 190.253 173.328 190.254 173.303C190.375 170.945 190.196 168.483 188.882 166.36C188.868 166.34 188.854 166.32 188.84 166.3C187.681 164.524 185.296 163.969 183.372 164.404C183.356 164.407 183.34 164.41 183.324 164.413C177.766 165.593 172.623 168.052 167.776 170.896C166.78 171.489 165.799 172.108 164.834 172.751Z" fill="black"/>
<path d="M170.549 174.9C170.46 174.9 170.376 174.935 170.313 174.998C170.25 175.061 170.215 175.146 170.215 175.234C170.215 175.323 170.25 175.408 170.313 175.47C170.376 175.533 170.46 175.568 170.549 175.568C170.827 175.568 171.102 175.571 171.376 175.583C172.803 175.643 174.222 175.895 175.603 176.285C175.605 176.286 175.606 176.286 175.607 176.286L175.515 176.245C176.712 177.044 177.287 178.587 177.595 180.064C177.595 180.067 177.596 180.07 177.597 180.073C178.045 181.98 177.654 183.987 176.387 185.47C176.218 185.679 176.038 185.879 175.847 186.074C175.785 186.137 175.751 186.222 175.752 186.311C175.753 186.399 175.789 186.484 175.852 186.546C175.915 186.608 176 186.642 176.089 186.642C176.178 186.641 176.262 186.605 176.324 186.541C176.324 186.541 176.324 186.541 176.324 186.541C176.529 186.333 176.723 186.117 176.906 185.891C178.291 184.297 178.741 181.948 178.251 179.94C178.251 179.937 178.25 179.933 178.249 179.93C177.915 178.378 177.347 176.687 175.881 175.685L175.789 175.644C175.788 175.643 175.787 175.643 175.785 175.643C174.36 175.24 172.891 174.978 171.404 174.915C171.12 174.903 170.829 174.9 170.549 174.9Z" fill="black"/>
<path d="M149.207 125.555C149.248 125.635 149.318 125.696 149.403 125.725C149.488 125.753 149.581 125.746 149.661 125.706C149.741 125.666 149.802 125.596 149.83 125.511C149.859 125.426 149.852 125.333 149.812 125.253C149.812 125.253 149.812 125.253 149.812 125.253C149.625 124.93 149.541 124.53 149.008 124.215C148.679 124.048 148.3 124.193 148.108 124.333C147.895 124.48 147.746 124.642 147.602 124.809C147.591 124.822 147.581 124.835 147.57 124.848C145.847 127.205 144.992 129.918 144.395 132.667C144.393 132.677 144.391 132.687 144.389 132.696C143.708 136.147 143.65 139.649 143.636 143.116C143.635 143.488 143.635 143.859 143.635 144.229C143.635 144.318 143.671 144.404 143.734 144.468C143.797 144.531 143.883 144.567 143.973 144.567C144.063 144.567 144.149 144.531 144.212 144.468C144.275 144.404 144.311 144.318 144.311 144.229C144.311 143.859 144.311 143.488 144.312 143.118C144.325 139.663 144.387 136.191 145.051 132.83C145.053 132.821 145.055 132.812 145.057 132.802C145.625 130.143 146.519 127.42 148.09 125.278C148.1 125.267 148.109 125.257 148.118 125.246C148.342 124.957 148.681 124.749 148.72 124.826C148.853 124.878 149.053 125.236 149.207 125.555Z" fill="black"/>
<path d="M230.345 333.919C230.434 333.919 230.52 333.884 230.583 333.821C230.646 333.758 230.681 333.672 230.681 333.583C230.681 333.494 230.646 333.409 230.583 333.346C230.52 333.283 230.434 333.247 230.345 333.247C230.169 333.247 229.814 333.239 229.565 333.494C229.335 333.735 229.29 333.987 229.247 334.202C229.176 334.644 229.193 335.037 229.214 335.44C229.369 337.456 229.786 339.382 230.188 341.327C230.196 341.364 230.204 341.401 230.212 341.439C232.441 351.447 235.05 361.339 237.821 371.211C237.854 371.325 237.886 371.437 237.918 371.547C238.367 373.083 238.799 374.606 239.359 376.124C239.426 376.3 239.505 376.498 239.593 376.684C239.641 376.78 239.683 376.868 239.762 376.985C239.806 377.037 239.825 377.106 239.998 377.199C240.103 377.268 240.362 377.225 240.44 377.122C240.516 377.043 240.536 376.983 240.554 376.94C240.695 376.383 240.633 376.068 240.647 375.662C240.647 375.573 240.612 375.487 240.549 375.424C240.486 375.361 240.4 375.326 240.311 375.326C240.222 375.326 240.137 375.361 240.074 375.424C240.011 375.487 239.975 375.573 239.975 375.662C239.974 376.028 239.98 376.501 239.927 376.701C239.928 376.701 239.924 376.69 239.969 376.642C240.01 376.576 240.221 376.542 240.277 376.588C240.368 376.641 240.32 376.62 240.313 376.6C240.277 376.549 240.238 376.473 240.2 376.394C240.126 376.239 240.05 376.051 239.987 375.884C239.446 374.421 239.009 372.887 238.563 371.361C238.532 371.251 238.499 371.139 238.467 371.025C235.702 361.176 233.089 351.27 230.869 341.298C230.861 341.261 230.853 341.224 230.845 341.187C230.445 339.258 230.031 337.32 229.885 335.399C229.859 334.685 229.796 333.732 230.345 333.919Z" fill="black"/>
<path d="M236.869 332.162C236.786 332.194 236.719 332.258 236.682 332.339C236.646 332.42 236.644 332.513 236.675 332.596C236.707 332.679 236.771 332.746 236.852 332.783C236.934 332.819 237.026 332.821 237.109 332.789C237.109 332.789 237.109 332.789 237.109 332.789C239.915 331.696 242.569 330.323 245.212 328.897C259.706 320.836 273.349 311.332 286.279 300.973C286.306 300.951 286.333 300.929 286.361 300.906C304.124 286.896 320.736 270.768 338.663 257.697C338.67 257.696 338.677 257.695 338.683 257.695L338.368 257.526C343.255 270.885 342.456 285.913 342.017 300.173C341.971 300.957 341.917 301.757 341.857 302.528C341.857 302.528 341.857 302.529 341.857 302.53L341.866 302.474C341.464 304.618 340.161 306.342 338.625 307.878C338.563 307.941 338.528 308.027 338.528 308.116C338.528 308.205 338.564 308.29 338.627 308.353C338.691 308.416 338.776 308.451 338.865 308.45C338.954 308.45 339.04 308.414 339.103 308.351C339.103 308.351 339.103 308.351 339.103 308.351C340.66 306.809 342.111 304.865 342.517 302.637L342.527 302.582C342.527 302.581 342.527 302.58 342.527 302.58C342.587 301.804 342.641 301.001 342.688 300.213C343.105 285.841 344.008 271.021 338.951 257.193L338.846 257.01L338.636 257.025C338.618 257.026 338.6 257.028 338.583 257.03C319.903 270.432 303.806 286.333 285.938 300.384C285.91 300.407 285.883 300.429 285.856 300.451C272.963 310.781 259.326 320.28 244.891 328.307C242.264 329.725 239.618 331.092 236.869 332.162Z" fill="black"/>
<path d="M254.469 393.142C254.406 393.205 254.371 393.29 254.371 393.379C254.371 393.468 254.406 393.554 254.469 393.617C254.532 393.68 254.617 393.715 254.707 393.715C254.796 393.715 254.881 393.68 254.944 393.617C254.944 393.617 254.944 393.617 254.944 393.617C256.215 392.232 257.447 390.801 258.665 389.412C269.105 377.424 279.419 365.315 289.69 353.178C289.692 353.177 289.693 353.175 289.695 353.173C296.416 344.943 302.686 336.357 308.427 327.431C308.429 327.428 308.432 327.425 308.434 327.421C312.307 321.448 316.177 315.442 319.297 308.999C320.106 307.306 320.854 305.579 321.465 303.793C321.493 303.709 321.488 303.617 321.448 303.537C321.409 303.457 321.339 303.396 321.255 303.367C321.171 303.338 321.078 303.344 320.999 303.384C320.919 303.423 320.858 303.492 320.829 303.577C320.829 303.577 320.829 303.577 320.829 303.577C320.231 305.327 319.492 307.033 318.691 308.709C315.6 315.094 311.74 321.089 307.871 327.055C307.869 327.058 307.866 327.061 307.864 327.064C302.129 335.98 295.885 344.53 289.177 352.744C289.18 352.741 289.179 352.743 289.177 352.745C278.907 364.879 268.594 376.987 258.159 388.971C256.95 390.35 255.684 391.817 254.469 393.142Z" fill="black"/>
<path d="M178.625 339.12C178.625 339.034 178.591 338.951 178.53 338.891C178.469 338.83 178.387 338.796 178.301 338.796C178.215 338.796 178.132 338.83 178.071 338.891C178.01 338.951 177.976 339.034 177.976 339.12C177.976 340.992 177.976 342.857 177.976 344.717C177.888 356.236 178.239 367.816 177.252 379.244C177.251 379.254 177.25 379.264 177.248 379.274C177.191 379.734 177.006 380.145 176.672 380.306C176.337 380.478 175.855 380.425 175.407 380.281C174.498 379.982 173.647 379.402 172.854 378.782C172.841 378.772 172.829 378.762 172.816 378.752C166.835 374.064 161.879 368.289 156.62 362.753C156.611 362.744 156.602 362.735 156.593 362.726C152.56 358.528 152.51 351.953 153.696 346.429L153.556 346.632C153.561 346.628 153.566 346.625 153.571 346.622C158.938 343.019 165.403 341.585 171.777 340.655C171.988 340.624 172.199 340.594 172.412 340.563L172.43 340.56C172.432 340.56 172.434 340.56 172.435 340.559C174.062 340.237 175.674 339.846 177.274 339.444C177.36 339.422 177.434 339.368 177.48 339.292C177.525 339.216 177.539 339.125 177.517 339.039C177.496 338.953 177.441 338.879 177.365 338.833C177.289 338.788 177.198 338.774 177.112 338.796C177.112 338.796 177.112 338.796 177.112 338.796C175.512 339.198 173.916 339.585 172.304 339.904C172.303 339.905 172.301 339.905 172.3 339.905L172.318 339.902C172.104 339.932 171.892 339.963 171.68 339.994C165.281 340.929 158.698 342.382 153.207 346.071C153.202 346.074 153.197 346.078 153.192 346.081L153.081 346.154L153.052 346.284C151.857 351.936 151.838 358.674 156.135 363.185C156.144 363.193 156.153 363.202 156.162 363.211C161.371 368.694 166.384 374.536 172.413 379.26C172.426 379.27 172.439 379.281 172.452 379.291C173.282 379.936 174.158 380.549 175.211 380.899C175.731 381.058 176.357 381.179 176.964 380.885C177.582 380.578 177.824 379.904 177.891 379.358C177.892 379.348 177.894 379.338 177.895 379.328C178.893 367.77 178.535 356.253 178.624 344.718C178.625 342.857 178.625 340.992 178.625 339.12Z" fill="black"/>
<path d="M232.783 353.739C232.843 353.68 232.876 353.599 232.876 353.515C232.876 353.432 232.843 353.351 232.784 353.292C232.725 353.232 232.644 353.199 232.56 353.199C232.476 353.199 232.396 353.232 232.336 353.291C232.336 353.291 232.336 353.291 232.336 353.291C231.017 354.608 229.727 355.983 228.469 357.382C215.906 371.959 204.394 387.596 195.995 405.023C195.968 405.094 195.941 405.164 195.915 405.233C195.265 406.947 194.919 409.011 195.793 410.794C195.832 410.877 195.873 410.957 195.917 411.037C198.343 415.28 202.492 418.167 203.976 422.681C203.988 422.716 204 422.75 204.012 422.785L203.997 422.714C204.402 430.298 201.269 437.73 197.365 444.195C197.304 444.294 197.242 444.393 197.179 444.491C197.145 444.546 197.11 444.601 197.075 444.655L197.115 444.605C195.759 446.325 195.494 443.463 195.223 442.05C195.209 441.967 195.163 441.893 195.094 441.844C195.026 441.796 194.941 441.776 194.858 441.79C194.776 441.804 194.702 441.85 194.653 441.918C194.604 441.986 194.585 442.071 194.598 442.154C194.598 442.154 194.598 442.154 194.598 442.154C194.744 442.987 194.855 443.831 195.161 444.684C195.242 444.898 195.338 445.115 195.496 445.325C195.644 445.529 195.926 445.756 196.261 445.762C196.918 445.739 197.24 445.352 197.567 445.047L197.608 444.996C197.643 444.941 197.679 444.885 197.714 444.829C197.777 444.73 197.84 444.63 197.902 444.53C201.853 437.966 205.035 430.523 204.627 422.655L204.612 422.584C204.6 422.548 204.587 422.511 204.575 422.475C202.997 417.74 198.757 414.781 196.473 410.735C196.435 410.664 196.398 410.594 196.364 410.521C195.598 408.966 195.883 407.103 196.508 405.455C196.533 405.388 196.559 405.32 196.585 405.251C204.887 388.025 216.439 372.299 228.939 357.805C230.191 356.413 231.474 355.045 232.783 353.739Z" fill="black"/>
<path d="M182.412 378.984C182.412 379.068 182.446 379.149 182.505 379.208C182.565 379.268 182.646 379.301 182.73 379.301C182.814 379.301 182.895 379.268 182.954 379.208C183.014 379.149 183.047 379.068 183.047 378.984C183.047 378.984 183.047 378.984 183.047 378.984C183.047 378.955 183.048 378.933 183.049 378.922C183.039 378.934 183.085 378.865 183.004 379.029C182.981 379.062 182.936 379.117 182.845 379.148C182.751 379.179 182.66 379.157 182.608 379.13C182.507 379.074 182.495 379.028 182.49 379.025C182.478 379.006 182.476 379 182.475 378.998C182.479 379.007 182.498 379.071 182.51 379.123C182.537 379.231 182.561 379.343 182.586 379.461C182.633 379.689 182.679 379.923 182.723 380.157C182.813 380.624 182.899 381.09 182.985 381.561C183.224 382.861 183.461 384.161 183.702 385.464L183.705 385.477C183.734 385.605 183.764 385.732 183.794 385.859C184.855 389.964 185.888 394.028 186.813 398.159C186.834 398.251 186.855 398.344 186.877 398.438C189.357 409.558 191.846 420.697 194.916 431.687C195.172 432.606 195.433 433.524 195.697 434.443C195.721 434.528 195.779 434.6 195.856 434.643C195.934 434.686 196.025 434.696 196.11 434.672C196.195 434.647 196.267 434.59 196.31 434.512C196.353 434.435 196.363 434.343 196.339 434.258C196.339 434.258 196.339 434.258 196.339 434.258C196.075 433.342 195.815 432.425 195.56 431.508C192.493 420.537 190.008 409.418 187.524 398.291C187.503 398.197 187.482 398.104 187.461 398.012C186.535 393.883 185.463 389.782 184.412 385.711C184.382 385.586 184.353 385.461 184.324 385.335L184.326 385.349C184.086 384.046 183.849 382.748 183.61 381.446C183.523 380.975 183.437 380.508 183.347 380.038C183.302 379.802 183.256 379.566 183.207 379.331C183.182 379.209 183.157 379.095 183.127 378.971C183.108 378.902 183.101 378.858 183.061 378.753C183.053 378.734 183.044 378.715 183.027 378.686C183.019 378.68 182.998 378.621 182.892 378.563C182.838 378.535 182.744 378.512 182.647 378.545C182.554 378.576 182.506 378.634 182.481 378.67C182.403 378.815 182.437 378.776 182.423 378.815C182.419 378.842 182.418 378.851 182.417 378.864C182.412 378.917 182.413 378.943 182.412 378.984Z" fill="black"/>
<path d="M358.464 192.952C358.464 193.04 358.499 193.124 358.561 193.186C358.624 193.249 358.708 193.284 358.796 193.284C358.884 193.284 358.969 193.249 359.031 193.186C359.093 193.124 359.128 193.04 359.128 192.952C359.124 192.66 359.143 192.368 359.058 192.005C359.015 191.84 358.902 191.536 358.57 191.443C358.264 191.375 358.081 191.476 357.92 191.545C357.898 191.556 357.875 191.568 357.852 191.581C357.333 191.875 357.026 192.297 356.73 192.703C354.555 196.138 353.293 199.902 351.885 203.618C351.875 203.642 351.866 203.667 351.857 203.692C346.633 218.281 342.417 233.234 339.189 248.393C338.966 249.452 338.749 250.513 338.538 251.576C338.521 251.662 338.539 251.752 338.588 251.825C338.637 251.898 338.713 251.949 338.799 251.966C338.886 251.983 338.975 251.965 339.049 251.916C339.122 251.867 339.173 251.791 339.19 251.705C339.4 250.645 339.617 249.587 339.839 248.529C343.059 233.407 347.272 218.468 352.481 203.919C352.49 203.895 352.499 203.87 352.508 203.845C353.901 200.158 355.205 196.345 357.272 193.086C357.538 192.712 357.839 192.344 358.167 192.165C358.182 192.157 358.196 192.15 358.21 192.143C358.309 192.09 358.415 192.08 358.395 192.084C358.356 192.066 358.388 192.065 358.415 192.173C358.466 192.374 358.464 192.667 358.464 192.952Z" fill="black"/>
<path d="M355.646 335.521C355.573 335.475 355.484 335.46 355.4 335.48C355.316 335.5 355.243 335.552 355.197 335.626C355.151 335.699 355.137 335.788 355.156 335.872C355.176 335.956 355.228 336.029 355.302 336.075C358.804 338.82 361.631 342.633 364.448 346.236C370.134 353.74 375.206 361.714 379.833 369.936C379.833 369.936 379.833 369.936 379.833 369.936C387.643 384.349 392.96 400.029 397.704 415.714C397.708 415.728 397.712 415.742 397.716 415.756C403.091 432.952 399.134 451.277 393.219 467.915C393.211 467.938 393.203 467.962 393.195 467.986C388.626 482.279 383.9 496.475 378.49 510.474C378.487 510.483 378.483 510.492 378.48 510.501C372.663 526.193 364.373 540.715 356.683 555.591L356.693 555.571C356.686 555.585 356.678 555.598 356.671 555.612C353.122 562.226 349.582 568.835 346.218 575.555C345.823 576.348 345.431 577.145 345.048 577.941L345.055 577.928C345.052 577.933 345.05 577.937 345.048 577.941C343.327 581.206 340.978 584.09 338.613 586.954C338.558 587.021 338.531 587.107 338.539 587.193C338.547 587.279 338.589 587.358 338.655 587.414C338.722 587.469 338.808 587.496 338.894 587.488C338.98 587.48 339.059 587.438 339.115 587.371C339.115 587.371 339.115 587.371 339.115 587.371C341.484 584.5 343.865 581.581 345.622 578.25C345.625 578.246 345.627 578.241 345.629 578.237L345.636 578.224C346.017 577.431 346.408 576.637 346.802 575.845C350.159 569.14 353.698 562.532 357.245 555.921C357.253 555.907 357.26 555.894 357.267 555.88L357.277 555.86C364.914 541.09 373.265 526.451 379.089 510.734C379.092 510.725 379.096 510.716 379.099 510.707C384.512 496.702 389.252 482.464 393.813 468.194C393.821 468.17 393.829 468.147 393.837 468.123C399.758 451.478 403.777 432.945 398.342 415.572C398.338 415.558 398.334 415.544 398.33 415.53C393.573 399.809 388.262 384.126 380.402 369.617C380.402 369.616 380.402 369.616 380.402 369.616C375.762 361.371 370.678 353.377 364.967 345.841C362.109 342.201 359.393 338.458 355.646 335.521Z" fill="black"/>
<path d="M308.154 446.691C308.196 446.613 308.206 446.521 308.181 446.436C308.155 446.35 308.097 446.278 308.019 446.236C307.941 446.194 307.849 446.184 307.763 446.209C307.678 446.235 307.606 446.293 307.563 446.371C307.563 446.371 307.563 446.371 307.563 446.371C305.982 449.838 306.364 453.553 306.476 457.106C306.901 464.624 308.177 472.064 308.265 479.525C308.265 479.593 308.264 479.661 308.264 479.729C308.171 491.341 301.393 501.46 295.057 510.9C295.026 510.946 294.995 510.991 294.964 511.037C288.402 520.491 281.458 529.864 272.968 537.611C272.957 537.62 272.947 537.629 272.937 537.637C269.376 540.761 266.128 544.294 263.666 548.383C263.663 548.387 263.66 548.392 263.658 548.396C261.683 551.82 262.147 555.84 262.488 559.476C262.488 559.479 262.489 559.482 262.489 559.485C264.238 568.533 273.461 572.273 280.351 576.552C280.415 576.589 280.479 576.626 280.543 576.663C294.788 584.717 309.963 591.01 325.601 595.773L325.612 595.776C325.623 595.779 325.634 595.782 325.645 595.785C325.971 595.87 326.297 595.956 326.622 596.041C328.45 596.521 330.283 596.993 332.116 597.449C332.118 597.45 332.12 597.45 332.123 597.451C333.757 597.817 335.273 598.41 336.414 599.583C336.477 599.645 336.563 599.68 336.652 599.679C336.741 599.679 336.826 599.643 336.889 599.579C336.951 599.516 336.986 599.43 336.985 599.341C336.985 599.252 336.949 599.167 336.885 599.104C336.885 599.104 336.885 599.104 336.885 599.104C335.664 597.834 333.914 597.156 332.285 596.799C332.283 596.798 332.281 596.798 332.279 596.797C330.447 596.342 328.62 595.871 326.792 595.391C326.468 595.306 326.141 595.221 325.816 595.135C325.805 595.132 325.794 595.129 325.783 595.126L325.795 595.13C310.208 590.383 295.062 584.1 280.878 576.08C280.814 576.043 280.75 576.007 280.686 575.97C273.778 571.739 264.707 567.819 263.158 559.419C263.157 559.416 263.157 559.412 263.157 559.409C262.806 555.776 262.407 551.883 264.237 548.737C264.239 548.733 264.242 548.729 264.244 548.724C266.648 544.73 269.863 541.227 273.378 538.144C273.388 538.135 273.398 538.127 273.408 538.118C282.002 530.274 288.928 520.906 295.52 511.414C295.551 511.369 295.582 511.323 295.613 511.277C301.946 501.827 308.829 491.624 308.936 479.733C308.936 479.663 308.937 479.594 308.936 479.524C308.846 471.971 307.568 464.54 307.147 457.068C307.019 453.565 306.715 449.801 308.154 446.691Z" fill="black"/>
<path d="M229.002 577.433C229.064 577.496 229.149 577.531 229.238 577.531C229.326 577.531 229.411 577.496 229.474 577.433C229.537 577.37 229.572 577.285 229.572 577.197C229.572 577.108 229.537 577.023 229.474 576.961C229.474 576.961 229.474 576.961 229.474 576.961C236.456 581.835 245.347 586.518 253.255 591.377C258.429 594.464 263.558 597.53 268.742 600.627C269.11 600.846 269.473 601.063 269.834 601.276C279.389 607.497 291.075 611.129 298.697 619.413C298.91 619.742 299.112 620.071 299.303 620.398C304.283 628.049 301.538 637.852 296.709 645.045C291.955 652.511 286.041 659.184 280.765 666.349C280.346 666.913 279.891 667.523 279.467 668.087C266.82 684.773 253.522 700.983 240.258 717.179C239.912 717.601 239.567 718.02 239.224 718.436C225.262 735.015 211.794 752.43 195.109 766.262C194.825 766.475 194.548 766.683 194.264 766.896C188.88 770.866 183.54 775.236 177.124 777.115C176.843 777.194 176.559 777.265 176.27 777.328C152.852 778.158 134.763 759.242 114.312 749.318C113.86 749.084 113.418 748.855 112.968 748.623C103.601 743.863 94.1351 738.891 83.718 736.702C83.3565 736.629 83.0134 736.482 82.7028 736.275C81.703 735.602 81.0798 734.422 80.6245 733.234C80.4853 732.869 80.3825 732.493 80.3175 732.109C79.9521 727.079 82.558 722.151 84.2668 717.301C84.4005 716.957 84.5344 716.614 84.6686 716.272C91.2814 699.353 99.2929 683.027 107.695 666.921C107.791 666.734 107.887 666.547 107.986 666.359C116.941 649.888 130.863 636.94 142.929 622.638L142.952 622.604C143.007 622.513 143.063 622.421 143.12 622.329C144.702 619.758 146.684 617.451 148.778 615.249C150.14 613.821 151.565 612.432 153.01 611.076C153.053 611.037 153.1 610.994 153.148 610.951C158.604 606.009 164.142 601.148 169.663 596.272C169.729 596.213 169.77 596.131 169.775 596.042C169.781 595.954 169.751 595.867 169.692 595.801C169.634 595.734 169.551 595.694 169.463 595.688C169.374 595.683 169.287 595.713 169.221 595.771C169.221 595.771 169.221 595.771 169.221 595.771C163.7 600.648 158.163 605.507 152.698 610.457C152.651 610.5 152.604 610.543 152.557 610.585C151.101 611.951 149.669 613.348 148.294 614.788C146.183 617.008 144.17 619.348 142.551 621.979C142.494 622.072 142.436 622.166 142.38 622.259L142.404 622.225C130.41 636.45 116.43 649.435 107.394 666.049C107.295 666.239 107.197 666.428 107.1 666.617C98.7005 682.719 90.6707 699.079 84.0468 716.028C83.9123 716.371 83.7781 716.715 83.6442 717.06C81.9406 721.962 79.2907 726.711 79.6589 732.22C79.731 732.647 79.8461 733.068 80.0002 733.472C80.483 734.714 81.1271 736.008 82.3332 736.832C82.7083 737.082 83.1365 737.266 83.5839 737.357C93.866 739.514 103.305 744.459 112.662 749.217C113.111 749.448 113.553 749.677 114.004 749.911C134.443 759.769 152.243 778.779 176.413 777.981C176.714 777.915 177.012 777.841 177.306 777.758C183.921 775.812 189.277 771.396 194.665 767.43C194.949 767.217 195.226 767.009 195.51 766.796C212.344 752.837 225.757 735.458 239.74 718.861C240.083 718.444 240.428 718.025 240.774 717.603C254.041 701.403 267.338 685.195 280.001 668.488C280.426 667.923 280.882 667.312 281.302 666.747C286.56 659.605 292.473 652.938 297.275 645.4C302.149 638.184 305.033 627.946 299.88 620.062C299.684 619.725 299.477 619.388 299.258 619.05C291.214 610.344 279.755 606.965 270.174 600.701C269.814 600.488 269.451 600.272 269.085 600.053C263.901 596.957 258.772 593.891 253.598 590.804C245.422 586.296 237.685 580.088 229.002 577.433Z" fill="black"/>
<path d="M148.743 393.309C148.724 393.218 148.67 393.139 148.593 393.089C148.516 393.038 148.422 393.02 148.332 393.039C148.242 393.058 148.162 393.111 148.112 393.188C148.061 393.265 148.043 393.36 148.062 393.45C148.062 393.45 148.062 393.45 148.062 393.45C148.149 395.906 147.667 398.684 147.36 401.302C146.407 408.532 145.335 415.743 144.376 422.977C144.375 422.982 144.374 422.988 144.374 422.994C141.752 444.649 141.519 466.486 141.593 488.256C141.593 488.26 141.593 488.265 141.593 488.269C141.461 500.559 145.504 512.386 150.089 523.575L150.099 523.597C150.1 523.6 150.101 523.602 150.102 523.604C152.409 528.443 155.294 532.988 158.427 537.314C158.428 537.315 158.428 537.315 158.428 537.316L158.421 537.305C159.266 538.573 160.091 539.87 160.952 541.142C162.45 543.366 164.062 545.526 165.859 547.532C165.921 547.601 166.008 547.643 166.1 547.648C166.193 547.653 166.284 547.621 166.353 547.559C166.422 547.498 166.464 547.411 166.469 547.318C166.474 547.226 166.442 547.135 166.38 547.066C166.38 547.066 166.38 547.066 166.38 547.066C164.61 545.089 163.019 542.958 161.531 540.751C160.676 539.487 159.855 538.196 159.002 536.917L158.995 536.907C158.995 536.906 158.995 536.906 158.995 536.906C155.873 532.595 153.016 528.099 150.729 523.303C150.728 523.301 150.727 523.298 150.726 523.296L150.736 523.319C146.146 512.115 142.161 500.446 142.289 488.264C142.289 488.259 142.289 488.255 142.289 488.25C142.213 466.504 142.45 444.663 145.063 423.086C145.064 423.08 145.064 423.074 145.065 423.068C146.023 415.84 147.095 408.633 148.05 401.391C148.352 398.716 148.858 396.16 148.743 393.309Z" fill="black"/>
<path d="M195.782 479.987C195.844 480.05 195.929 480.085 196.018 480.085C196.106 480.085 196.191 480.05 196.254 479.987C196.317 479.925 196.352 479.84 196.352 479.751C196.352 479.663 196.317 479.578 196.254 479.515C196.218 479.481 196.179 479.434 196.089 479.374C196.024 479.309 195.728 479.251 195.59 479.369C195.363 479.552 195.366 479.664 195.312 479.774C195.232 479.994 195.192 480.181 195.149 480.38C195.068 480.771 195.01 481.156 194.956 481.544C194.849 482.316 194.765 483.09 194.687 483.86C194.424 486.505 194.228 489.123 194.035 491.781C194.026 491.901 194.017 492.023 194.009 492.146C192.756 510.247 191.791 528.362 190.353 546.43C190.35 546.465 190.347 546.5 190.345 546.536C189.798 553.382 189.053 560.178 188.258 567.007C188.095 568.541 187.942 570.093 187.932 571.658C187.932 571.747 187.967 571.832 188.029 571.895C188.091 571.958 188.176 571.994 188.265 571.994C188.353 571.995 188.438 571.96 188.501 571.898C188.564 571.835 188.6 571.75 188.6 571.662C188.6 571.662 188.6 571.662 188.6 571.662C188.609 570.14 188.76 568.605 188.922 567.078C189.715 560.265 190.464 553.44 191.01 546.59C191.013 546.555 191.016 546.52 191.019 546.484C192.458 528.402 193.423 510.285 194.675 492.194C194.684 492.071 194.692 491.949 194.701 491.829C194.894 489.175 195.09 486.558 195.352 483.927C195.429 483.162 195.513 482.392 195.617 481.635C195.67 481.256 195.728 480.879 195.803 480.516C195.841 480.335 195.882 480.159 195.938 480.008C195.954 479.943 196.032 479.857 195.957 479.927C195.9 479.986 195.716 479.948 195.729 479.937C195.72 479.93 195.749 479.954 195.782 479.987Z" fill="black"/>
<path d="M209.553 564.769C209.487 564.703 209.399 564.667 209.306 564.667C209.213 564.667 209.124 564.703 209.059 564.769C208.993 564.835 208.956 564.923 208.956 565.016C208.956 565.109 208.993 565.198 209.059 565.263C209.059 565.263 209.059 565.263 209.059 565.263C209.823 565.964 210.762 565.804 211.511 565.71C213.782 565.293 215.831 564.389 217.884 563.515L217.908 563.503C217.913 563.5 217.919 563.497 217.925 563.494C226.889 558.811 235.81 553.917 245.181 550.228C245.184 550.227 245.187 550.226 245.19 550.225C246.319 549.84 247.498 549.518 248.621 548.938C249.319 548.577 249.966 548.099 250.523 547.548C250.589 547.483 250.626 547.394 250.627 547.301C250.628 547.209 250.591 547.119 250.526 547.053C250.461 546.987 250.373 546.95 250.28 546.949C250.187 546.948 250.098 546.985 250.032 547.05C250.032 547.05 250.032 547.05 250.032 547.05C249.517 547.559 248.938 547.987 248.298 548.318C247.272 548.85 246.11 549.174 244.962 549.564C244.952 549.567 244.949 549.569 244.945 549.57C235.459 553.305 226.58 558.186 217.597 562.877C217.591 562.88 217.586 562.883 217.58 562.886L217.604 562.874C215.579 563.74 213.512 564.635 211.402 565.019C210.708 565.129 209.925 565.155 209.553 564.769Z" fill="black"/>
<path d="M246.955 575.752C246.866 575.752 246.78 575.787 246.716 575.851C246.653 575.914 246.617 576 246.617 576.089C246.617 576.179 246.653 576.265 246.716 576.328C246.78 576.392 246.866 576.427 246.955 576.427C246.955 576.427 246.955 576.427 246.955 576.427C247.41 576.424 247.823 576.351 248.239 576.267C251.105 575.61 253.773 574.516 256.46 573.463L256.45 573.467C256.451 573.466 256.453 573.466 256.454 573.466C258.14 572.84 259.88 572.376 261.618 571.804C261.619 571.803 261.62 571.803 261.621 571.803C264.168 570.928 266.648 569.966 269.166 569.071C269.554 568.932 269.932 568.796 270.323 568.656C270.407 568.626 270.476 568.564 270.515 568.483C270.553 568.402 270.558 568.309 270.527 568.224C270.497 568.14 270.435 568.071 270.354 568.033C270.273 567.994 270.18 567.99 270.095 568.02C270.095 568.02 270.095 568.02 270.095 568.02C269.704 568.16 269.326 568.295 268.937 568.435C266.421 569.33 263.916 570.3 261.408 571.161C261.407 571.162 261.406 571.162 261.405 571.162C259.701 571.724 257.935 572.195 256.222 572.831C256.221 572.831 256.22 572.832 256.219 572.832L256.209 572.836C253.541 573.883 250.851 574.977 248.103 575.605C247.712 575.685 247.32 575.75 246.955 575.752Z" fill="black"/>
<path d="M301.447 615.078C301.508 615.017 301.543 614.933 301.543 614.846C301.543 614.759 301.508 614.676 301.447 614.614C301.385 614.553 301.302 614.518 301.215 614.518C301.128 614.518 301.044 614.553 300.983 614.614C300.983 614.614 300.983 614.614 300.983 614.614C300.904 614.692 300.825 614.771 300.741 614.862C300.699 614.909 300.658 614.954 300.607 615.028C300.587 615.088 300.525 615.049 300.525 615.339C300.531 615.417 300.612 615.543 300.684 615.58C300.758 615.625 300.805 615.63 300.84 615.635C300.909 615.642 300.942 615.635 300.97 615.632C301.312 615.55 301.46 615.449 301.675 615.351C301.677 615.35 301.68 615.348 301.682 615.347C301.695 615.341 301.708 615.335 301.721 615.328C304.304 613.998 306.593 612.24 308.75 610.346C308.756 610.341 308.762 610.336 308.768 610.33C312.56 606.927 315.954 603.153 319.387 599.433C319.685 599.108 319.983 598.783 320.281 598.458C320.34 598.394 320.371 598.309 320.367 598.222C320.363 598.135 320.325 598.053 320.261 597.994C320.197 597.935 320.112 597.905 320.025 597.908C319.938 597.912 319.856 597.95 319.797 598.014C319.797 598.014 319.797 598.014 319.797 598.014C319.499 598.34 319.202 598.665 318.903 598.99C315.474 602.706 312.079 606.478 308.333 609.839C308.327 609.844 308.321 609.85 308.315 609.855C306.191 611.721 303.918 613.46 301.428 614.741C301.416 614.747 301.404 614.753 301.392 614.759C301.39 614.76 301.387 614.761 301.385 614.762C301.208 614.85 300.957 614.965 300.87 614.983C300.873 614.983 300.877 614.979 300.918 614.983C300.94 614.987 300.973 614.988 301.036 615.026C301.096 615.057 301.169 615.169 301.173 615.234C301.169 615.466 301.142 615.38 301.152 615.394C301.162 615.378 301.194 615.339 301.226 615.304C301.292 615.233 301.369 615.156 301.447 615.078Z" fill="black"/>
<path d="M134.313 591.439C134.272 591.358 134.201 591.297 134.115 591.268C134.029 591.239 133.935 591.246 133.854 591.286C133.773 591.327 133.712 591.398 133.683 591.484C133.654 591.57 133.661 591.664 133.701 591.745C133.701 591.745 133.701 591.745 133.701 591.745C133.943 592.212 134.123 592.675 134.29 593.178C134.83 594.832 135.257 596.553 135.691 598.264C135.691 598.265 135.691 598.265 135.691 598.266C137.565 605.852 139.3 613.494 141.066 621.116C141.186 621.635 141.305 622.155 141.425 622.674C141.446 622.763 141.5 622.839 141.577 622.887C141.654 622.935 141.747 622.951 141.835 622.931C141.924 622.91 142 622.856 142.048 622.779C142.096 622.702 142.112 622.609 142.091 622.521C142.091 622.521 142.091 622.521 142.091 622.521C141.972 622.001 141.852 621.482 141.732 620.962C139.965 613.339 138.232 605.701 136.355 598.1C136.354 598.099 136.354 598.098 136.354 598.098C135.918 596.379 135.493 594.663 134.939 592.961C134.769 592.448 134.563 591.921 134.313 591.439Z" fill="black"/>
<path d="M241.638 723.086C241.564 723.027 241.47 723.001 241.376 723.012C241.283 723.023 241.197 723.071 241.139 723.145C241.081 723.219 241.054 723.314 241.066 723.407C241.077 723.501 241.125 723.586 241.199 723.644C241.199 723.644 241.199 723.644 241.199 723.644C242.954 725.01 244.837 726.213 246.732 727.367C256.056 732.905 266.06 737.439 276.662 739.931C276.683 739.936 276.704 739.941 276.725 739.945C285.49 741.914 294.498 741.399 303.287 742.164C303.315 742.166 303.342 742.169 303.37 742.172C312.119 742.427 318.492 735.959 325.876 732.753L325.962 732.695C325.994 732.664 326.027 732.634 326.059 732.604C334.421 724.884 342.367 716.16 346.743 705.455C346.747 705.447 346.749 705.441 346.751 705.436C346.901 705.076 347.053 704.719 347.205 704.358C348.101 702.327 348.752 700.147 349.178 697.967C349.197 697.874 349.178 697.778 349.126 697.7C349.074 697.621 348.993 697.567 348.901 697.548C348.808 697.529 348.712 697.548 348.634 697.6C348.555 697.652 348.5 697.733 348.482 697.826C348.482 697.826 348.482 697.826 348.482 697.826C348.057 699.985 347.437 702.066 346.55 704.081C346.398 704.441 346.246 704.8 346.095 705.163C346.092 705.168 346.09 705.174 346.088 705.179C341.761 715.759 333.919 724.378 325.575 732.084C325.543 732.114 325.51 732.144 325.478 732.174L325.564 732.115C318.149 735.375 311.601 741.767 303.444 741.465C303.416 741.462 303.388 741.459 303.359 741.456C294.469 740.687 285.523 741.195 276.882 739.252C276.861 739.247 276.84 739.242 276.819 739.238C266.329 736.774 256.359 732.259 247.101 726.759C245.221 725.615 243.349 724.416 241.638 723.086Z" fill="black"/>
<path d="M304.647 652.825C304.734 652.796 304.806 652.734 304.848 652.651C304.889 652.569 304.896 652.473 304.867 652.386C304.837 652.298 304.775 652.226 304.692 652.185C304.61 652.143 304.514 652.137 304.427 652.166C304.427 652.166 304.427 652.166 304.427 652.166C303.99 652.315 303.54 652.448 303.082 652.708C302.86 652.842 302.6 653.014 302.455 653.359C302.309 653.715 302.436 654.087 302.575 654.32L302.622 654.401L302.704 654.448C302.73 654.462 302.755 654.477 302.781 654.491C302.894 654.555 303.008 654.62 303.122 654.684C316.691 662.409 331.355 668.489 343.394 678.367L343.358 678.33C343.366 678.34 343.375 678.35 343.383 678.36C345.789 681.3 347.926 684.475 350.061 687.642C350.664 688.539 351.263 689.438 351.863 690.338C351.914 690.415 351.994 690.468 352.084 690.486C352.174 690.504 352.268 690.485 352.345 690.434C352.422 690.383 352.475 690.304 352.493 690.213C352.511 690.123 352.493 690.029 352.441 689.952C352.441 689.952 352.441 689.952 352.441 689.952C351.841 689.052 351.242 688.153 350.639 687.254C348.499 684.082 346.359 680.899 343.919 677.918C343.911 677.907 343.902 677.897 343.894 677.887L343.857 677.849C331.64 667.832 317.007 661.795 303.464 654.078C303.35 654.014 303.236 653.95 303.123 653.886C303.098 653.872 303.073 653.857 303.047 653.843L303.177 653.971C302.728 653.46 303.825 653.097 304.647 652.825Z" fill="black"/>
<path d="M240.671 799.771C240.671 799.676 240.633 799.584 240.565 799.517C240.498 799.45 240.407 799.412 240.311 799.412C240.216 799.412 240.125 799.45 240.057 799.517C239.99 799.584 239.952 799.676 239.952 799.771C239.952 799.771 239.952 799.771 239.952 799.771C239.951 800.034 239.954 800.298 239.923 800.513C239.917 800.613 239.848 800.72 239.903 800.65C239.943 800.61 240.034 800.609 240.027 800.613C240.029 800.614 239.994 800.601 239.958 800.577C239.945 800.568 239.929 800.557 239.914 800.546C239.828 800.482 239.734 800.393 239.647 800.3C238.904 799.479 238.352 798.403 238.095 797.314L238.095 797.475C238.101 797.449 238.107 797.424 238.112 797.398C240.151 788.899 244.711 781.069 250.334 774.401L250.317 774.419C250.324 774.412 250.331 774.405 250.338 774.398C252.088 772.62 254.087 771.129 256.308 770C256.922 769.682 257.545 769.386 258.179 769.103C258.269 769.063 258.339 768.989 258.373 768.897C258.408 768.806 258.406 768.704 258.366 768.615C258.326 768.526 258.252 768.456 258.16 768.421C258.069 768.386 257.967 768.389 257.878 768.429C257.878 768.429 257.878 768.429 257.878 768.429C257.234 768.717 256.597 769.019 255.969 769.344C253.693 770.499 251.601 772.059 249.816 773.877C249.808 773.884 249.801 773.891 249.794 773.898L249.777 773.916C244.072 780.69 239.484 788.551 237.395 797.239C237.389 797.265 237.384 797.291 237.378 797.317L237.379 797.478C237.679 798.717 238.261 799.838 239.125 800.795C239.232 800.907 239.345 801.017 239.485 801.123C239.511 801.141 239.54 801.162 239.568 801.18C239.645 801.228 239.729 801.279 239.858 801.312C239.98 801.349 240.217 801.333 240.359 801.205C240.617 800.954 240.596 800.777 240.634 800.619C240.677 800.307 240.669 800.038 240.671 799.771Z" fill="black"/>
<path d="M262.382 767.279C262.282 767.299 262.193 767.359 262.136 767.444C262.079 767.529 262.059 767.634 262.079 767.734C262.099 767.835 262.158 767.923 262.243 767.98C262.329 768.037 262.433 768.058 262.534 768.038C262.534 768.038 262.534 768.038 262.534 768.038C263.499 767.845 264.469 767.661 265.439 767.485C275.898 765.594 286.533 764.502 296.929 761.984C296.947 761.98 296.964 761.976 296.982 761.972L297.086 761.929C301.573 759.259 303.995 754.501 306.32 750.189C306.321 750.188 306.322 750.186 306.323 750.184C307.339 748.313 308.539 746.585 309.803 744.85C310.38 744.046 310.951 743.23 311.502 742.405C311.559 742.32 311.58 742.215 311.56 742.114C311.54 742.014 311.481 741.925 311.396 741.868C311.31 741.811 311.206 741.79 311.105 741.81C311.005 741.83 310.916 741.89 310.859 741.975C310.859 741.975 310.859 741.975 310.859 741.975C310.313 742.793 309.749 743.599 309.174 744.399C307.919 746.121 306.674 747.914 305.646 749.81C305.645 749.811 305.644 749.813 305.643 749.815C303.308 754.163 300.924 758.754 296.695 761.262L296.799 761.22C296.781 761.224 296.764 761.229 296.746 761.233C286.42 763.735 275.8 764.827 265.301 766.724C264.327 766.901 263.352 767.085 262.382 767.279Z" fill="black"/>
<path d="M244.741 809.38C244.646 809.38 244.555 809.417 244.488 809.484C244.421 809.551 244.383 809.642 244.383 809.737C244.383 809.832 244.421 809.923 244.488 809.99C244.555 810.057 244.646 810.095 244.741 810.095C247.423 810.031 250.118 809.95 252.763 809.878C270.96 809.371 289.121 808.896 307.307 808.451C307.469 808.447 307.632 808.443 307.795 808.439C317.56 808.032 327.269 808.97 337.093 808.156C337.316 808.129 337.539 808.101 337.761 808.07C343.792 806.617 345.229 800.147 347.987 795.72C350.53 790.951 353.376 786.337 356.808 782.158C356.864 782.089 356.919 782.021 356.973 781.954C362.348 775.184 367.893 768.568 372.567 761.212L372.559 761.226C372.57 761.209 372.58 761.191 372.591 761.174C372.728 760.956 372.868 760.738 373.009 760.519C374.493 758.267 375.707 755.85 376.838 753.413C376.878 753.327 376.882 753.229 376.849 753.14C376.816 753.051 376.75 752.979 376.664 752.939C376.578 752.899 376.479 752.895 376.39 752.927C376.301 752.96 376.229 753.027 376.189 753.113C376.189 753.113 376.189 753.113 376.189 753.113C375.063 755.54 373.873 757.908 372.407 760.132C372.267 760.352 372.125 760.572 371.985 760.795C371.974 760.813 371.963 760.83 371.952 760.848L371.944 760.861C367.36 768.076 361.776 774.758 356.417 781.505C356.362 781.572 356.308 781.64 356.253 781.707C352.786 785.928 349.91 790.594 347.358 795.382C344.656 799.846 342.933 806.214 337.664 807.362C337.446 807.392 337.227 807.42 337.009 807.446C327.364 808.25 317.543 807.319 307.778 807.724C307.615 807.728 307.452 807.732 307.289 807.736C289.102 808.181 270.941 808.657 252.743 809.163C250.104 809.235 247.382 809.317 244.741 809.38Z" fill="black"/>
<path d="M358.99 704.249C358.912 704.198 358.818 704.179 358.727 704.198C358.636 704.216 358.556 704.27 358.505 704.347C358.454 704.424 358.435 704.518 358.453 704.609C358.472 704.7 358.525 704.78 358.602 704.831C358.602 704.831 358.602 704.831 358.602 704.831C359.373 705.346 360.12 705.964 360.829 706.584C368.932 714.321 376.708 723.237 380.601 733.758L380.59 733.707C380.592 733.723 380.594 733.738 380.596 733.754C381.037 737.389 381.31 741.058 381.33 744.715C381.33 744.722 381.33 744.73 381.33 744.737C381.335 746.984 381.187 749.227 380.939 751.465C380.834 752.419 380.715 753.372 380.596 754.327C380.584 754.419 380.61 754.512 380.667 754.585C380.724 754.658 380.807 754.706 380.899 754.717C380.991 754.729 381.084 754.703 381.157 754.646C381.231 754.589 381.278 754.506 381.29 754.414C381.29 754.414 381.29 754.414 381.29 754.414C381.409 753.458 381.529 752.502 381.634 751.541C381.884 749.286 382.034 747.011 382.029 744.736C382.029 744.729 382.029 744.721 382.029 744.714C382.009 741.014 381.734 737.335 381.29 733.667C381.288 733.651 381.286 733.635 381.284 733.62L381.274 733.568C377.244 722.718 369.504 713.923 361.29 706.059C360.567 705.426 359.806 704.796 358.99 704.249Z" fill="black"/>
<path d="M88.7355 740.297C88.8208 740.262 88.889 740.196 88.9251 740.111C88.9612 740.027 88.9622 739.931 88.928 739.846C88.8937 739.761 88.827 739.692 88.7424 739.656C88.6578 739.62 88.5624 739.619 88.4771 739.653C88.4771 739.653 88.4771 739.653 88.4771 739.653C84.1902 741.188 79.5753 742.087 75.0394 743.035C65.6334 744.893 56.1256 746.46 46.5701 747.179C46.5057 747.184 46.4414 747.188 46.3773 747.192C39.2785 747.647 32.0936 747.276 25.1437 745.794C25.0462 745.773 24.9507 745.751 24.8573 745.73C19.3448 744.807 15.7128 749.725 12.7659 753.336C9.75052 757.206 7.34576 761.562 4.20912 765.189C4.03063 765.382 3.85552 765.576 3.68277 765.774C1.8826 767.826 0.382102 770.326 0.043588 773.129C0.0108015 773.39 -0.00350812 773.65 0.000728697 773.912C0.133304 777.168 2.59746 779.45 4.75127 781.377C4.9385 781.539 5.14696 781.703 5.34856 781.848C15.0794 787.221 26.1371 788.201 36.7288 790.31C36.9315 790.345 37.1338 790.38 37.3356 790.415C54.1577 793.443 71.1713 795.727 87.6988 799.903C87.8141 799.935 87.9291 799.967 88.0437 799.999C100.436 803.649 113.352 805.122 125.957 807.488C126.03 807.504 126.104 807.518 126.177 807.533C128.681 808.034 131.41 807.905 133.757 806.74L133.838 806.685C133.882 806.645 133.927 806.604 133.972 806.564C138.945 802.04 143.912 797.515 148.677 792.755C149.728 791.697 150.77 790.622 151.773 789.514L151.762 789.526C151.774 789.514 151.786 789.501 151.799 789.489C153.93 787.239 156.799 785.922 159.623 784.586C159.707 784.547 159.772 784.476 159.804 784.389C159.836 784.302 159.832 784.206 159.793 784.121C159.754 784.037 159.683 783.972 159.596 783.94C159.509 783.908 159.413 783.912 159.329 783.951C156.503 785.289 153.531 786.648 151.304 788.994C151.292 789.007 151.279 789.02 151.266 789.032L151.255 789.045C150.264 790.14 149.228 791.208 148.181 792.261C143.437 797.002 138.471 801.526 133.502 806.046C133.457 806.086 133.413 806.127 133.368 806.167L133.449 806.112C131.27 807.194 128.711 807.326 126.312 806.847C126.241 806.833 126.171 806.819 126.101 806.804C113.398 804.42 100.6 802.967 88.23 799.325C88.1157 799.293 88.0011 799.261 87.886 799.229C71.2564 795.028 54.2825 792.756 37.4551 789.726C37.2532 789.691 37.051 789.656 36.8484 789.621C26.3091 787.54 15.0972 786.45 5.75833 781.282C5.57091 781.146 5.37919 780.996 5.20945 780.848C3.07692 778.964 0.786979 776.722 0.699855 773.901C0.69616 773.672 0.708634 773.445 0.737326 773.217C1.05289 770.599 2.45938 768.23 4.20994 766.234C4.37763 766.041 4.54792 765.852 4.72179 765.665C7.96922 761.903 10.3272 757.599 13.3206 753.762C16.2098 750.151 19.8832 745.524 24.7018 746.412C24.7967 746.433 24.8937 746.455 24.9926 746.477C32.0327 747.978 39.2622 748.342 46.4232 747.884C46.4877 747.88 46.5524 747.875 46.6174 747.871C56.2307 747.147 65.7436 745.577 75.1763 743.715C79.7381 742.759 84.3084 741.88 88.7355 740.297Z" fill="black"/>
<path d="M138.352 580.183C138.264 580.206 138.187 580.262 138.14 580.341C138.093 580.42 138.079 580.514 138.101 580.603C138.123 580.692 138.18 580.768 138.258 580.815C138.337 580.862 138.431 580.876 138.52 580.854C138.52 580.854 138.52 580.854 138.52 580.854C139.15 580.697 139.78 580.539 140.409 580.381C143.635 579.574 146.856 578.75 150.078 577.919C150.078 577.919 150.078 577.919 150.078 577.919C158.174 575.836 166.248 573.664 174.301 571.412C174.928 571.237 175.548 571.063 176.179 570.886C176.268 570.861 176.342 570.802 176.387 570.722C176.432 570.642 176.443 570.548 176.419 570.459C176.394 570.371 176.335 570.296 176.255 570.251C176.175 570.206 176.081 570.195 175.992 570.22C175.992 570.22 175.992 570.22 175.992 570.22C175.362 570.397 174.742 570.571 174.115 570.746C166.066 572.997 157.997 575.167 149.905 577.25C149.905 577.25 149.905 577.25 149.905 577.25C146.684 578.081 143.465 578.904 140.241 579.711C139.612 579.869 138.982 580.026 138.352 580.183Z" fill="black"/>
<path d="M142.978 525.489C143.068 525.459 143.142 525.395 143.184 525.311C143.226 525.227 143.233 525.129 143.203 525.04C143.173 524.95 143.109 524.876 143.025 524.834C142.94 524.792 142.843 524.785 142.753 524.815C142.753 524.815 142.753 524.815 142.753 524.815C142.361 524.936 141.862 525.144 141.528 525.514C141.189 525.875 140.987 526.292 140.827 526.707C140.165 528.612 140.071 530.524 139.936 532.445C139.935 532.475 139.933 532.504 139.931 532.534C139.555 541.682 139.911 550.801 140.474 559.914C140.475 559.926 140.475 559.939 140.476 559.952C140.803 563.918 140.954 567.976 142.489 571.791C142.82 572.58 143.223 573.339 143.671 574.062C143.72 574.142 143.8 574.199 143.891 574.221C143.983 574.242 144.08 574.227 144.16 574.177C144.24 574.128 144.297 574.048 144.319 573.957C144.341 573.865 144.325 573.768 144.276 573.688C144.276 573.688 144.276 573.688 144.276 573.688C143.843 572.989 143.46 572.267 143.145 571.515C141.68 567.897 141.506 563.85 141.186 559.903C141.185 559.89 141.184 559.878 141.183 559.865C140.622 550.786 140.267 541.649 140.641 532.574C140.643 532.545 140.644 532.516 140.646 532.487C140.774 530.598 140.891 528.673 141.491 526.961C141.775 526.201 142.18 525.691 142.978 525.489Z" fill="black"/>
</svg>
